<?xml version="1.0" encoding="UTF-8" standalone="no"?>
<!-- Created with Inkscape (http://www.inkscape.org/) -->

<svg
   xmlns:dc="http://purl.org/dc/elements/1.1/"
   xmlns:cc="http://creativecommons.org/ns#"
   xmlns:rdf="http://www.w3.org/1999/02/22-rdf-syntax-ns#"
   xmlns:svg="http://www.w3.org/2000/svg"
   xmlns="http://www.w3.org/2000/svg"
   xmlns:sodipodi="http://sodipodi.sourceforge.net/DTD/sodipodi-0.dtd"
   xmlns:inkscape="http://www.inkscape.org/namespaces/inkscape"
   width="297mm"
   height="210mm"
   viewBox="0 0 297 210"
   version="1.1"
   id="svg8"
   inkscape:version="0.92.3 (unknown)"
   sodipodi:docname="Anser_cygnoides_domesticus_old.svg">
  <defs
     id="defs2" />
  <sodipodi:namedview
     id="base"
     pagecolor="#ffffff"
     bordercolor="#666666"
     borderopacity="1.0"
     inkscape:pageopacity="0.0"
     inkscape:pageshadow="2"
     inkscape:zoom="0.35"
     inkscape:cx="-110"
     inkscape:cy="560"
     inkscape:document-units="mm"
     inkscape:current-layer="layer1"
     showgrid="false"
     inkscape:window-width="2495"
     inkscape:window-height="1416"
     inkscape:window-x="65"
     inkscape:window-y="24"
     inkscape:window-maximized="1" />
  <metadata
     id="metadata5">
    <rdf:RDF>
      <cc:Work
         rdf:about="">
        <dc:format>image/svg+xml</dc:format>
        <dc:type
           rdf:resource="http://purl.org/dc/dcmitype/StillImage" />
        <dc:title></dc:title>
      </cc:Work>
    </rdf:RDF>
  </metadata>
  <g
     inkscape:label="Layer 1"
     inkscape:groupmode="layer"
     id="layer1"
     transform="translate(0,-87)">
    <path
       style="stroke:#000000;stroke-width:0.26458332;stroke-miterlimit:10"
       d="m 81.646169,105.57585 c -3.03355,2.65417 -5.41345,5.03895 -9.03869,6.76929 -1.07548,0.51315 -10.73436,5.88015 -9.50267,6.34248 3.81693,1.4312 8.27677,0.1066 12.1371,1.03952 1.83657,0.44374 3.97271,1.83115 5.8072,2.47568 1.58496,0.55695 3.80455,1.56838 5.07341,2.69632 2.00518,1.78198 0.68877,10.08369 0.68877,12.94403 0,2.20258 -1.25646,4.85881 -1.60105,7.09982 -0.41733,2.71325 -1.02304,5.39593 -1.46513,8.10877 -1.37464,8.43682 -4.13591,17.09096 -3.91692,25.70297 0.11981,4.70842 0.20037,9.39494 0.58547,14.08808 0.45739,5.57979 0.0487,11.00175 2.88481,16.01302 5.03084,8.88965 12.04164,15.43666 20.791511,20.64955 4.45696,2.655 9.94476,5.03276 15.06323,5.79133 3.40498,0.50489 7.95531,-0.17766 10.9773,1.39402 2.84142,1.47747 3.99005,3.31936 3.99005,6.22722 0,4.89765 0.9243,9.48377 0.10329,14.32813 -0.41317,2.43726 -0.85195,4.93814 -1.47833,7.33037 -0.83957,3.20615 -2.45594,3.56684 -5.26473,4.56546 -2.50799,0.89203 -5.49815,1.98237 -8.13133,2.21622 -1.91591,0.17022 -3.25832,0.35325 -5.20357,0.76187 -1.45396,0.30492 -2.71539,0.37433 -4.19623,0.37433 0.0872,2.47568 3.47112,1.78694 5.1577,2.3757 -1.05153,0.44415 -2.16421,0.57719 -2.36873,1.85924 2.48319,0 5.36056,0.2417 6.92071,2.58228 1.65436,2.48146 5.4403,1.18702 7.94996,0.58132 1.47008,-0.3545 3.09676,-1.29197 4.44537,-2.0274 1.4796,-0.80691 2.78193,-1.13331 4.33837,-1.75595 0.88254,-0.35284 1.98615,-1.14818 2.85009,-1.62952 2.11093,-1.17628 0.53054,-2.77027 1.00611,-4.67124 0.53506,-2.14019 0.1855,-4.26055 0.51646,-6.71392 0.27435,-2.0336 0.77555,-4.65472 0.77555,-6.70442 0,-1.71753 1.74112,-3.80484 2.04232,-5.77563 0.18923,-1.23908 0.36774,-2.48023 0.54004,-3.72179 0.17973,-1.29238 -0.4545,-2.37487 -0.5107,-3.67055 -0.12684,-2.91984 0.0975,-2.77564 2.83522,-2.60418 2.40843,0.15039 4.816,0.25658 7.2298,0.093 4.45404,-0.30161 10.37034,-1.28329 14.32322,-3.54247 9.51176,-5.43518 19.98416,-8.96898 31.05278,-9.19746 1.30234,-0.0268 2.665,-0.19418 3.96403,-0.0987 1.66304,0.12229 3.20461,0.97507 4.935,1.75966 1.80971,0.82014 3.90039,1.71299 5.84191,0.67759 1.59859,-0.85235 3.59383,0.64991 4.88955,0.70362 1.45232,0.0603 -0.66315,-3.98538 -0.68092,-4.09322 -0.15948,-0.95647 -2.92158,-1.68158 -3.86734,-2.07574 -2.42949,-1.01225 -4.74452,-1.99145 -6.98601,-3.37555 4.24334,-1.78652 9.19486,-0.54207 13.42828,0.51645 1.61635,0.40408 12.78537,1.93031 12.78537,2.35256 0,-1.75966 1.88202,-1.47458 -0.80735,-2.67772 -1.47587,-0.66065 -2.38528,-1.91253 -3.82561,-2.58227 -1.37671,-0.64041 -6.0262,-3.05081 -7.3149,-2.33728 1.07137,-3.26276 10.05055,1.50764 7.32275,-3.9482 -1.4486,-2.89669 -6.47904,-5.28313 -9.19321,-6.81721 -2.68028,-1.51508 -5.54402,-1.93981 -8.26355,-3.20533 -2.51501,-1.17009 -5.73367,-1.48079 -7.95367,-3.09543 -1.29697,-0.94326 -2.23571,-1.60763 -3.19098,-2.92273 -0.28509,-0.39333 -2.24355,-2.08152 -2.23364,-2.42899 -0.0198,0.71766 8.02557,2.38396 9.17751,2.07904 3.68596,-0.97589 -4.60859,-3.72137 -5.8882,-4.24609 -5.21389,-2.13771 -10.85294,-2.78845 -16.27052,-4.44978 -4.76931,-1.46261 -9.59771,-3.51727 -14.56866,-4.08537 -4.92921,-0.56315 -8.8891,-2.78349 -13.45719,-4.86254 -1.7994,-0.81889 -4.01775,-0.87798 -5.96463,-0.87798 -2.52865,0 -4.68048,-2.05135 -7.22567,-2.53311 -5.96008,-1.12794 -11.58261,-2.03359 -17.66541,-2.14432 -3.35954,-0.0612 -7.8954,-0.52059 -10.91327,1.03663 -3.20336,1.65307 -7.41198,0.24377 -8.57342,-3.24086 -1.52794,-4.58324 -0.83918,-9.84365 -0.83918,-14.58141 0,-5.71861 0.51649,-11.31823 0.51649,-17.04345 0,-5.49096 -0.57721,-11.02736 -0.91106,-16.50675 -0.29337,-4.8213 -2.12622,-10.78574 -5.15274,-14.61618 -4.875921,-6.16979 -12.144951,-6.15285 -18.521521,-2.67483 z"
       id="path3"
       inkscape:connector-curvature="0" />
  </g>
</svg>
