<?xml version="1.0" encoding="UTF-8" standalone="no"?>
<!-- Created with Inkscape (http://www.inkscape.org/) -->

<svg
   xmlns:dc="http://purl.org/dc/elements/1.1/"
   xmlns:cc="http://creativecommons.org/ns#"
   xmlns:rdf="http://www.w3.org/1999/02/22-rdf-syntax-ns#"
   xmlns:svg="http://www.w3.org/2000/svg"
   xmlns="http://www.w3.org/2000/svg"
   xmlns:sodipodi="http://sodipodi.sourceforge.net/DTD/sodipodi-0.dtd"
   xmlns:inkscape="http://www.inkscape.org/namespaces/inkscape"
   version="1.2"
   width="297mm"
   height="210mm"
   viewBox="0 0 1122.5197 793.70082"
   id="Layer_1"
   xml:space="preserve"
   sodipodi:docname="Balearica_regulorum_gibbericeps.svg"
   inkscape:version="0.92.3 (unknown)"><metadata
   id="metadata10"><rdf:RDF><cc:Work
       rdf:about=""><dc:format>image/svg+xml</dc:format><dc:type
         rdf:resource="http://purl.org/dc/dcmitype/StillImage" /><dc:title /></cc:Work></rdf:RDF></metadata><sodipodi:namedview
   pagecolor="#ffffff"
   bordercolor="#666666"
   borderopacity="1"
   objecttolerance="10"
   gridtolerance="10"
   guidetolerance="10"
   inkscape:pageopacity="0"
   inkscape:pageshadow="2"
   inkscape:window-width="2495"
   inkscape:window-height="1416"
   id="namedview8"
   showgrid="false"
   units="mm"
   inkscape:zoom="1.1350046"
   inkscape:cx="561.25984"
   inkscape:cy="396.85039"
   inkscape:window-x="65"
   inkscape:window-y="24"
   inkscape:window-maximized="1"
   inkscape:current-layer="Layer_1" /><defs
   id="defs13">
        
        
        
        
        
        
        
    </defs>
    
    <path
   inkscape:connector-curvature="0"
   style="fill:#ffffff"
   id="path5"
   d="m 362.63551,59.47265 c 2.336,-3.876 8.445,-3.979 13.312,-5.324 -0.85,5.005 -9.521,5.448 -13.312,5.324 z" /><path
   inkscape:connector-curvature="0"
   id="path9"
   d="m 523.69551,224.53065 64.558,25.957 83.859,36.604 c 0,0 23.282,17.736 23.959,17.304 15.508,13.179 16.141,22.462 29.284,28.618 0.998,2.349 6.327,4.825 5.392,6.894 -0.828,-2.583 -3.596,-2.716 -5.392,-2.9 10.67,11.736 18.478,26.336 31.28,35.939 2.347,7.859 5.781,14.629 14.643,15.973 -0.061,2.159 -2.29,2.148 -3.328,3.328 1.797,1.753 3.955,3.143 6.655,3.993 5.614,5.348 35.337,51.799 36.14,79.333 -1.136,3.885 0.531,18.869 -5,38.668 -7.802,22.533 -17.166,33.168 -20.416,36.418 -4.75,4.75 -8.807,10.113 -16.048,12.635 -0.536,-7.719 -8.036,2.031 -5.618,-4.551 -4.25,1.75 3.18,-5.379 1.625,-6.764 -4.037,0.109 -1.59,3.146 -5.625,1.096 0.744,-4.654 3.334,-8.082 2.416,-14.082 -3.844,-7.691 -16.863,-44.137 -16.757,-44.916 -2.806,-3.904 -1.78,-4.082 -4.659,-7.322 -9.789,9.398 -17.843,27.27 -34.607,25.291 0.06,-4.902 3.959,-9.064 0,-12.645 -3.748,2.248 -8.662,6.109 -12.646,5.988 -4.965,-2.982 -5.82,-8.191 -7.32,-13.311 -2.439,0.221 -3.699,-0.74 -5.326,-1.332 -1.471,-6.973 -15.444,-23.355 -18.635,-24.625 7.56,24.396 15.951,45.453 24.625,63.227 3.826,3.059 3.291,5.557 3.328,7.988 0.123,7.926 1.824,29.996 1.998,31.945 6.325,35.848 27.732,133.625 31.945,146.42 2.395,7.271 10,10.541 10.648,17.971 -4.191,-3.352 -8.478,-6.609 -11.979,-10.648 0.34,10.588 -2.209,19.883 -9.983,22.629 -2.92,1.031 -7.021,-0.23 -9.982,0.666 -5.499,1.662 -8.674,7.068 -13.977,6.654 -2.756,-0.398 -2.611,-1.826 -5.324,-1.332 -3.11,0.219 -2.881,3.775 -5.99,3.994 0.904,-8.857 10.883,-8.641 15.308,-13.977 -10.508,1.025 -20.653,2.23 -25.956,-4.66 -2.125,0.344 -5.037,3.354 -7.32,1.332 9.754,-11.482 36.041,-0.17 45.922,-10.648 1.179,-7.475 1.996,-24.18 1.998,-26.623 0.14,-11.959 -8.157,-53.83 -9.983,-63.227 -4.269,-21.977 -16.634,-73.158 -17.97,-77.203 -2.52,-7.625 -10.616,-12.504 -11.979,-20.631 0.375,-4.174 2.416,-11.736 1.996,-16.639 -0.88,0.008 -11.463,-45.283 -20.371,-55.453 -2.603,1.391 -0.711,3.09 -3.589,4.205 -7.761,-0.373 -10.958,-9.84 -17.304,-13.312 -6.84,-3.742 -16.631,-2.162 -23.959,-3.326 -0.58,-0.973 -0.528,-2.578 -2.662,-1.998 1.561,3.373 0.24,6.377 1.331,9.318 -1.366,0.631 -3.168,0.826 -3.328,2.662 2.438,5.41 -3.827,12.127 -4.659,20.633 -0.584,5.973 6.26,42.959 7.321,50.58 1.683,3.32 2.935,8.111 1.765,14.654 -0.423,2.369 -3.255,4.641 -4.427,7.309 -3.707,8.441 -5.403,20.053 -7.987,29.951 -3.246,12.443 -22.367,113.906 -24.626,119.797 4.179,7.801 1.847,14.926 5.99,21.297 2.909,4.477 11.06,6.629 8.651,13.312 -0.928,-0.85 -0.289,-3.262 -1.996,-3.328 -7.549,0.893 -7.008,-6.303 -11.98,-7.986 0.49,3.375 -1.378,10.146 -1.997,11.98 -1.712,4.564 -3.581,11.662 -8.652,14.641 -3.453,2.029 -8.053,1.418 -11.979,3.328 -6.441,3.133 -13.041,14.066 -23.294,9.982 -2.661,1.332 -2.821,5.166 -5.989,5.99 -0.42,-11.072 12.418,-12.426 15.307,-17.971 -10.424,0.955 -23.311,7.766 -31.945,0.666 -4.045,-0.107 -6.195,4.666 -9.316,3.328 3.246,-8.273 12.078,-8.939 20.617,-10.506 7.025,-1.289 15.059,-2.648 20.873,-4.293 5.684,-1.609 9.635,-3.701 13.083,-7.83 4.673,-5.594 6.897,-16.914 9.317,-23.295 3.802,-10.02 16.708,-69.988 17.305,-75.871 0.767,-7.541 10.296,-57.047 9.317,-73.875 -0.104,-2.213 -0.771,-6.879 -1.854,-10.795 -0.334,-6.168 5.261,-10.193 7.001,-17.25 1.094,-4.436 -2.357,-52.791 -3.667,-56.334 -4.161,-0.303 -6.935,-6.867 -9.466,-5.473 -4.216,-6.432 -9.546,-11.75 -10.648,-21.297 -1.899,-0.984 -2.322,-3.445 -5.324,-3.328 -1.984,-3.338 -1.742,-8.906 -3.994,-11.979 -0.217,2.484 -4.23,0.695 -3.327,2.662 -2.101,-1.449 -1.127,-5.973 -1.331,-9.316 -14.809,-29.119 -35.734,-52.117 -47.92,-83.859 -9.924,-7.824 -15.99,-19.505 -24.625,-28.618 -6.826,-0.496 -7.391,-7.251 -14.643,-7.321 -4.697,-11.499 -13.154,-19.237 -17.969,-30.615 -1.357,-1.162 -1.307,0.495 -2.662,-0.666 -1.34,-6.646 -5.844,-10.13 -9.318,-14.642 -6.459,-17.411 -13.551,-36.274 -17.305,-56.572 -6.156,-33.293 4.43,-67.227 17.305,-93.842 7.984,-10.267 13.254,-26.595 11.98,-43.926 -18.188,-13.923 -52.242,-10.957 -74.541,-5.99 -22.03,4.909 -40.705,15.586 -63.231,19.304 10.51,-12.809 27.92,-17.705 43.262,-25.291 15.518,-7.673 31.576,-14.971 44.592,-24.625 9.697,-0.324 10.379,-8.437 14.641,-13.311 7.268,-8.307 24.719,-15.2420003 37.271,-10.648 7.814,2.859 20.084,11.597 23.295,15.973 1.221,1.664 0.736,4.497 1.996,6.655 1.254,2.146 4.268,3.456 5.324,5.324 4.693,8.299 3.744,18.118 4.658,25.291 1.16,9.095 2.125,15.562 -1.33,24.625 -5.084,13.328 -15.178,29.38 -21.299,41.264 -8.621,16.743 -11.893,48.059 0.939,63.392 5.277,6.331 7.713,9.375 7.713,8.488 5.955,9.513 24.086,13.852 25.957,13.977 1.27,-0.285 31.946,5.323 31.944,5.325 z m -147.748,-170.381 c -4.867,1.345 -10.977,1.448 -13.312,5.324 3.791,0.123 12.462,-0.32 13.312,-5.324 z" />
    
</svg>