<?xml version="1.0" encoding="UTF-8" standalone="no"?>
<!-- Created with Inkscape (http://www.inkscape.org/) -->

<svg
   xmlns:dc="http://purl.org/dc/elements/1.1/"
   xmlns:cc="http://creativecommons.org/ns#"
   xmlns:rdf="http://www.w3.org/1999/02/22-rdf-syntax-ns#"
   xmlns:svg="http://www.w3.org/2000/svg"
   xmlns="http://www.w3.org/2000/svg"
   xmlns:sodipodi="http://sodipodi.sourceforge.net/DTD/sodipodi-0.dtd"
   xmlns:inkscape="http://www.inkscape.org/namespaces/inkscape"
   version="1.2"
   width="297mm"
   height="210mm"
   viewBox="0 0 1122.5197 793.70079"
   id="Layer_1"
   xml:space="preserve"
   style="overflow:inherit"
   sodipodi:docname="Callorhinchus_milii.svg"
   inkscape:version="0.92.3 (unknown)"><metadata
   id="metadata7"><rdf:RDF><cc:Work
       rdf:about=""><dc:format>image/svg+xml</dc:format><dc:type
         rdf:resource="http://purl.org/dc/dcmitype/StillImage" /><dc:title></dc:title></cc:Work></rdf:RDF></metadata><sodipodi:namedview
   pagecolor="#ffffff"
   bordercolor="#666666"
   borderopacity="1"
   objecttolerance="10"
   gridtolerance="10"
   guidetolerance="10"
   inkscape:pageopacity="0"
   inkscape:pageshadow="2"
   inkscape:window-width="2495"
   inkscape:window-height="1416"
   id="namedview5"
   showgrid="false"
   units="mm"
   inkscape:zoom="0.28336557"
   inkscape:cx="517"
   inkscape:cy="160.5"
   inkscape:window-x="65"
   inkscape:window-y="24"
   inkscape:window-maximized="1"
   inkscape:current-layer="Layer_1" /><defs
   id="defs7" />
<path
   d="m 44.259843,413.35039 c 0,-1 0,-2 0,-3 26.395,-37.798 80.272997,-49.233 135.999997,-57 13.565,-1.891 32.456,-3.189 40,-8 5.161,-3.291 8.852,-15.494 13,-25 17.267,-39.568 41.16,-70.867 77,-84 -4.687,17.324 -6.292,47.102 -8,69 -0.787,10.089 -6.27,22.642 -2,30 5.288,9.111 20.21,5.723 32,7 20.268,-8.202 33.757,-21.517 58,-24 32.079,-3.286 64.54,5.629 96,10 77.388,10.752 150.992,28.042 219,46 13.558,3.58 28.976,5.057 39,15 -4.668,5.666 -15.199,5.468 -21,10 28.546,-2.094 51.96,-13.157 81,-13 38.825,0.209 72.14,14.699 106,20 55.636,8.71 111.40396,0.668 167.99996,7 -53.901,9.747 -114.05096,-2.206 -164.99996,1 -27.116,1.706 -55.411,12.854 -86,14 -31.904,1.194 -61.498,-2.392 -93,-8 -2.578,4.059 -6.695,3.902 -11,5 -20.49,5.226 -45.455,4 -68,4 -22.356,0 -44.666,-1.785 -65,-1 -45.193,1.744 -85.335,11.542 -128,15 4.04,2.263 6.875,8.897 4,15 27.011,15.333 46.507,63.064 31,99 -23.848,-2.128 -39.433,-16.26 -53,-29 -7.157,-6.722 -14.764,-12.801 -20,-21 -5.561,-8.708 -7.257,-19.042 -15,-27 -24.002,1.831 -42.998,2.831 -68,4 -23.559,19.836 -74.772,40.332 -109,17 -3.81,-4.959 -8.187,-10.885 -8,-17 -33.475,-9.807 -70.712,-1.079 -105,-10 -2.113,-1.554 -6.193,-1.141 -5,-6 -4.866,0.134 -5.605,4.396 -12,3 -5.522997,-3.143 -3.884997,-13.448 -7.999997,-18 -21.466,-8.534 -40.305,-19.695 -50,-40 z"
   id="path3"
   style="fill-rule:evenodd"
   inkscape:connector-curvature="0" />
</svg>