<?xml version="1.0" encoding="UTF-8" standalone="no"?>
<!-- Created with Inkscape (http://www.inkscape.org/) -->

<svg
   xmlns:dc="http://purl.org/dc/elements/1.1/"
   xmlns:cc="http://creativecommons.org/ns#"
   xmlns:rdf="http://www.w3.org/1999/02/22-rdf-syntax-ns#"
   xmlns:svg="http://www.w3.org/2000/svg"
   xmlns="http://www.w3.org/2000/svg"
   xmlns:sodipodi="http://sodipodi.sourceforge.net/DTD/sodipodi-0.dtd"
   xmlns:inkscape="http://www.inkscape.org/namespaces/inkscape"
   version="1.1"
   width="297mm"
   height="210mm"
   viewBox="0 0 1122.5197 793.70079"
   id="Layer_1"
   xml:space="preserve"
   sodipodi:docname="Calypte_anna.svg"
   inkscape:version="0.92.3 (unknown)"><metadata
   id="metadata35"><rdf:RDF><cc:Work
       rdf:about=""><dc:format>image/svg+xml</dc:format><dc:type
         rdf:resource="http://purl.org/dc/dcmitype/StillImage" /><dc:title></dc:title></cc:Work></rdf:RDF></metadata><sodipodi:namedview
   pagecolor="#ffffff"
   bordercolor="#666666"
   borderopacity="1"
   objecttolerance="10"
   gridtolerance="10"
   guidetolerance="10"
   inkscape:pageopacity="0"
   inkscape:pageshadow="2"
   inkscape:window-width="2495"
   inkscape:window-height="1416"
   id="namedview33"
   showgrid="false"
   units="mm"
   inkscape:zoom="1.6051389"
   inkscape:cx="561.25984"
   inkscape:cy="396.85039"
   inkscape:window-x="65"
   inkscape:window-y="24"
   inkscape:window-maximized="1"
   inkscape:current-layer="Layer_1" /><defs
   id="defs63">
        
        
        
    
            
            
            
            
            
            
            
            
            
            
            
            
            
            
            
            
            
            
            
            
            
            
            
            
            
            
            
            
            
            
            
            
            
            
            
            
            
            
            
            
            
            
            
            
            
            
            
            
            
            
            
            
            
            
            
        </defs>
    
    <path
   d="m 284.4201,365.74579 c 0.0421,0.20246 0.0632,0.30369 0.10533,0.50614 0.15184,-0.0316 0.30369,-0.0632 0.50614,-0.10532 0.15185,-0.0316 0.30369,-0.0632 0.50615,-0.10533 2.53071,-0.52663 5.06142,-1.05327 7.59213,-1.5799 0.0421,0.20246 0.0632,0.30368 0.10533,0.50614 0.15184,-0.0316 0.30368,-0.0632 0.46606,-0.0442 13.21588,0.57659 26.46599,-0.96618 39.75032,-4.62831 0.20246,-0.0421 0.30369,-0.0632 0.50614,-0.10533 2.02457,-0.4213 4.04914,-0.84261 6.07371,-1.26392 0.0421,0.20246 0.0632,0.30369 0.10533,0.50615 0.20246,-0.0421 0.30368,-0.0632 0.50614,-0.10533 0.20246,-0.0421 0.30369,-0.0632 0.50614,-0.10533 3.03686,-0.63196 6.07371,-1.26392 9.11056,-1.89588 0.0421,0.20246 0.0632,0.30369 0.10533,0.50614 0.20246,-0.0421 0.30369,-0.0632 0.50614,-0.10532 0.20246,-0.0421 0.30369,-0.0632 0.50615,-0.10533 1.21474,-0.25279 2.37886,-0.49504 3.54299,-0.73729 0.0421,0.20246 0.0632,0.30369 0.10533,0.50614 0.20245,-0.0421 0.30368,-0.0632 0.50614,-0.10532 2.83645,-0.32623 5.59273,-0.53016 8.30893,-0.67295 0.20246,-0.0421 0.30369,-0.0632 0.50614,-0.10532 1.31597,-0.27385 2.73317,-0.56877 4.04914,-0.84262 0.0421,0.20246 0.0632,0.30369 0.10533,0.50615 0.20245,-0.0421 0.30368,-0.0632 0.50614,-0.10533 30.84222,-2.77456 52.08388,8.96376 63.84728,35.29513 0.0421,0.20245 0.0632,0.30368 0.15595,0.49561 4.00345,7.56305 7.60792,14.73388 10.76279,21.52301 0.0421,0.20246 0.10328,0.24254 0.17496,0.33323 1.19134,0.64979 2.11264,1.77822 2.69223,3.2946 0.20245,-0.0421 0.31421,-0.0126 0.42597,0.017 1.23193,0.58853 2.46285,1.17728 3.64366,1.77646 0.0421,0.20245 0.11381,0.29315 0.19602,0.43446 3.29959,3.1682 6.38825,6.59153 9.41781,10.23838 0.20246,-0.0421 0.2636,-0.002 0.37536,0.0275 2.6735,2.18956 5.34678,3.11183 8.16471,2.94787 0.0421,0.20246 0.0632,0.30369 0.19603,0.43447 15.53078,21.85096 33.26604,40.33884 53.16571,55.52479 -21.57797,20.64897 -41.54506,42.44128 -59.74942,65.34534 -11.00489,13.85461 -15.67742,29.71826 -13.89531,47.67111 9.20302,-0.43656 17.35015,-3.66333 24.43085,-9.73093 0.14171,-0.0828 0.23201,-0.15389 0.43447,-0.19602 -7.45927,10.84612 -9.69736,22.92919 -6.71428,36.24921 0.0316,0.15185 0.0737,0.3543 0.10533,0.50615 3.58951,-1.27503 5.94498,-0.8675 7.05587,1.17199 0.0822,0.14131 0.12434,0.34377 0.15594,0.49561 9.4792,-0.12438 17.05084,-4.34032 22.83722,-12.56765 0.0906,-0.0722 0.18088,-0.14326 0.38385,-0.18549 -2.61875,7.46254 -4.01017,14.98652 -4.23541,22.53185 -0.019,0.16238 0.0231,0.36483 0.0547,0.51668 4.12873,1.5699 6.41838,3.94496 6.74665,7.04501 0.0421,0.20245 0.0632,0.30368 0.10533,0.50614 2.6805,-0.82184 4.74487,-0.0369 6.25424,2.39493 0.0927,0.19193 0.11381,0.29316 0.15594,0.49561 1.66178,-0.13459 3.17378,0.026 4.38413,0.51344 0.17342,0.0695 0.28467,0.0992 0.48713,0.0571 11.56636,-6.84264 20.39602,-16.17852 26.51854,-28.11942 0.0906,-0.0722 0.13077,-0.13283 0.33323,-0.17496 -0.10619,3.29607 -0.82823,6.93153 -2.16612,10.90636 -0.0296,0.11176 -0.0797,0.12219 -0.28262,0.16443 0.66618,0.91749 0.92744,1.91924 0.68257,3.02632 -0.008,0.21299 0.0126,0.31422 0.0547,0.51667 -0.9988,5.8581 -0.36126,12.22057 1.87252,19.14858 0.0421,0.20245 0.0632,0.30368 0.10533,0.50614 1.33031,1.57137 2.59948,3.10267 3.95934,4.56229 0.1223,0.0802 0.20451,0.22147 0.23611,0.37331 2.81509,0.83995 5.88121,1.36364 9.22789,1.45929 0.0611,0.0401 0.0822,0.14131 0.11381,0.29315 0.20246,-0.0421 0.30369,-0.0632 0.50615,-0.10532 0.51667,-0.0547 1.02281,-0.16004 1.51842,-0.31598 -0.0316,-0.15185 -0.0632,-0.30369 0.038,-0.32475 8.64564,-6.92133 15.52856,-14.9544 20.76052,-24.06967 0.0421,0.20246 0.0632,0.30368 0.15594,0.49561 0.81619,1.88959 1.54068,3.85107 2.22559,5.87359 0.0421,0.20245 0.0527,0.25307 0.16443,0.28262 2.09196,0.41009 3.70224,1.55304 4.83265,3.43004 0.20246,-0.0421 0.30368,-0.0632 0.49561,-0.15594 2.85331,-0.75271 4.08074,-0.69077 3.76418,0.32561 0.0316,0.15184 0.0632,0.30369 0.10533,0.50614 0.46315,3.49444 2.52313,5.01958 6.22002,4.5143 0.0421,0.20246 0.0632,0.30369 0.10532,0.50614 0.20246,-0.0421 0.30369,-0.0632 0.49561,-0.15594 2.49696,-0.94258 4.86335,-1.75133 6.88587,-2.43624 0.20246,-0.0421 0.29316,-0.11381 0.42393,-0.24664 1.26719,-1.26701 2.63661,-2.5553 4.00553,-3.84348 0.20246,-0.0421 0.26361,-0.002 0.32476,0.038 1.99239,1.96166 4.73581,2.71091 8.10999,2.4312 0.20246,-0.0421 0.29316,-0.11381 0.37332,-0.2361 3.34755,-3.70656 5.45109,-8.31598 6.2094,-13.80719 0.20246,-0.0421 0.26361,-0.002 0.26361,-0.002 1.40386,3.19359 3.62815,5.00085 6.6732,5.4233 0.20246,-0.0421 0.29316,-0.11381 0.32271,-0.22557 5.47449,-9.21855 7.15787,-20.92216 4.97847,-35.20152 0.0316,0.15185 0.12434,0.34377 0.15594,0.49561 2.26186,4.01783 5.17556,7.10792 8.7411,9.27028 0.20246,-0.0421 0.30368,-0.0632 0.43446,-0.19603 1.61351,-1.12785 2.93192,-2.405 3.995,-3.8941 -0.0421,-0.20245 -0.0126,-0.31421 -0.0547,-0.51667 1.47802,-8.12287 1.24619,-15.83711 -0.63585,-23.10234 -0.0316,-0.15184 -0.0126,-0.31422 0.017,-0.42598 0.29703,-0.8539 1.41465,-0.55841 3.23054,0.8063 0.20246,-0.0421 0.29316,-0.11381 0.37332,-0.2361 3.1049,-3.60379 4.24278,-8.53979 3.36271,-14.79899 -0.20246,0.0421 -0.25307,0.0527 -0.2636,0.002 -1.23495,-3.65066 -1.7889,-7.07391 -1.84293,-10.12489 -0.0316,-0.15185 -0.12435,-0.34377 -0.19603,-0.43447 -2.3463,-3.15483 -2.5672,-5.48513 -0.77241,-6.75685 l 0.0527,0.25307 c 3.08775,-1.9099 5.6085,-5.02196 7.58332,-9.23494 0.20195,-0.042 0.24254,-0.10328 0.29315,-0.11382 0.19006,-8.22448 -0.81468,-16.09525 -3.11361,-23.59004 0.20195,-0.042 0.31422,-0.0126 0.47609,0.007 1.62835,0.71727 3.02779,2.11584 4.12017,4.3176 0.20195,-0.042 0.25307,-0.0527 0.24254,-0.10328 -0.46132,-4.49813 -0.39237,-8.73696 0.26647,-12.6761 -0.0316,-0.15184 -0.0737,-0.3543 -0.15644,-0.4955 -1.14835,-4.24955 -0.88827,-7.31361 0.79127,-9.14169 -0.0421,-0.20246 -0.0632,-0.30369 -0.0547,-0.51668 -0.31364,-2.52222 -0.43946,-5.6644 -0.42807,-9.416 0.20195,-0.042 0.29315,-0.11382 0.27209,-0.21504 1.70273,-3.99795 1.57156,-9.19846 -0.39504,-15.60119 -0.20245,0.0421 -0.30419,0.0633 -0.50614,0.10532 -0.71525,-0.64325 -1.16999,-1.81596 -1.29455,-3.42703 0.009,-0.21309 -0.0121,-0.31432 -0.0542,-0.51678 -0.0421,-0.20246 -0.11431,-0.29305 -0.14591,-0.44489 -1.53892,-2.32006 -1.77617,-4.22398 -0.61186,-5.73414 -0.0421,-0.20246 -0.0632,-0.30369 -0.10533,-0.50614 -0.25279,-1.21475 -0.4845,-2.32826 -0.73729,-3.543 -0.0421,-0.20246 -0.0126,-0.31422 -0.0547,-0.51668 0.0366,-3.12316 -0.96872,-5.92391 -2.85345,-8.38323 -0.0421,-0.20246 -0.0632,-0.30368 -0.10533,-0.50614 -2.96839,-15.27691 -8.87577,-29.20294 -17.66252,-41.73768 -0.0421,-0.20246 -0.0126,-0.31422 0.006,-0.4766 0.70695,-1.67796 2.3815,-2.76624 5.0345,-3.21271 -0.0421,-0.20245 -0.0126,-0.31422 0.017,-0.42598 2.06727,-2.75366 1.63083,-5.35594 -1.19605,-7.77762 -0.0421,-0.20246 -0.0126,-0.31422 0.0275,-0.37537 3.20623,-3.62434 6.85063,-6.91689 11.04615,-9.84993 -0.0421,-0.20246 -0.0126,-0.31422 0.038,-0.32475 5.65891,-6.29979 9.69884,-13.53055 12.26143,-21.77297 -0.0421,-0.20246 -0.0527,-0.25308 -0.002,-0.26361 1.78048,-0.58174 3.64217,-1.02195 5.46428,-1.40113 0.20195,-0.042 0.30369,-0.0632 0.49561,-0.15594 4.73053,-1.88211 6.56119,-5.00898 5.4113,-9.52224 -0.0421,-0.20246 -0.002,-0.2636 0.038,-0.32475 2.17414,-1.98381 4.59338,-3.8074 7.21763,-5.40961 0.20195,-0.042 0.30369,-0.0632 0.50614,-0.10533 1.51843,-0.31598 3.03686,-0.63196 4.55528,-0.94794 -0.0421,-0.20246 -0.002,-0.26361 -0.002,-0.26361 4.89135,-2.1268 8.68105,-4.97486 11.39168,-8.44327 l 0.25307,-0.0527 c -0.58134,-3.04739 -0.27504,-5.38179 0.90839,-7.05382 -0.0421,-0.20246 -0.0632,-0.30369 -0.10532,-0.50614 -0.25279,-1.21475 -0.48451,-2.32826 -0.73729,-3.543 l -0.25307,0.0527 c 0.72973,-2.58093 2.90694,-4.30135 6.60177,-5.07023 -0.0421,-0.20246 -0.002,-0.2636 0.038,-0.32475 2.66616,-2.66706 4.41461,-5.93524 5.2574,-9.75424 -0.0421,-0.20246 -0.0632,-0.30369 -0.0547,-0.51668 -0.21447,-2.8069 -0.90962,-6.14743 -2.15715,-10.11231 0.15184,-0.0316 0.3543,-0.0737 0.44449,-0.1453 2.93642,-1.87841 5.93297,-3.71652 8.94107,-5.50423 -0.0421,-0.20246 -0.0632,-0.30369 -0.0547,-0.51668 -0.13459,-1.66178 0.0365,-3.12316 0.62519,-4.35458 -0.0421,-0.20246 -0.0632,-0.30369 -0.10532,-0.50615 -0.73729,-3.54299 -1.47458,-7.08599 -2.21186,-10.62898 -0.15185,0.0316 -0.3042,0.0633 -0.32526,-0.0379 -1.23911,-1.64316 -1.57616,-3.26282 -1.23415,-4.91817 0.15184,-0.0316 0.29315,-0.11381 0.3227,-0.22557 2.50407,-3.95348 1.14165,-5.6766 -4.11734,-5.3215 l -0.25307,0.0527 c 0.59098,-2.23522 1.47716,-4.32065 2.63748,-6.35752 0.15184,-0.0316 0.35429,-0.0737 0.44448,-0.1453 1.43263,-0.9846 2.82466,-1.90795 4.19563,-2.93253 -0.0421,-0.20246 -0.002,-0.26361 0.038,-0.32475 4.73549,-5.15712 5.40077,-9.57285 1.88408,-13.27675 -0.0421,-0.20246 -0.0126,-0.31422 0.006,-0.47659 2.36538,-6.14248 6.22198,-13.49298 11.68156,-22.02195 -0.0421,-0.20245 -0.0632,-0.30368 -0.10533,-0.50614 -0.25278,-1.21474 -0.31159,-2.25862 -0.12582,-3.14218 0.15184,-0.0316 0.30369,-0.0632 0.38385,-0.18549 1.0272,-0.90023 1.48302,-2.26243 1.40958,-3.88414 0.15184,-0.0316 0.25307,-0.0527 0.28262,-0.16442 0.22585,-0.94471 0.82913,-1.59831 1.93211,-1.88064 -0.0421,-0.20246 -0.0632,-0.30368 -0.004,-0.52721 0.0889,-1.60268 0.69659,-2.99648 1.69219,-4.04856 l -0.25307,0.0527 c 0.98975,-3.11029 1.77448,-6.44196 2.40633,-10.00584 0.15184,-0.0316 0.3543,-0.0737 0.43396,-0.19591 14.08761,-9.9548 19.1519,-23.68212 15.26506,-41.09136 l -0.25307,0.0527 c 1.40285,-2.14014 3.40664,-3.93008 5.99031,-5.47105 -0.0421,-0.20245 -0.0632,-0.30368 -0.0547,-0.51667 0.18373,-1.14716 0.8461,-2.02428 2.05879,-2.54067 -0.0421,-0.20246 -0.0632,-0.30369 0.006,-0.47659 1.40935,-5.15144 2.32002,-10.67436 2.80214,-16.47774 -0.0421,-0.20246 -0.0632,-0.30369 -0.0547,-0.51668 -0.54867,-5.43046 -2.34037,-8.96526 -5.40466,-10.49264 -0.0421,-0.20245 -0.0632,-0.30368 -0.10532,-0.50614 -0.55824,-2.68255 0.65241,-3.46254 3.73315,-2.36104 0.20195,-0.042 0.30369,-0.0632 0.43396,-0.19592 7.6801,-5.9811 9.45975,-14.43077 5.35,-25.298485 0.15184,-0.0316 0.24254,-0.103278 0.3227,-0.225571 0.64929,-1.191235 1.12667,-2.452311 1.47073,-3.844059 -0.0421,-0.202457 -0.0632,-0.303685 -0.10533,-0.506142 -0.0421,-0.202457 -0.0632,-0.303685 -0.10533,-0.506142 -2.59333,-2.311862 -6.2794,-3.023371 -11.01812,-2.195675 l -0.0527,-0.253071 c -1.44675,0.406676 -3.48185,0.777369 -6.07576,1.000317 -0.0506,0.01053 -0.0717,-0.0907 -0.10328,-0.242538 -1.82262,0.379282 -3.74545,0.779418 -5.56756,1.158594 -0.20246,0.04213 -0.30419,0.0633 -0.50615,0.105327 -31.22865,14.366695 -55.69106,33.081215 -73.36667,56.244885 -17.7658,23.23525 -34.85898,46.9114 -51.36126,70.88702 -5.78483,8.49105 -12.31345,16.45039 -19.69762,23.84848 -15.40214,24.69721 -31.71094,48.8438 -48.81466,72.46933 -0.16032,0.24459 -0.24049,0.36688 -0.40081,0.61147 -0.47688,1.26097 -0.5509,2.17408 -0.0702,2.70772 0.0828,0.14171 0.15389,0.232 0.19602,0.43446 -1.7949,1.27122 -3.16177,2.823 -4.20184,4.67643 -0.0301,0.11186 -0.0592,0.22301 -0.017,0.42598 -9.37827,1.37072 -18.80481,1.74817 -28.2691,1.18297 -0.21299,-0.008 -0.31421,0.0126 -0.51667,0.0547 -0.97602,-1.64511 -1.98158,-3.17845 -2.97661,-4.66118 -0.14336,-0.1814 -0.16442,-0.28262 -0.20655,-0.48508 -13.98187,-7.81004 -29.90666,-12.52266 -47.8566,-14.27916 -0.21299,-0.008 -0.31421,0.0126 -0.51667,0.0547 -1.31597,0.27385 -2.69309,0.50762 -4.1018,0.58955 0,0 -0.0105,-0.0506 -0.0527,-0.25307 -20.15061,3.40119 -35.29156,10.82927 -45.42284,22.28423 -0.0301,0.11187 -0.0696,0.17291 -0.0275,0.37536 -4.58512,2.32711 -9.18925,4.81659 -13.73224,7.34616 -0.0506,0.0105 -0.0401,0.0611 0.002,0.2636 -1.9719,0.67438 -4.13573,1.4415 -6.37973,2.33092 -0.19192,0.0927 -0.29315,0.11381 -0.49561,0.15594 -0.94704,0.77794 -2.43387,1.24577 -4.452,1.19048 -0.0506,0.0105 -0.0611,-0.0401 -0.10328,-0.24254 -2.96722,0.45905 -5.83322,0.89704 -8.70974,1.28441 -0.20246,0.0421 -0.30369,0.0632 -0.50615,0.10533 -1.72088,0.35811 -3.35107,0.64454 -5.11408,0.8002 0,0 -0.0105,-0.0506 -0.0527,-0.25308 -0.20245,0.0421 -0.30368,0.0632 -0.50614,0.10533 -1.51842,0.31598 -3.04738,0.58135 -4.60794,0.69487 0,0 -0.0105,-0.0506 -0.0527,-0.25307 -1.82212,0.37918 -3.70538,0.71827 -5.62023,0.90552 0,0 -0.0105,-0.0506 -0.0527,-0.25307 -5.83321,0.89704 -11.7466,1.91637 -17.8203,3.1803 -0.20246,0.0421 -0.30369,0.0632 -0.50615,0.10532 -3.84668,0.80049 -7.80512,1.57142 -11.69393,2.16945 l -0.0527,-0.25307 c -0.20246,0.0421 -0.30369,0.0632 -0.50615,0.10532 -4.55528,0.94794 -9.11056,1.89588 -13.66584,2.84382 -0.20246,0.0421 -0.30368,0.0632 -0.50614,0.10533 -4.38881,1.49417 -9.20564,2.70776 -14.5728,3.56062 -0.20246,0.0421 -0.30369,0.0632 -0.50614,0.10533 -5.50642,1.19867 -10.09564,2.99857 -13.7065,5.43977 -0.14131,0.0822 -0.29315,0.11382 -0.44499,0.14541 -1.8581,0.96753 -4.19484,1.66503 -6.98067,1.98072 -0.20246,0.0421 -0.3543,0.0737 -0.50614,0.10533 -0.31217,0.27618 -0.64541,0.45114 -0.96811,0.67671 -0.14131,0.0822 -0.29315,0.11381 -0.44499,0.14541 0.0421,0.20246 0.0632,0.30368 0.10532,0.50614 z"
   id="path9"
   inkscape:connector-curvature="0"
   style="stroke-width:1" /><path
   d="m 293.21469,362.33148 c -2.53072,0.52664 -5.05089,1.10388 -7.53948,1.83298 0,0 0.0105,0.0506 0.0527,0.25307 0.15184,-0.0316 0.30368,-0.0632 0.50614,-0.10533 2.78583,-0.31569 5.12257,-1.01319 6.98067,-1.98072 z"
   id="path11"
   style="fill:#b5b5b5;stroke-width:1"
   inkscape:connector-curvature="0" /><path
   d="m 293.23518,364.96752 c -0.0421,-0.20246 -0.0632,-0.30368 -0.10533,-0.50614 -2.53071,0.52663 -5.06142,1.05327 -7.59213,1.5799 -0.20246,0.0421 -0.3543,0.0737 -0.50615,0.10533 0.0421,0.20245 0.0527,0.25307 0.0527,0.25307 2.72468,-0.35578 5.41777,-0.86339 8.15094,-1.43216 z"
   id="path13"
   style="fill:#505050;stroke-width:1"
   inkscape:connector-curvature="0" /><path
   d="m 307.87232,356.64097 c 5.36716,-0.85286 10.18399,-2.06645 14.5728,-3.56062 -5.06142,1.05327 -10.11231,2.15715 -15.13161,3.41287 l 0.0527,0.25308 c 0.20245,-0.0421 0.30368,-0.0632 0.50614,-0.10533 z"
   id="path17"
   style="fill:#4b4b4b;stroke-width:1"
   inkscape:connector-curvature="0" /><path
   d="m 463.08239,308.23636 c 1.40871,-0.0819 2.78583,-0.3157 4.1018,-0.58955 -0.0421,-0.20245 -0.0632,-0.30368 -0.10533,-0.50614 -1.21474,0.25279 -2.32825,0.4845 -3.54299,0.73729 -0.20246,0.0421 -0.30369,0.0632 -0.50615,0.10533 0.0421,0.20245 0.0527,0.25307 0.0527,0.25307 z"
   id="path19"
   style="fill:#919191;stroke-width:1"
   inkscape:connector-curvature="0" /><path
   d="m 392.41857,341.68744 c 0.0421,0.20246 0.0527,0.25307 0.10328,0.24254 2.01864,0.0552 3.50547,-0.41264 4.452,-1.19048 -1.31597,0.27385 -2.73317,0.56876 -4.04914,0.84261 -0.20245,0.0421 -0.30368,0.0632 -0.50614,0.10533 z"
   id="path21"
   style="fill:#b0b0b0;stroke-width:1"
   inkscape:connector-curvature="0" /><path
   d="m 367.24896,345.07695 c 1.91485,-0.18725 3.79811,-0.52634 5.62023,-0.90552 -0.0421,-0.20246 -0.0632,-0.30369 -0.10533,-0.50614 -1.72089,0.35811 -3.34054,0.69515 -5.06142,1.05327 -0.20246,0.0421 -0.30369,0.0632 -0.50615,0.10532 0.0421,0.20246 0.0527,0.25307 0.0527,0.25307 z"
   id="path23"
   style="fill:#b7b7b7;stroke-width:1"
   inkscape:connector-curvature="0" /><path
   d="m 351.3772,357.62088 c -0.20246,0.0421 -0.30369,0.0632 -0.50615,0.10533 0.0421,0.20245 0.0527,0.25307 0.0527,0.25307 1.40871,-0.0819 2.78583,-0.3157 4.1018,-0.58955 -0.0421,-0.20245 -0.0632,-0.30368 -0.10533,-0.50614 -1.16413,0.24225 -2.32825,0.4845 -3.54299,0.73729 z"
   id="path25"
   style="fill:#969696;stroke-width:1"
   inkscape:connector-curvature="0" /><path
   d="m 378.54208,343.51898 c -0.20246,0.0421 -0.30369,0.0632 -0.50615,0.10532 0.0421,0.20246 0.0527,0.25308 0.0527,0.25308 1.76301,-0.15566 3.3932,-0.44209 5.11408,-0.8002 -0.0421,-0.20246 -0.0632,-0.30369 -0.10532,-0.50614 -1.51843,0.31598 -3.03686,0.63196 -4.55528,0.94794 z"
   id="path27"
   style="fill:#4e4e4e;stroke-width:1"
   inkscape:connector-curvature="0" /><path
   d="m 372.92185,344.4245 c 1.56056,-0.11352 3.08952,-0.37889 4.60794,-0.69487 -0.0421,-0.20246 -0.0632,-0.30368 -0.10532,-0.50614 -1.31597,0.27385 -2.73317,0.56876 -4.04914,0.84261 -0.20246,0.0421 -0.30369,0.0632 -0.50614,0.10533 0.0421,0.20246 0.0527,0.25307 0.0527,0.25307 z"
   id="path29"
   style="fill:#818181;stroke-width:1"
   inkscape:connector-curvature="0" /><path
   d="m 363.89325,356.86454 c 1.56056,-0.11353 3.08952,-0.37889 4.60795,-0.69487 -0.0421,-0.20246 -0.0632,-0.30369 -0.10533,-0.50615 -1.31597,0.27385 -2.73317,0.56877 -4.04914,0.84262 -0.20245,0.0421 -0.30368,0.0632 -0.50614,0.10532 0.0421,0.20246 0.0527,0.25308 0.0527,0.25308 z"
   id="path31"
   style="fill:#676767;stroke-width:1"
   inkscape:connector-curvature="0" /><path
   d="m 322.95126,352.97502 c 4.55528,-0.94794 9.11056,-1.89588 13.66584,-2.84382 -0.0421,-0.20245 -0.0632,-0.30368 -0.10532,-0.50614 -4.75774,0.99007 -9.40372,2.00969 -14.11932,3.20222 l 0.0527,0.25307 c 0.20246,-0.0421 0.30368,-0.0632 0.50614,-0.10533 z"
   id="path33"
   style="fill:#7e7e7e;stroke-width:1"
   inkscape:connector-curvature="0" /><path
   d="m 337.62939,349.92055 c -0.20246,0.0421 -0.30369,0.0632 -0.50614,0.10533 l 0.0527,0.25307 c 3.88881,-0.59803 7.84725,-1.36896 11.69393,-2.16945 -0.0421,-0.20245 -0.0632,-0.30368 -0.10532,-0.50614 -3.74546,0.77942 -7.38968,1.53777 -11.13513,2.31719 z"
   id="path35"
   style="fill:#494949;stroke-width:1"
   inkscape:connector-curvature="0" /><path
   d="m 341.14902,359.22127 c -0.20245,0.0421 -0.30368,0.0632 -0.50614,0.10533 0.0421,0.20246 0.0527,0.25307 0.0527,0.25307 3.28145,-0.47163 6.43006,-1.07405 9.66937,-1.74814 -0.0421,-0.20245 -0.0632,-0.30368 -0.10533,-0.50614 -3.03685,0.63196 -6.0737,1.26392 -9.11056,1.89588 z"
   id="path37"
   style="fill:#6b6b6b;stroke-width:1"
   inkscape:connector-curvature="0" /><path
   d="m 333.9577,360.1897 c -0.20245,0.0421 -0.30368,0.0632 -0.50614,0.10533 0.0421,0.20246 0.0527,0.25307 0.0527,0.25307 2.26915,-0.26098 4.40548,-0.65274 6.63251,-1.11617 -0.0421,-0.20246 -0.0632,-0.30369 -0.10533,-0.50615 -2.02457,0.42131 -4.04914,0.84262 -6.07371,1.26392 z"
   id="path39"
   style="fill:#3a3a3a;stroke-width:1"
   inkscape:connector-curvature="0" /><path
   d="m 757.51315,91.452355 c -0.0421,-0.202457 -0.0737,-0.354299 -0.10533,-0.506142 -1.82262,0.379282 -3.74545,0.779418 -5.56757,1.158594 -0.20245,0.04213 -0.30419,0.0633 -0.50614,0.105327 0.0316,0.151843 0.0527,0.253071 0.10328,0.242538 2.59391,-0.222948 4.62901,-0.593641 6.07576,-1.000317 z"
   id="path41"
   style="fill:#cfcfcf;stroke-width:1"
   inkscape:connector-curvature="0" /><path
   d="m 661.95171,370.66891 c 2.11731,-0.22938 3.79607,-0.78995 4.94556,-1.61002 -1.82262,0.37928 -3.6843,0.8195 -5.46428,1.40113 -0.0506,0.0105 -0.0401,0.0611 0.002,0.26361 0.20196,-0.042 0.30369,-0.0632 0.51668,-0.0547 z"
   id="path47"
   style="fill:#6d6d6d;stroke-width:1"
   inkscape:connector-curvature="0" /><path
   d="m 697.92543,336.72705 c -0.13253,-1.39818 -0.31569,-2.78583 -0.58954,-4.1018 -0.15184,0.0316 -0.3543,0.0737 -0.50614,0.10533 0.25278,1.21474 0.4845,2.32825 0.73729,3.543 0.0421,0.20245 0.0632,0.30368 0.10532,0.50614 0.15185,-0.0316 0.25307,-0.0527 0.25307,-0.0527 z"
   id="path49"
   style="fill:#b0b0b0;stroke-width:1"
   inkscape:connector-curvature="0" /><path
   d="m 655.61337,469.62629 c 0.0421,0.20245 0.0632,0.30368 0.10533,0.50614 0.20195,-0.042 0.25307,-0.0527 0.24253,-0.10328 -0.072,-1.3585 -0.30526,-2.73572 -0.57901,-4.05119 -0.20245,0.0421 -0.30419,0.0633 -0.50614,0.10533 0.25279,1.21474 0.4845,2.32825 0.73729,3.543 z"
   id="path51"
   style="fill:#686868;stroke-width:1"
   inkscape:connector-curvature="0" /><path
   d="m 657.82523,480.25527 c -0.0421,-0.20245 -0.0632,-0.30368 -0.10533,-0.50614 -0.25278,-1.21474 -0.4845,-2.32825 -0.73728,-3.543 -0.20246,0.0421 -0.30419,0.0633 -0.50615,0.10533 0.0421,0.20246 0.0632,0.30369 0.0542,0.51678 0.12456,1.61107 0.5793,2.78378 1.29455,3.42703 z"
   id="path53"
   style="fill:#363636;stroke-width:1"
   inkscape:connector-curvature="0" /><path
   d="m 651.35111,573.48504 c -0.66355,-3.1887 -1.33765,-6.42801 -2.0012,-9.6167 0.0541,3.05148 0.60798,6.47423 1.84293,10.12489 0.0105,0.0506 0.0611,0.0401 0.2636,-0.002 -0.0316,-0.15184 -0.0737,-0.3543 -0.10533,-0.50614 z"
   id="path57"
   style="fill:#353535;stroke-width:1"
   inkscape:connector-curvature="0" />
    
</svg>