<?xml version="1.0" encoding="UTF-8" standalone="no"?>
<!-- Created with Inkscape (http://www.inkscape.org/) -->

<svg
   xmlns:dc="http://purl.org/dc/elements/1.1/"
   xmlns:cc="http://creativecommons.org/ns#"
   xmlns:rdf="http://www.w3.org/1999/02/22-rdf-syntax-ns#"
   xmlns:svg="http://www.w3.org/2000/svg"
   xmlns="http://www.w3.org/2000/svg"
   xmlns:sodipodi="http://sodipodi.sourceforge.net/DTD/sodipodi-0.dtd"
   xmlns:inkscape="http://www.inkscape.org/namespaces/inkscape"
   version="1.2"
   width="297mm"
   height="210mm"
   viewBox="0 0 1122.5197 793.7008"
   id="Layer_1"
   xml:space="preserve"
   style="overflow:inherit"
   sodipodi:docname="Canis_familiaris.svg"
   inkscape:export-filename="/home/mjeltsch/Documents/Informatics/Phylogeny2/new/Canis_familiaris.png"
   inkscape:export-xdpi="17.054285"
   inkscape:export-ydpi="17.054285"
   inkscape:version="0.92.3 (unknown)"><metadata
   id="metadata7"><rdf:RDF><cc:Work
       rdf:about=""><dc:format>image/svg+xml</dc:format><dc:type
         rdf:resource="http://purl.org/dc/dcmitype/StillImage" /><dc:title></dc:title></cc:Work></rdf:RDF></metadata><sodipodi:namedview
   pagecolor="#ffffff"
   bordercolor="#666666"
   borderopacity="1"
   objecttolerance="10"
   gridtolerance="10"
   guidetolerance="10"
   inkscape:pageopacity="0"
   inkscape:pageshadow="2"
   inkscape:window-width="2495"
   inkscape:window-height="1416"
   id="namedview5"
   showgrid="false"
   units="mm"
   inkscape:zoom="0.42220002"
   inkscape:cx="783.84399"
   inkscape:cy="790.51251"
   inkscape:window-x="65"
   inkscape:window-y="24"
   inkscape:window-maximized="1"
   inkscape:current-layer="Layer_1" /><defs
   id="defs7" />
<path
   d="m 273.48159,53.622623 c 3.19538,-2.119618 5.71093,-1.603344 10.31562,-0.982443 7.18262,0.968682 13.94771,-2.335758 18.17516,1.473664 4.61501,-2.903117 8.88469,-1.146999 14.73661,-0.491221 2.01253,-11.18116 3.15658,-31.69452 11.29806,-38.806407 4.36351,-3.811378 8.78499,-4.430315 15.22779,-1.964881 7.72942,2.957637 10.88889,6.3279 17.19273,11.298066 1.94526,1.533591 3.95778,1.786569 4.91222,2.947322 3.05347,3.713626 2.33924,10.297452 9.33315,9.824406 9.22173,12.883239 15.4234,28.786493 19.64884,46.665926 0.81597,1.476611 2.6629,1.921654 3.92979,2.947326 0.38505,2.186422 -2.6349,0.967703 -2.4561,2.947327 0.0479,2.571535 4.11391,1.125873 4.42095,3.438536 0.5251,2.817146 -0.85567,3.728857 -0.98243,5.894642 0.18668,2.433514 3.13394,2.105864 3.92979,3.929774 0.64346,2.60838 -1.7556,2.17413 -1.96494,3.92975 0.3346,2.77638 2.87319,3.34865 3.92979,5.40342 0.38707,2.02433 -2.35192,0.92301 -1.96485,2.94733 0.17284,1.95555 2.9429,1.31401 3.92969,2.45609 0.0213,1.49528 -1.03691,1.91037 -1.47358,2.94733 10.13529,5.78117 17.00351,15.31133 25.54347,23.08735 7.63449,6.95225 18.78275,11.18263 24.06979,21.12248 3.74355,1.00503 4.55845,4.93823 7.36821,6.87708 4.72511,-2.73954 15.03973,-4.86406 19.64884,-0.49122 4.76098,-1.16812 8.70301,-3.54366 13.75421,-3.43855 -0.0756,5.16371 -8.01379,2.46544 -9.82442,5.89464 6.03118,3.29413 15.53632,-1.94276 22.59611,-2.45609 1.25604,1.31401 -0.29619,2.5902 0,4.42098 4.81547,0.58013 11.73626,-0.60469 17.19273,-0.98244 1.13131,1.18925 -0.50052,2.38635 -0.49126,3.92976 2.73271,1.9639 6.35641,0.10409 9.33326,-0.49122 11.41198,6.64769 20.4431,-6.02678 31.92926,-3.92976 2.43004,0.16947 -0.40867,1.28946 0,2.4561 11.1124,-2.32249 17.6673,-11.79469 29.47327,-11.78928 -3.193,4.17536 -11.20914,3.52744 -14.24537,7.85952 10.1387,-0.50547 18.09353,-7.44936 27.99947,-9.82441 1.69037,2.4335 -2.49878,2.55877 -2.4561,4.9122 7.73037,-2.42172 14.57944,-5.72468 22.10494,-8.35074 2.24049,-0.60273 1.55223,1.72271 2.94737,1.96488 6.11813,-2.19576 14.99057,-8.31341 22.10484,-3.43854 12.03149,-2.30284 24.81946,-2.3613 35.3679,-6.87708 1.53456,0.4303 2.59414,1.33563 3.92979,1.96487 9.26291,-1.76397 17.66378,-3.30934 25.54347,-5.40342 2.11267,-0.4755 1.36066,1.91429 2.4561,2.45611 11.54906,-1.2428 24.2918,-1.93689 37.8239,-0.98245 4.20979,0.2967 7.80604,1.97225 11.78926,2.45611 3.11244,0.37824 6.32693,-0.21516 9.33326,0 12.79819,0.91662 23.19976,6.8928 34.87663,8.84196 10.11912,1.68881 16.88517,2.68451 25.54348,6.38586 5.46626,2.33674 11.78777,4.18176 16.21021,6.87708 4.00939,2.44383 8.26134,7.386 15.22789,7.36831 8.9711,7.61097 21.3125,9.41424 31.438,15.22783 5.28162,6.83533 10.86144,13.372 16.70158,19.64881 3.63797,9.21333 8.4362,23.92636 13.7541,32.42055 2.83488,4.52806 4.04527,4.77367 4.91221,11.78928 0.46477,3.7603 1.87555,9.00898 2.94737,13.26295 0.58354,2.31807 2.28806,4.61845 2.45611,6.87708 0.11292,1.52573 -0.93975,2.92718 -0.98242,4.42098 -0.15624,5.49676 2.64416,11.00923 1.96484,17.19272 -0.58013,1.22067 -3.10946,0.49269 -3.43853,1.96488 0.27011,7.99264 3.98077,19.59478 0.49116,26.52589 -3.25377,-4.36498 -0.21221,-11.99265 -2.45611,-17.19271 -3.74939,2.72578 -1.09533,9.41571 -0.98242,13.75417 0.0372,1.4378 -0.67783,2.65013 -0.49115,3.92976 0.91164,6.25373 5.37484,11.6822 4.91221,16.70149 -6.18646,0.69016 -1.63684,-6.63148 -5.40348,-7.85953 -2.72132,1.56995 -1.81212,6.44433 -1.47368,9.33319 0.58609,5.00407 3.2411,9.96048 3.92979,14.24539 -2.29796,0.49663 -1.63184,-1.97028 -3.92979,-1.47366 0.48094,5.54194 2.74154,10.9213 4.42105,16.21027 1.59938,5.03746 4.72011,10.76067 2.45611,15.22783 -4.2943,-4.38365 -2.74357,-14.61331 -6.87716,-19.1576 -4.04026,3.7991 1.68196,9.91873 2.4561,15.71905 1.02372,7.665 -0.2038,16.6956 4.91221,21.6137 -0.50499,1.62348 -3.73769,0.51971 -3.92979,2.4561 0.56736,4.16555 5.64517,5.93983 4.42106,10.31562 -4.65636,0.46127 -1.67952,-3.92091 -4.91221,-4.42097 -4.70351,2.014 -0.25745,6.06018 0.98242,9.33318 0.9721,2.56711 0.96869,5.8966 1.96484,8.35074 1.09491,2.69631 4.32867,5.11459 2.94737,7.85953 -3.19545,0.73929 -1.38865,-3.52352 -4.42095,-2.94732 -2.78773,12.0123 5.39847,22.3628 3.43853,31.92932 -4.17393,-0.57474 -0.69954,-8.79776 -3.92979,-10.31563 -3.91745,-0.20828 -2.52539,6.53765 -0.98242,7.85952 -0.53394,9.44077 4.36347,15.77309 2.94726,23.08736 -3.71013,0.43571 -1.25008,-5.29977 -3.43853,-6.38586 -4.37135,0.21712 -1.73251,6.18053 -0.98242,8.35074 -2.23953,3.74162 0.28342,7.1168 -1.47368,10.31562 -2.84903,0.22941 -1.23348,-4.00639 -2.45611,-5.40342 -6.71156,3.7598 2.03317,11.20572 -1.96484,15.71905 -5.28406,-2.18003 -0.30459,-12.03096 -6.87705,-13.26294 -3.00431,3.63404 4.6056,9.95703 0.49116,13.26294 -6.35589,-6.91441 -0.68965,-20.24957 -7.85948,-25.54346 -4.41562,4.64106 3.19237,14.15059 -1.47368,18.17516 -4.01472,-0.97065 -1.01488,-5.03648 -1.47369,-7.36831 -0.6641,-3.37567 -4.29962,-6.45856 -3.92978,-10.31563 -3.7858,-0.83851 -2.87458,3.02003 -4.42095,4.42099 -4.15275,-5.29143 -1.26094,-15.34376 -6.3859,-20.14003 -2.52145,1.9359 1.24966,8.66856 -0.98242,10.31562 -2.27092,0.65382 -1.71431,-5.38524 -4.91221,-5.40342 -5.81108,-8.67151 0.0383,-24.82677 -2.4561,-33.40298 -1.13962,2.46298 -0.0415,7.16297 -2.45611,8.35074 -4.54376,-4.78939 -4.69116,-13.97522 -5.89463,-22.1049 -0.69805,-1.43044 -2.90895,-1.34791 -4.42095,-1.96489 -4.24853,-6.30236 3.246,-16.49615 -1.96494,-21.61369 -4.84825,2.47083 -2.4742,6.25421 -3.43853,10.31563 -1.31053,5.5218 -5.73542,10.37506 -7.85947,15.71904 -0.87291,2.19674 -2.85308,9.5621 -2.94737,12.28052 -0.23574,6.77883 3.52696,12.05797 5.89463,18.17514 1.96591,5.07824 2.92917,9.09641 5.40347,13.75417 2.25422,4.24316 3.4032,9.42603 5.89463,13.26295 1.01978,1.57043 3.30646,2.39126 4.42095,3.92976 1.07384,1.48152 1.40195,3.72738 2.45611,5.40343 3.08732,4.91072 7.34373,10.34902 10.80684,15.71904 1.73262,2.68648 4.33804,3.99067 6.38589,6.38586 1.51498,1.77184 2.4709,4.40576 3.92979,6.38587 4.11497,5.58714 9.06688,10.65063 13.26295,16.70149 0.41953,10.66488 4.75598,19.12615 3.43853,32.91176 -0.6209,6.49737 -2.04445,12.98197 -1.47369,19.64882 0.13218,1.54046 1.26488,2.8584 1.47369,4.42097 0.62823,4.70541 0.50499,11.45575 0.98242,17.68393 0.36302,4.73831 1.72857,10.17809 1.96494,15.22783 0.23276,4.96771 -0.6725,8.66316 2.456,11.29806 -5.12676,9.36758 -0.30991,21.15785 -1.47357,31.43811 -1.03213,9.11558 -5.26002,15.52845 -8.842,22.10491 -11.37367,3.70331 -18.47582,18.24539 -32.42053,18.17515 -3.84678,-0.0192 -7.28871,-2.51063 -11.78926,-2.94732 -1.07044,-0.89501 0.0873,-4.0172 -0.98253,-4.91221 -5.61856,2.89625 -10.39274,6.63639 -19.64874,5.89465 -2.28667,-0.98833 -1.67259,-4.87733 -2.4561,-7.36831 -2.62905,-0.01 -3.66798,1.57191 -6.87705,0.98244 -0.80075,-1.28109 0.58353,-3.77305 0.98242,-5.40342 -0.84056,0.0216 -1.27233,-0.36498 -1.47369,-0.98244 -3.27888,0.20386 -4.86453,4.93137 -8.35073,1.96488 -0.60227,-5.18729 3.54953,-5.61956 5.40337,-8.35074 0.51733,-3.57608 2.2375,-5.94966 3.43863,-8.84197 -0.2815,-1.19219 -3.17778,0.23039 -2.94737,-1.47365 0.61355,-7.4528 7.47102,-10.62019 11.78926,-15.71906 1.44474,-1.7065 1.56798,-4.02899 2.94737,-4.9122 5.23,-3.34913 12.35566,-1.6225 20.14,-1.47366 1.00158,-0.14442 0.96326,-1.32924 1.96484,-1.47366 1.43633,-10.88446 3.7908,-23.72447 2.45611,-35.36786 -0.60812,-5.30616 -3.21748,-10.92523 -3.92969,-16.70149 -0.52957,-4.29375 -1.91035,-7.05589 -2.4561,-10.80685 -1.03894,-7.14283 -2.07255,-11.44985 -5.89463,-16.21026 2.26251,-2.84761 3.30443,-7.46852 -0.49127,-9.82441 -4.20777,3.32408 -0.28437,14.77984 -4.91221,17.68392 0,2.45611 0,4.91221 0,7.36831 -1.15685,-0.0109 -1.44612,0.84637 -2.94737,0.49122 -0.50637,4.40576 -3.76568,6.05871 -3.43852,11.29807 -2.23751,4.58013 -5.88623,9.46631 -7.85948,14.7366 -0.87876,2.34755 -0.45146,5.42996 -1.47368,7.85953 -1.64652,3.91356 -5.95306,7.16641 -3.92979,11.78929 -1.04723,0.75402 -1.42005,2.18249 -1.96484,3.43854 -0.54182,4.81347 0.37973,9.82883 -0.49126,14.24539 -0.42975,2.17954 -2.3185,3.90667 -2.94727,5.89464 -1.87204,5.91774 -2.14661,11.72347 -3.43852,17.68394 -0.5183,2.3888 -2.48314,4.47845 -2.94737,6.87708 -0.22988,1.18678 0.60077,2.74691 0.49126,3.92976 -0.50989,5.51051 -6.42516,12.02311 -6.87716,19.15759 -1.38418,0.90777 -4.5958,-0.0113 -5.89463,0.98244 -1.35087,2.29548 1.6776,2.36621 1.47369,4.91222 -0.81981,2.78228 -2.67418,4.53052 -3.43853,7.36831 -3.55889,1.68096 -5.89272,4.58701 -8.35074,7.3683 -8.72652,6.12945 -20.25887,6.52587 -34.87663,6.87708 -2.18695,-2.72528 -8.15874,-1.66573 -9.33326,-5.40342 -6.05523,2.29498 -12.71326,3.98822 -19.64874,5.40342 -2.56764,-2.89721 -5.42454,-5.03009 -10.80684,-3.92975 -0.424,-3.86247 3.19236,-3.68465 3.43853,-6.87709 -2.61777,-3.71854 -10.39423,9.80721 -12.28053,1.47367 -1.15536,-5.10477 7.33298,-7.93813 10.31558,-11.29808 2.40704,-2.71205 3.80453,-6.77246 6.3859,-9.82442 3.77015,-4.45733 9.14659,-6.84123 10.80684,-9.82441 1.15344,-0.1562 1.84404,-0.77612 3.43852,-0.49122 4.26578,-7.46802 14.40607,-16.74226 24.56106,-10.80684 3.00622,-2.64572 2.44823,-6.87757 3.43852,-10.31563 2.78624,-9.67311 6.52978,-19.98382 10.31569,-30.94688 2.37554,-6.87856 3.35104,-14.3397 5.89463,-21.12247 4.73682,-12.63025 8.82476,-19.98873 8.84189,-35.85908 0.0106,-5.57977 -0.0138,-10.99695 0,-16.7015 0.0138,-5.63183 1.1858,-12.55558 0.49126,-18.66636 -0.50201,-4.41852 -3.65414,-9.17895 -4.91221,-14.24539 -0.94857,-3.82022 -0.7884,-7.92241 -1.47368,-11.78929 -1.34395,-7.58689 -2.9296,-15.69154 -4.42095,-23.57857 -1.48837,-7.8723 -2.16141,-16.43574 -4.42094,-23.57857 -2.23219,-7.05687 -6.48317,-13.51691 -8.842,-20.63125 -3.02836,-9.13376 -0.88366,-20.96529 -5.89464,-27.99956 -3.49706,-4.90926 -7.28828,-9.00849 -10.80684,-14.73661 -3.04858,-4.9628 -8.3734,-12.26921 -12.77179,-18.66637 -3.45672,-5.02764 -10.43392,-17.34253 -13.26294,-17.68394 -4.86007,-0.58602 -8.42684,5.97079 -10.80685,9.33319 -4.69946,-2.58971 -7.64725,1.18041 -11.78926,1.96489 -4.55802,-3.95629 -10.99596,-6.03318 -13.26295,-12.28052 -6.28468,2.72087 -8.53293,9.4781 -13.75421,13.26295 -1.52317,-0.0496 -2.34648,0.60076 -3.43852,0.98244 -3.14426,3.58493 -7.95483,4.38366 -11.78926,6.87709 -3.59764,2.33968 -6.50478,5.58616 -10.31558,7.3683 -10.67275,4.99031 -22.41103,7.68023 -33.89421,13.75417 -8.31732,-1.41275 -16.0394,5.19514 -24.56105,5.89464 -6.31906,0.51873 -13.88874,-2.73953 -18.66632,2.45611 -2.55583,0.70981 -2.48558,-1.12244 -4.42105,-0.98245 -2.46398,0.17832 -3.03379,2.91392 -5.40337,2.94733 -1.97814,0.028 -3.00282,-2.49934 -5.40347,-2.94733 -3.48717,-0.65136 -5.4039,1.06104 -9.33316,1.47367 -2.72771,-2.02039 -6.78329,-2.7135 -11.29811,-2.94733 -0.49754,4.10514 3.94991,6.28026 4.91221,9.33319 3.3221,10.54109 -2.24538,24.27021 -3.43852,35.85908 -0.66123,6.42123 1.85096,11.89147 -0.98242,16.70149 2.35542,9.41227 -1.01542,25.40199 -0.49127,36.84152 0.79533,17.34794 0.35568,38.48908 0,58.45522 -0.0819,4.58063 -0.30693,9.8357 0,14.24539 0.13016,1.86614 1.23742,3.49944 1.47369,5.40342 0.34578,2.78079 -0.75797,5.89366 -0.49127,8.84196 0.18029,1.98994 1.32097,3.97888 1.47369,5.89465 0.20295,2.54697 -0.60269,5.40244 -0.49116,7.85952 0.33791,7.46066 3.22536,14.4129 4.42095,21.61369 0.58353,3.51223 0.40963,7.31919 0.98242,10.80685 0.39101,2.37996 1.72325,4.62238 1.96495,6.87709 1.11109,10.36474 -1.25168,21.17748 -1.47369,31.92931 -0.22892,11.06719 5.87846,24.30118 5.89463,35.36788 0.0107,4.65431 -0.39888,9.49529 -1.47368,14.24539 -0.92942,0.54428 -2.32105,0.62631 -3.43853,0.98245 -4.503,13.50855 -17.74583,18.27732 -31.4381,22.59612 -2.69439,-3.84674 -6.36035,0.58948 -9.33316,0.98244 -2.211,-0.57275 -0.58407,-4.98293 -2.94737,-5.40342 -3.49057,0.60323 -4.34485,3.84233 -6.87705,5.40342 -8.41555,1.3376 -18.5038,6.17661 -26.03474,0.98245 -3.10498,0.16996 -3.352,3.19784 -7.3682,2.4561 -1.91781,-4.13607 3.09168,-7.41988 1.47357,-11.29807 -6.81564,0.22547 -3.54559,10.53619 -11.78926,9.33319 -2.75569,-4.3866 1.26732,-8.63565 2.45611,-12.77173 1.83372,-6.37948 3.11924,-13.08758 5.40347,-19.15759 1.56596,-4.16162 5.16806,-7.35406 6.87705,-10.80685 8.91714,-3.36338 9.17746,-15.38357 22.59611,-14.24539 3.93766,-6.52293 2.40108,-17.73405 0.98242,-26.03469 -0.63952,-3.74261 0.40974,-7.7377 0,-11.29807 -0.23776,-2.06902 -1.66078,-3.92926 -1.96484,-5.89464 -0.31439,-2.03218 0.32811,-4.42443 0,-6.38586 -0.91708,-5.48006 -4.29718,-10.0263 -6.3859,-13.75417 -1.16569,-8.37973 -4.63806,-14.78917 -5.40337,-24.56102 -0.59386,-7.58542 0.98391,-17.37495 0.49116,-26.03467 -0.14836,-2.61133 -1.65535,-5.259 -1.96484,-7.85953 -0.82725,-6.9488 -0.67836,-14.37212 -1.47369,-21.61369 -1.368,-12.46226 -1.51338,-24.88227 -3.43852,-36.84152 -1.31351,-8.15917 -4.42829,-16.29918 -4.91221,-24.0698 -0.28544,-4.57965 -0.88366,-8.97606 -1.47369,-13.75416 -0.44603,-3.61244 -0.32119,-7.52206 -0.98242,-10.80685 -0.88908,-4.41607 -2.87457,-7.71265 -4.42094,-12.77173 -1.88535,-6.16727 -6.71891,-10.1103 -10.31569,-15.71904 -3.42522,-5.34154 -5.85781,-11.18607 -10.80684,-15.22784 -1.11748,-0.35613 -2.50911,-0.43816 -3.43853,-0.98244 -0.76722,-1.19759 -1.0153,-2.9149 -1.96484,-3.92976 -1.12397,0.31291 -2.96301,0.97409 -3.92979,0 -0.588,-1.37739 -0.54032,-3.38942 -0.49126,-5.40343 -2.26741,-1.33512 -4.34475,-2.85987 -7.85947,-2.94731 -1.14749,7.69349 0.94506,16.52858 -0.49127,25.05223 -2.44078,3.61784 -5.61366,6.50277 -5.89463,12.2805 -3.80442,2.5686 -4.61251,6.34314 -5.40337,12.28052 -0.73242,5.49674 -3.47247,11.30199 -4.42105,16.70148 -2.34212,13.33565 -4.14541,27.77164 -4.42095,41.26251 -2.73803,3.1448 -1.75901,7.441 -2.4561,11.29807 -0.3478,1.9241 -1.65142,3.45279 -1.96484,5.40342 -0.60919,3.79271 0.88663,7.97005 0.49115,12.28051 -0.27702,3.01953 -1.9079,5.7011 -1.96484,8.84196 -0.27511,15.10306 -1.04234,33.24825 -1.47368,48.63081 -0.11101,3.95973 -1.24232,7.73721 -0.98242,11.29807 0.13314,1.82243 1.373,3.61046 1.47368,5.40342 0.21956,3.90471 -1.30564,8.73636 -0.98242,13.26294 0.26426,3.7043 2.22175,6.80979 2.45611,10.31563 0.19252,2.88052 -2.18643,5.87991 0.49115,8.35075 -0.22147,1.74334 -1.6578,2.27189 -1.96484,3.92976 2.38437,8.79628 -2.01603,13.22856 -5.89463,17.19271 -2.70568,0.73241 -6.41389,0.46274 -7.85958,2.4561 -2.80678,10.51163 -6.39664,22.14718 -8.84189,33.403 -1.8465,8.4986 -5.42849,16.45048 -9.82442,22.10491 -0.3626,2.65456 2.97876,1.60581 1.96484,4.9122 -3.23568,2.12356 -5.28747,-2.07245 -8.35074,-1.96487 -3.08093,0.10807 -10.36177,7.00676 -13.75421,8.35075 -6.65451,2.63637 -12.5865,0.56637 -18.66634,3.92975 -2.17365,-0.44603 -3.00184,-2.23799 -5.40342,-2.4561 -2.52732,2.09948 -8.07713,1.34103 -10.80684,-1.47365 -7.64634,3.16246 -19.83843,2.01498 -27.50833,-0.98245 -3.04262,-0.13459 -4.30899,3.70823 -7.36831,1.96488 -1.93148,-3.70135 2.08523,-5.35037 2.94732,-7.85952 -0.17291,-1.6279 -1.47121,-2.13092 -2.4561,-2.94732 -2.18544,3.0996 -4.98343,8.05454 -10.80685,5.89464 0.76385,-6.44088 5.66131,-8.74814 9.33319,-12.28051 0.39396,-1.70404 -0.73143,-1.88825 -0.49122,-3.43854 8.88372,-9.78265 14.82011,-22.51263 32.42053,-23.57857 4.67348,-3.51321 7.11239,-9.26149 16.21028,-8.35077 1.762,-0.0389 0.39052,-3.21159 1.47366,-3.92976 2.36228,-0.39789 1.77429,2.15548 4.42096,1.47366 6.80042,-8.94463 7.92982,-18.9105 10.80684,-32.91176 0.73051,-3.55545 2.44727,-7.23224 2.94737,-10.80684 0.73636,-5.26589 0.0106,-10.84812 0.49116,-16.21028 0.45539,-5.03598 2.00911,-9.79247 2.4561,-14.73661 0.5797,-6.4114 0.0202,-12.86112 0,-19.15759 -0.0851,-26.06954 1.85341,-51.45336 -1.96484,-75.1567 -0.42783,-2.65603 -2.04786,-5.16076 -2.45611,-7.85952 -0.51531,-3.4071 0.47743,-7.022 0,-10.31563 -0.38558,-2.66094 -1.95803,-5.30665 -2.4561,-7.85952 -0.54618,-2.79947 -0.22403,-5.46286 -0.49127,-8.35075 -0.73093,-7.89145 -2.84711,-14.69338 -1.96484,-24.56102 1.10279,-12.33405 -1.59352,-25.92513 -0.98242,-36.84151 0.29565,-5.27768 2.70855,-12.31588 0.98242,-17.19272 -2.90118,-8.19748 -6.48455,-20.25202 -10.31562,-27.99956 -4.76336,-9.63184 -9.92363,-20.00592 -14.24539,-31.92931 -1.68831,-4.65726 -3.20471,-9.9536 -4.9122,-14.73661 -2.86184,-8.01868 -4.40035,-15.1625 -9.33318,-20.63125 -1.31008,0 -2.61968,0 -3.92976,0 -0.31242,-11.20818 -12.32718,-13.13622 -10.31562,-25.05223 -1.43389,-1.28946 -2.82993,0.43668 -4.91221,0 -0.4868,-3.93419 -1.76839,-7.07358 -2.4561,-10.80686 -2.44726,-1.15485 -4.86505,-2.33918 -5.40343,-5.40342 -2.69041,-0.39788 -2.94388,1.64068 -5.40342,1.47367 -1.89365,-3.82023 -3.38794,-8.44948 -2.4561,-13.75417 -1.06349,-2.21099 -4.53495,-2.0145 -5.89465,-3.92977 -0.47353,-3.62029 -0.50497,-7.68219 -2.45609,-9.8244 0.0289,-2.42712 2.6349,-2.2773 1.96488,-5.40342 -1.53703,-1.50412 -3.6311,0.60223 -5.89465,0 -1.27176,-1.51738 0.14491,-3.49209 0,-5.40343 -1.98649,-1.6279 -2.82058,1.17942 -5.40342,0.49122 -0.78841,-0.84882 -0.23775,-3.03673 -1.47367,-3.43854 -6.94486,-0.50694 -13.99142,2.69827 -21.61369,3.92976 -10.93898,1.76741 -28.87933,-4.23972 -31.92931,-11.78928 -2.70319,-0.40821 -4.31881,-1.90348 -6.38587,-2.94733 -0.50546,-1.95063 -0.4696,-4.44259 -1.96488,-5.40342 -3.35504,-1.04778 -4.40674,2.77785 -6.87709,0.98244 -1.78165,-3.09813 3.01806,-3.4076 5.40344,-3.92977 0.31977,-2.12108 -0.84884,-2.75328 -1.47367,-3.92975 -5.92068,-0.95837 -7.52255,4.85326 -11.78929,3.92975 -2.39273,-6.37751 7.57757,-4.49809 11.29807,-6.38586 0.32568,-9.43732 -8.79432,-5.38868 -13.26295,-2.94732 -2.12944,-6.36474 6.81716,-5.52377 11.78929,-6.38586 1.67752,-0.94216 0.73929,-4.50056 0.98244,-6.87708 -6.3107,-2.76263 -10.11521,5.0797 -14.73661,2.45609 1.31107,-5.91429 9.28308,-5.44075 15.71905,-4.9122 0.85423,-1.46334 0.83213,-5.54145 -0.49122,-6.38586 -3.99411,-1.16272 -8.24661,3.25679 -10.80685,-0.98244 2.03071,-4.0732 8.43229,-1.73793 12.77174,-1.47367 1.57681,-2.89328 -1.43486,-4.99079 -1.96489,-7.3683 -1.57534,-1.34889 -4.9068,1.40981 -5.89464,-0.98243 0,-0.6548 0,-1.31009 0,-1.96489 2.78178,-1.90004 4.0948,1.30812 5.40342,2.45611 2.13239,-1.71289 3.6424,-0.19502 5.89464,0.49121 2.12993,-0.65381 2.93603,-2.63146 3.92976,-4.42098 -0.007,-3.10353 -4.58651,-1.63527 -4.9122,-4.42098 3.28774,-2.23358 4.66168,2.71498 7.36831,0.98244 0.64497,-0.1739 0.77268,-0.86504 1.47366,-0.98244 -3.51664,-12.35714 -13.39018,-22.75136 -12.77173,-37.33274 0.39101,-9.21873 7.39286,-17.79789 6.87709,-25.54346 -0.29523,-4.42786 -3.84331,-7.90864 -1.47367,-13.75416 2.66095,-6.56418 11.03576,-10.64229 13.26295,-17.192716 -6.9434,-10.50573 -10.8992,-25.079254 -8.35075,-40.771285 0.52561,-3.235667 2.06215,-6.428593 2.45611,-9.824399 1.35527,-11.68417 0.37431,-23.971064 5.40342,-32.911764 5.80966,-3.971516 13.47712,-7.961698 21.12247,-4.420983 2.37652,1.100825 5.84454,5.576825 8.84197,8.841965 4.14836,4.519228 7.29118,7.367323 10.31562,12.280508 3.0161,4.899922 7.62964,7.109431 11.7893,10.806846 4.26919,3.794677 6.29301,9.795916 11.29806,11.789291 z"
   id="path3"
   style="fill-rule:evenodd;stroke-width:1"
   inkscape:connector-curvature="0" />
</svg>