<?xml version="1.0" encoding="UTF-8" standalone="no"?>
<!-- Created with Inkscape (http://www.inkscape.org/) -->

<svg
   xmlns:svg="http://www.w3.org/2000/svg"
   xmlns="http://www.w3.org/2000/svg"
   version="1.1"
   width="305.28"
   height="236.5"
   viewBox="0 0 305.28 236.5"
   id="Layer_1"
   xml:space="preserve"><defs
   id="defs13" />
    
    <g
   id="g3">
        
        <g
   id="g5">
            
            <path
   d="m 46.56,0 c 1.28,0 2.56,0 3.84,0 1.792,1.498 5.589,0.508 8.4,1.44 3.528,1.17 5.596,3.89 6,7.68 C 61.467,8.373 61.017,4.743 56.64,5.04 55.644,4.844 56.519,6.519 55.92,6.72 54.119,6.393 53.396,5.164 51.6,5.28 46.69,5.597 42.51,15.334 40.56,18.96 c 7.869,1.752 13.232,7.472 18.72,12.96 4.261,4.262 8.851,8.609 13.2,12.72 8.607,8.137 18.731,17.877 32.88,18.96 7.902,0.604 11.245,-3.261 19.92,-2.64 6.232,0.447 13.249,2.574 19.92,3.6 9.321,1.435 17.807,3.107 28.08,2.64 9.746,-0.443 19.007,-2.795 28.32,-4.32 9.568,-1.566 19.234,-3.168 28.56,-4.08 2.034,-0.199 4.44,-0.352 6.96,-0.24 10.537,0.465 18.499,5.938 27.36,10.32 8.549,4.227 17.865,9.432 27.36,10.08 5.479,0.374 10.97,0.436 13.439,-1.68 0,0.64 0,1.28 0,1.92 -3.523,4.689 -11.004,6.277 -18.72,5.76 -6.049,-0.405 -10.254,-3.687 -15.36,-4.32 5.921,7.256 -0.034,19.81 -3.12,28.08 -2.538,6.804 -5.667,13.306 -5.279,22.08 0.725,16.442 8.951,25.985 17.52,36.961 -0.277,13.417 -3.708,27.251 -4.319,40.319 -0.259,5.52 1.935,8.276 2.88,12.96 0.169,0.897 -1.249,0.018 -1.44,-0.239 -0.296,0.432 0.314,2.126 -0.479,2.64 -1.332,0.291 -1.458,-0.622 -2.16,-0.96 -0.758,2.111 -3.307,3.915 -3.36,6.48 -0.024,1.177 1.206,2.306 1.2,3.359 -0.019,3.027 -3.7,6.608 -6.72,7.44 -2.32,0 -4.641,0 -6.96,0 -0.104,-0.537 -1.184,-0.098 -1.681,-0.24 -0.408,-0.404 0.14,-1.078 0.48,-1.44 -0.671,-0.449 -1.786,-0.454 -2.4,-0.96 1.024,-3.216 4.441,-4.038 4.8,-7.92 7.589,-6.143 8.73,-22.304 7.681,-36.96 -0.812,-11.325 -5.536,-21.891 -10.08,-27.84 -0.933,6.744 -1.887,13.914 -1.92,21.12 -0.029,6.116 2.145,11.849 1.439,17.52 -1.521,-0.912 -3.031,2.427 -4.08,0.24 -1.239,1.174 -2.562,2.685 -2.88,4.32 -0.564,2.905 1.022,5.819 0.24,8.399 -1.486,4.903 -7.521,5.981 -15.36,5.521 -1.231,-0.422 0.718,-1.414 0.721,-2.16 -0.256,-0.545 -1.509,-0.091 -2.16,-0.24 1.685,-2.795 4.238,-4.722 5.279,-8.16 6.556,-3.983 6.51,-14.954 6.96,-25.199 0.513,-11.641 0.319,-24.626 -3.84,-31.921 -3.941,0.459 -1.796,7.005 -6,7.2 -2.088,-1.272 -0.269,-6.451 -2.88,-7.2 -0.604,2.437 -1.369,4.711 -3.359,5.761 -2.54,-1.096 -1.079,-5.128 -1.681,-7.2 -1.123,-3.869 -6.871,-6.458 -6.24,-12.96 -6.809,3.858 -12.438,8.165 -22.319,8.64 -18.396,0.885 -37.737,-2.759 -55.92,-3.12 -2.365,2.91 -2.189,7.082 -1.92,12.48 0.792,15.889 -0.314,36.63 1.68,50.16 0.371,2.521 3.775,5.685 2.4,10.08 -0.731,0.011 -0.933,-0.507 -1.44,-0.721 -0.207,0.993 -0.123,2.278 -0.48,3.12 -0.73,-0.149 -1.227,-0.532 -1.2,-1.439 -1.577,0.823 -2.588,2.212 -3.6,3.6 1.299,8.716 -5.901,10.021 -13.68,8.88 -0.145,-0.944 0.354,-1.246 0.72,-1.68 -0.349,-0.371 -0.936,-0.504 -1.68,-0.479 0.2,-1.748 2.792,-2.337 1.2,-3.841 -1.413,-0.13 -2.742,1.896 -3.6,3.12 2.931,6.355 -2.428,10.621 -7.92,11.521 -1.84,0 -3.68,0 -5.52,0 0.125,-1.155 0.677,-1.884 1.2,-2.641 -0.341,-0.698 -1.421,-0.658 -2.16,-0.96 1.24,-2.307 1.909,-4.269 3.36,-6 1.154,-1.377 2.947,-1.993 4.08,-3.359 6.504,-7.847 4.686,-24.445 4.08,-38.16 -0.408,-9.244 -1.771,-21.099 -2.88,-31.681 -0.558,-5.314 -1.106,-9.01 -4.32,-11.52 -3.29,-2.569 -7.69,-2.45 -11.52,-5.04 -2.602,-1.76 -4.886,-5.082 -7.2,-8.16 -1.925,-2.561 -4.908,-6.032 -6,-9.12 -0.802,-2.265 -0.473,-5.733 -1.2,-7.92 -0.744,-2.236 -3.421,-4.521 -5.28,-6.48 C 75.29,102.829 71.039,94.244 66.482,87.841 59.738,78.367 52.861,68.89 44.4,63.12 c -2.413,0.517 -0.779,5.147 -3.36,5.28 -1.314,0.068 -1.918,-1.647 -2.64,-2.88 -4.874,1.606 -13.405,-0.445 -16.56,2.88 0.734,2.672 -0.265,1.879 -0.24,4.32 -0.568,-0.472 -0.488,-1.592 -0.48,-2.64 -0.185,2.295 -0.83,4.13 -1.2,6.24 -0.555,-0.885 -0.083,-2.796 -0.24,-4.08 -0.743,0.058 0.375,1.975 -0.72,1.68 0.38,-0.615 -0.229,-1.899 0,-3.12 -0.581,0.718 0.107,3.261 -0.72,2.4 -0.276,1.164 0.58,3.459 -0.48,3.84 -0.022,-2.218 0.226,-4.706 -0.72,-6 -1.938,1.126 -4.013,1.36 -6.96,1.44 C 8.183,72.531 6.354,73.474 5.04,73.2 3.021,72.779 2.39,69.74 0,70.32 0,69.28 0,68.24 0,67.2 0.158,65.683 1.537,63.737 1.68,62.16 1.769,61.172 1.261,60.158 1.44,59.04 1.881,56.283 5.334,52.809 7.2,50.16 c 2.047,-2.905 4.567,-5.896 6.24,-8.64 1.5,-2.461 2.308,-5.874 3.36,-7.92 1.757,-3.416 4.986,-6.227 6,-10.08 C 20.409,22.711 18.633,21.288 18.72,18 20.86,20.159 25.952,21.454 30,20.16 33.883,11.803 37.318,2.999 46.56,0 z m 82.56,200.641 c -0.622,7.269 0.838,14.796 0.24,22.319 0.635,0.573 1.215,-0.54 1.68,-0.96 1.766,-1.592 3.323,-4.406 3.84,-6.96 2.047,-10.108 -1.56,-24.562 -4.32,-31.439 -0.063,5.938 -0.964,11.485 -1.44,17.04 z m -1.44,24.479 c 0.023,-0.616 0.937,-0.343 0.96,-0.96 -0.454,0.054 -0.529,-0.271 -0.96,-0.239 0.312,0.596 -0.704,0.995 0,1.199 z"
   id="path7"
   style="fill-rule:evenodd" />
            
            <g
   id="g9" />
            
        </g>
        
    </g>
    
</svg>