<?xml version="1.0" encoding="UTF-8" standalone="no"?>
<svg
   xmlns:dc="http://purl.org/dc/elements/1.1/"
   xmlns:cc="http://creativecommons.org/ns#"
   xmlns:rdf="http://www.w3.org/1999/02/22-rdf-syntax-ns#"
   xmlns:svg="http://www.w3.org/2000/svg"
   xmlns="http://www.w3.org/2000/svg"
   xmlns:sodipodi="http://sodipodi.sourceforge.net/DTD/sodipodi-0.dtd"
   xmlns:inkscape="http://www.inkscape.org/namespaces/inkscape"
   version="1.0"
   width="297mm"
   height="210mm"
   viewBox="0 0 11225.197 7937.0079"
   preserveAspectRatio="xMidYMid meet"
   id="svg5"
   sodipodi:docname="Dasypus_novemcinctus.svg"
   inkscape:version="0.92.3 (unknown)">
  <metadata
     id="metadata11">
    <rdf:RDF>
      <cc:Work
         rdf:about="">
        <dc:format>image/svg+xml</dc:format>
        <dc:type
           rdf:resource="http://purl.org/dc/dcmitype/StillImage" />
        <dc:title></dc:title>
      </cc:Work>
    </rdf:RDF>
  </metadata>
  <defs
     id="defs9" />
  <sodipodi:namedview
     pagecolor="#ffffff"
     bordercolor="#666666"
     borderopacity="1"
     objecttolerance="10"
     gridtolerance="10"
     guidetolerance="10"
     inkscape:pageopacity="0"
     inkscape:pageshadow="2"
     inkscape:window-width="2495"
     inkscape:window-height="1416"
     id="namedview7"
     showgrid="false"
     units="mm"
     inkscape:zoom="1.6051389"
     inkscape:cx="561.25984"
     inkscape:cy="396.85039"
     inkscape:window-x="65"
     inkscape:window-y="24"
     inkscape:window-maximized="1"
     inkscape:current-layer="svg5" />
  <g
     id="layer1"
     style="fill:#000000;stroke:none"
     transform="matrix(-0.99799808,-0.06324423,-0.06324423,0.99799808,11129.827,794.33052)">
    <path
       d="m 1860.271,6150.0118 -247.8973,-193.0601 -245,-224 -157,-235 C 1047.3737,5253.9517 886,4964 869,4892 c -5,-20 -36,-254 -70,-520 0,0 -25.43211,-346.141 -1.12011,-479.2053 C 822.19188,3759.7303 890,3602 890,3602 c 209,-393 370,-647 576,-907 92,-115 192,-248 222,-295 30,-47 113,-175 185,-285 162,-250 263,-361 364,-397 35,-12 68,-27 72,-33 4,-5 16,-41 25,-79 15,-60 26,-79 77,-137 l 59,-67 86,-7 85,-7 46,-69 c 39,-58 60,-78 133,-124 70,-44 95,-55 130,-55 56,0 145,-54 188,-113 30,-42 35,-45 91,-52 47,-5 65,-13 87,-37 16,-16 52,-42 79,-58 28,-16 60,-45 73,-63 22,-33 27,-35 100,-42 90,-8 155,-31 270,-93 l 83,-45 62,11 c 54,8 67,7 99,-9 31,-16 60,-19 181,-19 129,0 146,-2 161,-19 10,-11 52,-33 94,-50 64,-25 97,-31 192,-36 63,-3 149,-13 190,-21 76,-16 163,-10 805,51 54,6 66,11 124,59 l 63,53 82,-15 c 126,-22 189,-8 281,62 l 72,56 h 101 100 l 38,50 c 53,70 67,73 250,49 85,-11 159,-17 165,-14 5,4 16,22 24,41 l 14,34 h 73 c 73,0 74,0 186,69 l 113,69 133,7 133,7 194,179 c 169,156 197,179 219,174 49,-12 65,-32 98,-126 19,-52 58,-137 88,-190 l 54,-97 70,-7 c 65,-7 72,-5 123,24 l 55,31 53,131 c 30,72 59,133 65,135 6,3 67,-30 135,-72 144,-89 167,-99 234,-109 l 51,-6 31,44 c 32,43 32,44 43,231 l 12,187 -41,112 c -36,97 -50,122 -106,187 -36,41 -65,80 -65,85 0,6 41,34 90,64 108,64 137,100 214,264 l 55,116 21,211 21,210 104,279 c 57,154 107,286 111,293 4,7 50,82 102,166 105,170 98,139 71,300 l -11,63 -61,30 -60,31 -165,-31 -166,-31 -215,-122 c -123,-69 -283,-169 -371,-233 -85,-62 -193,-137 -240,-168 l -85,-56 -90,10 c -72,8 -99,16 -137,40 -30,19 -71,34 -113,41 -66,11 -67,11 -88,-16 l -22,-26 -145,85 -145,86 -110,-6 -110,-6 -93,110 -94,109 -96,35 -97,35 -8,141 c -5,79 -7,145 -4,148 3,2 41,13 84,24 43,11 153,45 245,75 l 167,55 65,103 c 36,57 66,107 66,112 0,5 -19,30 -43,57 l -42,47 -290,31 c -288,30 -290,30 -415,14 -69,-9 -130,-21 -136,-28 -10,-11 -128,-159 -146,-183 -4,-6 -19,-69 -32,-140 -21,-111 -32,-143 -78,-231 -47,-91 -56,-103 -80,-103 -14,0 -34,3 -43,6 -15,6 -55,73 -55,93 0,5 27,20 60,32 33,12 64,27 70,34 15,18 43,186 33,196 -6.3111,6.3111 -310.8858,57.7781 -492.7633,62.8414 C 5806.2916,4418.4055 5763.2148,4377.2148 5758,4372 c -5,-5 -22,-105 -37,-221 -15,-116 -31,-214 -34,-218 -4,-3 -95.2996,-8.4051 -167.2996,6.5949 C 5348.4744,3880.819 5419.1363,3910.1511 5251,3885 c -88,15 -104,15 -157,1 -32,-8 -97,-18 -144,-22 -47,-4 -99,-13 -117,-20 -21,-9 -75,-14 -155,-14 -275.1172,-6.3199 -356.9651,11.2756 -553,61 -402,102 -674,174 -680,181 -7,7 23,127 35,141 4,4 88,17 186,28 234,25 303,48 401,130 l 71,61 12,71 c 7,39 13,85 14,102 1,29 0,30 -54,37 -30,3 -208,6 -395,7 l -341,1 -183,-34 c -101,-19 -189,-40 -196,-48 -8,-7 -50,-103 -95,-213 -45,-110 -83,-201 -85,-203 -3,-3 -103,36 -113,44 -1.0761,0.538 -19.5799,30.6752 2.3059,63.2348 18.7921,27.957 77.8505,58.3646 83.3942,65.7561 36,51 36.2999,115.0091 25.2999,126.0091 -127.3879,19.9514 -392.3158,104.8224 -556.0079,101.6482 C 2192.1938,4551.3918 2143.2593,4536.3385 2125,4498 c -7,-7 -42,-116 -80,-241 l -67,-229 61,-127 c 33,-70 61,-135 61,-144 0,-11 -14,-20 -42,-27 -24,-6 -50,-13 -59,-16 -9,-2 -53,-56 -98,-119 l -82,-115 -58,43 -59,42 -156,315 -157,315 -34,255 -34,255 c -11.9731,231.1145 71.7183,330.0576 218.3737,491.9517 l 195,212 220.4702,185.9199 c 219,143 225.3676,156.98 523.3676,283.98 l 304.1622,78.1001 311,15 c 294.4122,-10.7371 351.9427,0.613 617,-99 302,-114 310,-116 526,-155 214,-39 226,-43 462,-135 l 243,-94 298,-21 298,-21 104,31 c 162.8813,4.6111 119.2876,194.0224 14,200 -12,0 -93,-5 -182,-10 l -161,-11 -169,40 c -238,56 -546,166 -923,330 -389.9328,108.0624 -873.4382,237.2593 -1191,261 l -228.7351,49.04 -258.3676,11.0201 c -143,11 -249.2573,-31.4072 -256.2573,-31.4072 -187.8849,-6.9772 -252.5923,-71.2727 -425.7427,-166.5928 z"
       id="path2"
       inkscape:connector-curvature="0"
       sodipodi:nodetypes="cccccczccsccccccccccsccccccccccscccccccccccccccccsccccccccccccccccccccccsccccccscccccccccccscsccccccccccccscccsccccccccscsscssssccccscccccccccccccccsscsccsccccsscccccccccccccccccccccccccccccccc" />
  </g>
</svg>
