<?xml version="1.0" encoding="UTF-8" standalone="no"?>
<svg
   xmlns:dc="http://purl.org/dc/elements/1.1/"
   xmlns:cc="http://creativecommons.org/ns#"
   xmlns:rdf="http://www.w3.org/1999/02/22-rdf-syntax-ns#"
   xmlns:svg="http://www.w3.org/2000/svg"
   xmlns="http://www.w3.org/2000/svg"
   xmlns:sodipodi="http://sodipodi.sourceforge.net/DTD/sodipodi-0.dtd"
   xmlns:inkscape="http://www.inkscape.org/namespaces/inkscape"
   xml:space="preserve"
   id="Layer_1"
   viewBox="0 0 1122.5197 793.70077"
   height="210mm"
   width="297mm"
   version="1.1"
   sodipodi:docname="Gallus_gallus.svg"
   inkscape:version="0.92.3 (unknown)"><sodipodi:namedview
   pagecolor="#ffffff"
   bordercolor="#666666"
   borderopacity="1"
   objecttolerance="10"
   gridtolerance="10"
   guidetolerance="10"
   inkscape:pageopacity="0"
   inkscape:pageshadow="2"
   inkscape:window-width="2495"
   inkscape:window-height="1416"
   id="namedview14"
   showgrid="false"
   inkscape:zoom="1.1350046"
   inkscape:cx="561.25984"
   inkscape:cy="396.85039"
   inkscape:window-x="65"
   inkscape:window-y="24"
   inkscape:window-maximized="1"
   inkscape:current-layer="Layer_1" /><metadata
   id="metadata15"><rdf:RDF><cc:Work
       rdf:about=""><dc:format>image/svg+xml</dc:format><dc:type
         rdf:resource="http://purl.org/dc/dcmitype/StillImage" /><dc:title /></cc:Work></rdf:RDF></metadata><defs
   id="defs23">
        
        
        
    
            
            
            
            
            
            
            
            
            
            
            
            
            
            
            
        </defs>
    
    <path
   style="fill:#ffffff;fill-rule:evenodd;stroke-width:1"
   id="path15"
   d="m 623.52656,641.85091 c -3.97156,30.54112 -19.32096,54.75368 -31.13586,80.94804 -1.60259,3.55245 -2.79606,7.94312 -5.74779,12.93252 -1.63851,2.77012 -6.46426,10.66535 -7.66371,11.0166 -1.08769,0.31932 -4.88563,-2.50468 -6.22678,-1.43695 -2.60047,-5.70388 -4.68205,-14.83648 -2.39491,-22.51217 3.23912,-1.71037 7.23463,-2.66434 8.62169,-6.22677 -0.50892,-1.08769 -3.01161,-0.18162 -4.31085,-0.47699 7.16279,-16.50294 15.56294,-35.02958 23.47214,-52.20909 2.70625,-5.8815 5.07322,-12.34377 8.61969,-16.2854 3.03355,-3.37084 7.57391,-4.65611 9.10266,-9.10266 2.12349,1.54871 4.50842,2.83597 7.66372,3.35287 z"
   inkscape:connector-curvature="0" /><path
   style="fill:#ffffff;fill-rule:evenodd;stroke-width:1"
   id="path17"
   d="m 562.21681,746.74807 c 1.90395,1.61058 2.45877,4.5663 3.83385,6.70575 2.0716,0.002 3.03755,1.11164 5.26881,0.95597 -1.56468,2.77211 -6.95523,0.95597 -9.10266,0 0.41511,-3.04154 -1.19547,-5.26681 0,-7.66172 z"
   inkscape:connector-curvature="0" /><path
   style="fill-rule:evenodd;stroke-width:1"
   id="path19"
   d="m 835.2388,297.93952 c 0,2.55457 0,5.10915 0,7.66372 -0.15966,0 -0.31933,0 -0.47899,0 0.45304,2.68629 -1.2214,3.2471 -1.43694,5.26881 -14.27568,8.2345 -26.19236,18.83199 -34.48674,33.04979 3.1074,7.01509 2.07559,17.8381 -2.39491,22.51217 6.61195,5.86155 4.99938,19.48062 0,25.86505 4.58027,13.33168 12.83274,39.4003 0.95796,50.77214 1.12362,5.83361 5.02333,14.73869 2.39492,22.51218 -0.75041,2.21729 -4.18511,4.38668 -4.78983,6.70376 -1.21542,4.65411 0.62467,9.53973 -0.95597,13.89049 -2.34502,6.44431 -8.00898,8.75939 -14.36947,10.53761 -6.69378,10.08857 -11.10441,22.10304 -22.03319,27.78098 -11.35189,5.89947 -23.32845,10.5915 -33.05179,18.68032 0.3772,24.50394 -1.11563,49.5188 -27.302,48.85621 -0.47299,14.81652 -7.04104,32.97195 -17.24337,37.36063 -7.19272,3.09343 -18.40091,-0.11376 -26.82301,3.35288 -1.63254,7.059 -4.08932,12.35774 -8.62169,17.24536 -1.89597,2.04366 -4.73394,3.1074 -6.70376,5.26881 -6.9672,7.63977 -11.57341,23.40028 -16.2854,33.52877 -5.47836,11.77498 -10.52564,23.06699 -15.80642,34.00775 -0.37321,2.28714 3.94961,-0.11974 4.31084,1.43695 -1.29525,3.81589 -5.66197,4.55832 -8.62168,6.70575 -2.50269,7.29052 0.0259,16.12974 1.91593,22.0332 1.37508,1.01983 4.77785,0.014 6.22677,0.95796 0.38917,3.68817 7.46015,1.2234 7.66372,6.22478 -5.98928,-2.69228 -8.29438,3.0575 -11.97456,3.35487 -2.5925,0.20756 -4.4745,-2.37096 -8.1427,-2.39491 -1.54472,-1.11364 -2.82201,-7.25659 -3.83186,-5.74779 -1.29924,3.22515 0.98191,6.99314 0.47898,11.01659 -3.54846,3.45666 -8.05289,1.45292 -12.45355,3.35488 -3.22914,1.39503 -3.9496,4.7998 -7.18673,5.74779 -3.08744,0.90208 -6.26469,0.0758 -9.57965,0 -3.13933,1.32917 -3.4347,5.5063 -7.18473,6.22677 -4.8038,-2.84995 -12.82276,0.83622 -15.32744,4.78783 -0.31932,0 -0.63865,0 -0.95797,0 2.79407,-4.73195 4.97942,-12.55134 12.45355,-11.0166 -1.36111,-3.72209 -6.0751,-6.52813 -9.57965,-6.22677 -2.52663,0.21554 -5.12112,3.93963 -9.10067,4.78982 -2.66035,0.5688 -5.35662,-0.65461 -8.62168,-0.47898 -4.95148,0.26344 -10.13447,6.33654 -15.80642,0.47898 -2.89984,1.23139 -6.42036,6.47625 -8.62169,5.26881 0.20956,-9.12861 8.34428,-9.78322 14.84846,-11.49558 1.88,-0.49495 3.2471,-1.55869 5.26881,-1.43894 -1.71237,-2.75215 -5.71187,-5.28278 -9.57965,-4.78783 -3.21517,0.41113 -5.5562,4.16116 -9.57965,4.78783 -2.48672,0.38917 -5.24686,-0.77835 -8.1427,-0.47699 -2.48872,0.25746 -4.63815,2.10752 -7.18474,2.39292 -4.33878,0.49096 -8.36423,-0.0798 -11.97456,0.95796 0.6087,-7.05501 7.94711,-7.37832 12.45354,-10.53761 12.12225,-0.48896 19.23314,-5.99327 33.04979,-4.78783 -2.76014,-5.75976 -14.17189,-6.17688 -22.03319,-5.74978 -0.44905,-3.6722 3.1992,-3.53849 5.74779,-4.30885 2.38293,-0.71847 5.69789,-2.45079 7.66372,-2.39491 2.37096,0.0639 4.99339,2.60846 7.66372,3.35287 6.27866,1.75228 13.00237,1.73033 18.20133,3.35288 16.1916,-12.14021 23.03107,-32.60274 31.61284,-51.25112 8.69952,-18.90384 19.09543,-37.11715 22.99116,-59.39382 -11.81291,-2.22328 -25.19248,-3.70613 -34.96572,-9.57965 -4.61619,-2.77611 -12.32182,-7.96309 -14.84846,-12.45355 -1.36111,-2.41886 -1.60658,-5.72982 -2.87389,-8.1427 -2.4029,-4.57628 -6.7796,-8.36822 -10.05863,-12.93252 -6.44431,-8.96496 -10.43583,-19.65824 -17.24337,-28.73696 -3.50056,-4.67007 -6.39641,-9.64351 -9.57965,-13.4135 -6.67183,-7.89722 -16.1916,-12.91856 -18.20133,-25.38607 -8.14869,-3.01559 -13.18599,-10.6853 -19.1593,-16.2854 -12.21006,-11.44968 -28.4775,-19.61034 -43.10842,-29.69691 -19.07947,-13.15406 -41.67946,-24.19061 -54.604,-42.62944 -7.0151,-10.00674 -10.89286,-21.82564 -13.89049,-34.96572 -5.57815,-24.44407 -16.06986,-51.86981 -12.45355,-82.38498 0.83423,-7.03705 2.24524,-13.88051 3.83186,-20.59625 1.42498,-6.02919 4.51841,-11.92067 5.74779,-18.20133 1.76625,-9.02084 1.70638,-18.1714 2.39492,-27.78098 2.31508,-32.31336 0.26743,-67.14336 -5.26881,-96.27547 -11.9107,1.89597 -20.93553,-4.99938 -28.25997,-10.53762 -8.00699,-6.05314 -13.57116,-11.5315 -9.57964,-26.34403 -10.1205,1.05775 -17.10966,5.24485 -23.47214,10.05863 0,-2.8739 0,-5.74779 0,-8.62169 0.68455,-6.05513 6.72372,-11.8608 10.53761,-16.2854 1.05776,-1.22739 2.69228,-2.98166 2.39492,-4.31084 -11.93465,2.353 -9.9828,-13.325692 -12.93253,-21.554211 0,-3.033556 0,-6.067111 0,-9.100667 1.0817,-2.748161 1.42896,-6.234754 3.83186,-7.663719 2.01971,0.375203 4.96745,1.8361 7.18474,0.478983 0.87414,-6.865415 -1.95385,-13.95236 -0.95797,-22.512175 4.05339,2.995636 6.85145,9.719352 12.45355,9.579649 0.91605,-8.234507 -3.78596,-17.143581 -1.91593,-26.344035 4.38268,5.037299 5.30473,13.535246 12.45354,15.806421 2.16739,-10.100543 -0.18561,-23.250607 0.47898,-33.0497892 4.53437,7.5978592 6.12299,18.1434562 13.89049,22.5121752 3.14133,-5.001375 3.59037,-12.695031 4.78983,-19.63828 1.28926,6.210805 9.29226,7.302486 12.45354,12.453543 1.79818,2.92778 6.01123,13.345649 4.78982,19.159298 -1.41898,6.763631 -12.09231,8.108774 -10.53761,18.201333 18.86991,-4.059376 33.02584,3.650246 44.54537,13.890491 25.49384,22.661857 49.26135,41.523783 69.93144,70.889403 13.28577,18.8759 18.47275,43.72112 25.38607,68.97347 6.52813,23.84534 14.76463,55.19275 29.69691,68.97347 7.71561,7.12088 19.13934,13.50132 28.73894,19.63828 9.91893,6.34453 20.39069,13.75478 31.13386,16.76439 23.91121,6.70176 50.48675,5.18499 76.6372,10.05863 5.86553,-2.90183 11.23413,-5.61806 17.24336,-8.1427 6.01323,-2.52663 12.78484,-3.52052 19.1593,-6.22677 9.9349,-4.21904 14.47525,-15.90222 28.25997,-15.80642 15.30149,-22.3126 37.38458,-60.73697 75.67922,-56.99891 9.20245,0.89809 17.61059,5.11513 19.64028,14.36947 12.36573,9.02682 21.30673,21.48236 22.99116,41.19249 z M 615.86484,638.49604 c -1.52876,4.44655 -6.06911,5.72983 -9.10267,9.10266 -3.54646,3.94363 -5.91343,10.4039 -8.61969,16.28541 -7.90919,17.1795 -16.30935,35.70814 -23.47213,52.20908 1.29924,0.29538 3.80192,-0.6107 4.31084,0.47699 -1.38705,3.56243 -5.38256,4.51641 -8.62168,6.22677 -2.28714,7.67769 -0.20557,16.80829 2.39491,22.51218 1.34115,-1.06773 5.13908,1.75627 6.22677,1.43694 1.19945,-0.35125 6.0252,-8.24648 7.66372,-11.01659 2.95173,-4.9894 4.14519,-9.38008 5.74779,-12.93253 11.8149,-26.19435 27.1623,-50.40691 31.13585,-80.94803 -3.15729,-0.51491 -5.54222,-1.80217 -7.66371,-3.35288 z m -53.64803,115.91375 c 2.14544,0.95597 7.53599,2.77211 9.10266,0 -2.22927,0.15368 -3.19721,-0.95597 -5.26881,-0.95597 -1.37308,-2.13945 -1.9299,-5.09717 -3.83385,-6.70575 -1.19547,2.39491 0.41511,4.62018 0,7.66172 z"
   inkscape:connector-curvature="0" />
    
</svg>