<?xml version="1.0" encoding="UTF-8" standalone="no"?>
<!-- Created with Inkscape (http://www.inkscape.org/) -->

<svg
   xmlns:dc="http://purl.org/dc/elements/1.1/"
   xmlns:cc="http://creativecommons.org/ns#"
   xmlns:rdf="http://www.w3.org/1999/02/22-rdf-syntax-ns#"
   xmlns:svg="http://www.w3.org/2000/svg"
   xmlns="http://www.w3.org/2000/svg"
   xmlns:sodipodi="http://sodipodi.sourceforge.net/DTD/sodipodi-0.dtd"
   xmlns:inkscape="http://www.inkscape.org/namespaces/inkscape"
   version="1.1"
   width="297mm"
   height="210mm"
   viewBox="0 0 1122.5197 793.70079"
   id="Layer_1"
   xml:space="preserve"
   sodipodi:docname="Lizard.svg"
   inkscape:version="0.92.3 (unknown)"><metadata
   id="metadata11"><rdf:RDF><cc:Work
       rdf:about=""><dc:format>image/svg+xml</dc:format><dc:type
         rdf:resource="http://purl.org/dc/dcmitype/StillImage" /><dc:title></dc:title></cc:Work></rdf:RDF></metadata><sodipodi:namedview
   pagecolor="#ffffff"
   bordercolor="#666666"
   borderopacity="1"
   objecttolerance="10"
   gridtolerance="10"
   guidetolerance="10"
   inkscape:pageopacity="0"
   inkscape:pageshadow="2"
   inkscape:window-width="2495"
   inkscape:window-height="1416"
   id="namedview9"
   showgrid="false"
   units="mm"
   inkscape:zoom="1.1350046"
   inkscape:cx="561.25984"
   inkscape:cy="396.85039"
   inkscape:window-x="65"
   inkscape:window-y="24"
   inkscape:window-maximized="1"
   inkscape:current-layer="Layer_1" /><defs
   id="defs15">
        
        
        
    
            
            
            
            
            
            
            
        </defs>
    
    <path
   d="m 120.63614,517.4139 c 2.51223,-2.41363 3.27654,-6.49392 4.78065,-7.76856 -3.01061,2.55108 6.70725,-2.03118 6.5734,-1.79274 1.67263,-2.98612 -0.94717,-5.83897 -0.59759,-7.17098 1.17963,-4.49082 7.44408,-8.21017 10.15889,-8.36614 2.92815,-0.16792 8.07571,4.16275 11.95162,1.79274 1.26927,-0.77625 1.42285,-6.13058 3.58549,-7.17097 8.19583,-3.94344 12.9956,5.67523 19.12261,8.36614 4.34501,1.90807 11.62654,3.73966 17.32986,2.39032 1.83457,-0.43444 0.58324,-1.93258 2.9879,-1.19516 -0.84378,-0.82526 -8.21555,-7.66816 -4.18307,-10.75646 3.29208,-2.5212 9.56071,6.7186 11.35405,5.97581 2.35567,-0.97585 1.2848,-9.33781 1.19516,-8.96372 0.18226,-0.75893 2.05269,-0.35855 2.39033,-1.19516 1.59733,-3.95898 0.55037,-10.80726 1.79274,-16.73228 0.0293,-0.13864 1.0625,-2.06763 1.19516,-2.39033 1.35233,-3.28968 3.67334,-6.84948 4.78066,-9.5613 0.29819,-0.72965 -0.31493,-1.77541 -0.59759,-1.19516 2.15429,-4.41912 7.81338,-11.34628 10.75647,-18.52503 1.14975,-2.80385 1.06728,-5.31488 2.39032,-7.76855 1.19457,-2.21524 3.66856,-3.91894 4.18307,-5.37824 0.22469,-0.63761 -0.34898,-2.78353 -0.59758,-2.39032 0.41472,-0.65734 1.44436,0.14163 2.39033,-0.59758 1.59733,-1.24895 2.31025,-4.98981 2.98791,-5.97582 2.60366,-3.79045 8.59859,-11.01043 11.95162,-14.93953 2.31683,-2.71481 7.28332,-4.99279 7.17098,-7.17098 -0.36931,-7.19129 3.50959,-22.06987 2.39032,-29.28148 -0.15776,-1.01768 -1.84652,-0.0801 -1.19516,0.59758 -0.9872,-1.02665 0.26712,-0.74638 0,-1.79275 -0.48703,-1.90688 -3.53828,-5.25572 -3.58549,-5.37823 -1.13062,-2.94787 -0.11712,-8.57768 -1.19516,-11.95163 -0.25696,-0.80374 -1.72223,-1.84294 -1.79274,-2.39032 -0.99796,-7.77095 0.65495,-16.55719 0,-25.696 -1.54595,-21.57866 -8.6225,-49.28433 -1.19517,-71.70976 1.08342,-3.27117 3.63509,-7.48949 5.37824,-10.75647 1.97022,-3.69186 3.58309,-7.85461 5.37823,-10.75646 5.57782,-9.01452 13.12946,-16.14964 19.1226,-25.09842 1.2352,-1.84474 -0.29162,-2.06046 0.59758,-2.98791 0.69678,-0.72726 3.13671,-1.63259 4.18307,-2.39032 2.67597,-1.93796 4.32589,-4.86611 7.17098,-7.17098 8.66314,-7.0174 20.73368,-10.33876 29.28149,-16.1347 9.05634,-6.14074 10.69491,-10.41106 25.696,-8.96372 11.29189,1.08939 19.84687,6.07262 36.45246,4.78065 3.92611,-0.30536 7.6592,-2.14651 11.95163,-2.39032 6.09055,-0.346 24.60959,2.91082 27.48874,8.96372 1.92302,4.04323 -0.0245,11.72813 -1.79274,14.93953 -2.56602,4.65934 -7.59526,6.70247 -8.36614,8.96372 -0.23784,0.69738 1.00035,2.07062 1.19516,1.79275 -0.42369,0.60535 -3.53111,-1.53937 -1.19516,0.59758 -0.21155,0.83721 -1.05234,0.0514 -1.19517,-0.59758 -7.88568,6.29372 -17.89816,19.49848 -28.6839,26.89116 -2.4477,1.67741 -5.16908,2.15488 -7.17098,3.58549 -7.36101,5.25991 -13.82863,12.29404 -18.52502,15.53711 -0.80554,0.55635 -2.85166,0.50376 -3.58549,1.19517 -3.84125,3.61835 -8.80417,12.57789 -12.54921,17.92744 0.0526,-0.0753 -1.43897,1.69235 -1.19516,0.59758 -0.78343,3.51856 2.54092,5.2611 0,7.17097 -1.58718,1.19337 -4.0271,-2.04014 -4.78065,-1.79274 -1.59196,0.52288 -0.95972,4.09224 -1.79275,5.97581 -0.42846,0.96928 -4.43584,7.57196 -5.37823,8.36614 -0.31672,0.26712 -2.21045,-0.33763 -2.39032,0 -3.50243,6.56981 4.60436,22.879 3.58548,32.86698 -0.13266,1.30153 -1.50112,1.88716 -1.19516,2.98791 1.34755,4.85295 8.93743,7.12197 9.5613,10.75646 0.36035,2.09871 0.38783,6.52678 0,8.36614 -0.67347,3.19527 0.59639,6.19094 4.78065,9.5613 0.36333,0.29282 2.27141,0.49719 1.79275,0 1.28121,1.33022 6.84888,8.47849 8.96372,11.35405 2.04433,2.77995 1.81844,5.45412 3.58549,6.57339 4.23506,2.68135 9.68022,1.48619 16.13469,3.58549 7.66817,2.49371 22.83717,9.38502 29.28149,13.14679 1.48858,0.86948 5.63579,4.06057 7.76856,5.97581 2.07301,1.86207 5.97283,8.98344 7.76856,9.56131 1.57403,0.50615 3.71397,-2.00429 5.37823,-0.59759 5.44397,4.60019 -0.34122,23.60088 5.37823,28.08633 1.93437,-2.62099 -2.4692,-13.92006 2.98791,-13.74437 2.9903,0.0962 3.73189,7.9311 4.18307,12.54921 0.68483,7.00903 0.78701,3.32255 7.76856,5.97581 2.72377,1.03501 4.62229,3.30164 5.97581,3.58549 13.16651,2.75664 33.77769,-1.03979 43.62344,2.9879 3.40801,1.39416 11.75204,2.10349 17.92744,2.39033 31.18299,1.45093 57.09173,6.62837 75.29525,14.93953 -0.27488,-9.70591 -5.49476,-23.30447 -2.9879,-32.86697 0.91489,-3.49167 4.84041,-9.83798 6.57339,-11.35405 6.68754,-5.84972 27.1302,-3.14686 34.65972,2.98791 1.37504,-10.04833 18.55968,-1.64395 4.18307,0 4.7436,2.22838 9.29896,4.6444 16.1347,4.78065 -0.60595,-1.78318 -1.31468,-4.11972 -1.19516,-7.17098 0.1721,-4.39521 6.55427,-16.14903 15.53711,-15.53711 1.15154,0.0783 3.70082,1.34396 4.18307,1.19516 1.18321,-0.36572 3.81914,-5.80371 4.78065,-6.57339 2.01624,-1.61407 6.68574,-2.66402 10.15888,-4.78065 3.0644,-1.86745 7.86776,-4.56493 9.56131,-6.5734 0.56591,-0.67168 0.0472,-2.46383 0.59758,-2.98791 8.11336,-7.72613 23.75864,2.52897 20.91535,16.1347 -5.24916,-0.0586 -3.52633,-6.06844 -5.97582,-7.76856 -2.964,-2.05687 -9.60612,0.53663 -11.35404,1.79275 -4.49322,3.22873 -7.54268,8.86691 -14.34196,10.15888 0.43743,0.55814 1.08641,0.90534 1.79275,1.19516 -0.52767,1.20473 -1.74912,-0.69737 -2.39033,-0.59758 -1.24894,0.19422 0.52468,1.28361 0.59758,1.19516 -0.43683,0.53006 -5.05972,0.76371 -6.57339,5.97582 -1.81486,6.24831 0.75952,7.54566 4.78065,12.54921 0.78642,0.97943 1.86087,3.22216 2.39032,3.58549 -0.23903,-0.16434 5.95371,1.56685 9.56131,1.19516 3.34705,-0.34481 8.46533,-3.99244 14.34195,-5.37823 4.9402,-1.16469 11.04868,-0.79778 15.53712,-2.39033 1.51546,-0.53723 2.94308,-2.18894 4.18306,-2.39033 9.94316,-1.61406 19.78234,10.92618 13.14679,20.91535 -4.58464,-3.02973 -2.99149,-10.00052 -8.96372,-11.35404 -4.57807,-1.03681 -10.21326,2.00488 -15.53711,2.9879 -6.72458,1.24178 -19.81759,2.50327 -22.70809,8.36614 -1.42643,2.89289 -0.3717,6.92478 -1.19517,9.5613 -2.17818,6.97497 -9.04678,14.77819 -16.13469,16.1347 -3.10623,0.594 -6.07322,-0.46312 -8.96372,-0.59758 -8.41036,-0.39082 -16.17892,0.80195 -26.89117,-2.39033 0.0323,5.56767 4.87149,8.41754 7.17098,13.14679 2.45666,5.05375 2.02461,15.06264 4.18307,18.52503 1.01649,1.6308 3.80719,2.01325 5.37823,2.9879 1.02127,0.63404 0.58563,1.20951 3.58549,2.98791 0.40158,0.23784 -0.81032,0.77506 0.59758,1.19516 0.70037,0.20916 2.07122,-1.01469 1.79275,-1.19516 1.6804,1.087 -1.26867,0.58205 -0.59758,1.79275 0.60535,1.09178 5.6071,2.6419 8.36613,4.18306 5.5611,3.10564 12.30958,7.86179 21.51293,11.35405 9.93001,3.76775 18.89672,5.0645 28.68391,7.17098 20.28131,4.36652 41.69206,2.0264 66.33153,0.59758 11.48074,-0.66571 21.91988,-1.61586 35.2573,-3.58549 4.49322,-0.66331 8.76891,-3.04886 13.14679,-4.18307 9.96766,-2.58215 19.38614,-4.94379 28.68391,-8.36614 9.32466,-3.43251 19.16802,-5.94773 26.89116,-10.75646 3.58489,-2.23197 7.48411,-3.98049 12.54921,-6.5734 3.0142,-1.54295 7.10703,-3.13909 8.96372,-4.78065 0.47149,-0.41651 -0.13685,-1.3822 0.59758,-1.79274 0.56472,-0.31553 -0.26054,1.33858 0.59758,1.19516 0.9639,-0.16135 15.64946,-8.33865 12.54921,-9.5613 1.18261,1.08521 6.27819,-2.46742 8.96372,-5.37823 0.30118,-0.32628 0.48882,-1.60272 0,-1.19517 1.73777,-1.44734 4.18188,-3.23471 5.97582,-4.78065 7.65262,-6.5961 21.49739,-18.82441 28.6839,-26.89116 2.5702,-2.88453 11.80223,-9.03902 17.92744,-14.34195 1.39774,-1.20951 2.04134,-3.36618 2.98791,-4.18307 0.64479,-0.55695 12.14644,-7.5355 16.13468,-4.78065 4.2393,2.92815 -1.61525,14.21646 -1.79273,19.72018 -0.16732,5.20434 -0.14402,10.29872 -1.79274,16.1347 -1.07625,3.81018 -4.53624,6.82259 -6.5734,10.75646 -1.04457,2.01744 -0.94776,4.6223 -1.79274,5.97582 -3.12416,5.00355 -11.92354,11.36659 -16.1347,16.73228 -0.28146,0.35914 -0.67825,2.47338 -0.59758,2.39032 -0.42488,0.43624 -6.58594,4.38386 -7.76856,5.97581 -0.29281,0.39441 -0.41771,2.25289 0,1.79275 -1.18261,1.30153 -0.88442,-0.38903 -2.39032,0.59758 -1.89493,1.24177 -2.16026,4.55058 -4.18307,6.5734 -0.0335,0.0335 -2.98432,1.92899 -4.18307,2.9879 -3.84723,3.39904 -8.46295,8.39662 -12.54921,11.95163 -5.1159,4.45079 -9.33841,6.39651 -10.75647,7.76856 -0.89697,0.86709 -0.18704,1.4569 -0.59758,1.79274 -2.65326,2.174 -6.68036,5.11052 -10.15888,7.76856 -6.26624,4.78902 -17.10099,9.52246 -22.70809,13.74437 -0.52826,0.39799 -7.44706,3.69186 -10.15889,4.78065 -12.02632,4.82846 -25.77547,10.56644 -34.65972,13.14679 -27.83773,8.08588 -64.42943,13.62784 -98.00334,15.53712 -11.9582,0.68004 -28.35046,0.72247 -42.42828,0 -30.9093,-1.58539 -67.00919,-9.22546 -92.02753,-18.52503 -1.70311,-0.63343 -3.78687,-2.49729 -5.37823,-2.9879 -2.45845,-0.75893 -5.34417,-0.34003 -7.76856,-1.19516 -4.04801,-1.42763 -7.17874,-5.51807 -14.93953,-4.18307 -2.72975,0.46969 -5.0412,2.90603 -8.36614,4.18307 -10.47859,4.02232 -28.12577,5.22405 -43.62344,4.18306 -8.06616,-0.542 -21.62289,-5.01968 -23.90326,-4.18306 -4.97845,1.8274 -5.64774,20.75041 -7.76855,26.89116 -2.3718,6.8686 -6.96302,16.01817 -13.14679,19.1226 -3.0411,1.52682 -7.44467,1.73657 -11.95163,2.98791 -3.3118,0.91908 -7.69147,3.13132 -10.15889,2.9879 -1.10074,-0.0639 -2.6425,-1.58478 -3.58548,-1.19516 -1.48141,0.61193 -9.82544,11.54408 -11.95163,14.34195 -0.21453,0.28206 -0.46731,1.64933 0,1.19517 -2.90903,2.82536 -6.64809,2.82596 -10.15888,4.78065 -1.25134,0.69678 -0.80495,2.06345 -1.79275,2.98791 -0.36871,0.3448 -6.1276,2.09392 -7.17097,3.58548 -2.74171,3.92133 0.34002,11.14848 -1.79275,13.74437 -0.19899,0 -0.39859,0 -0.59758,0 -0.87785,-3.18988 -5.47026,-11.70363 -2.39033,-20.31776 1.81127,-5.0663 6.44851,-4.3731 10.15889,-5.97582 2.9897,-1.29077 14.01029,-11.28831 13.14679,-14.34195 -0.7906,-2.79728 -24.94066,-6.03856 -30.47665,-5.37823 -9.5117,1.13481 -16.89901,7.39806 -23.30568,9.5613 -3.91893,1.32364 -11.92055,3.92551 -17.32986,4.78065 -12.36097,1.95469 -23.40905,-4.25478 -31.67181,0.59758 -2.7172,1.59555 -3.33629,7.77812 -6.57339,8.36614 -3.15822,-10.30589 3.69006,-18.99113 12.54921,-20.31776 7.87552,-1.17963 17.39738,3.17614 24.50083,2.39032 6.0792,-0.67287 17.13266,-5.81088 12.54921,-11.35404 -0.34122,-0.41293 -1.49455,-0.35019 -1.79274,-0.59759 -5.11052,-4.24402 -14.73516,-14.75966 -19.12261,-1.19516 -4.81053,-12.16735 2.04015,-18.10671 8.36614,-17.92744 7.00903,0.1984 14.37542,10.26884 19.12261,11.35405 1.9505,0.44579 15.01722,-1.62782 15.53711,-2.39033 0.444,-0.65077 -0.50316,-5.21808 -2.39032,-5.97581 -1.23939,-0.49779 -3.12057,3.44386 -5.37824,2.9879 -3.78806,-9.99335 -0.4924,-15.9106 5.97582,-14.93953 7.1656,1.07565 8.58127,15.73252 22.11051,12.54921 0.11593,-0.0275 1.43838,1.038 1.79274,0.59758 2.77876,-3.45701 -6.53037,-15.47198 5.37823,-13.74437 5.09319,0.73861 13.54897,9.9575 19.72019,1.79274 1.185,-1.56745 4.60855,-10.80188 1.79274,-13.14679 -1.49574,-1.24536 -5.67045,0.49659 -7.76855,0.59758 -40.97377,1.96903 -88.40858,-16.91155 -117.72353,-35.2573 -4.05997,-2.54091 -9.00675,-5.94115 -11.95163,-7.76855 -2.15966,-1.34038 -13.16771,-11.79088 -19.12261,-16.1347 -2.93531,-2.14114 -5.5575,-6.36126 -8.96372,-10.75647 -2.5439,-3.28191 -8.86392,-9.62404 -10.15888,-11.95162 -1.9762,-3.55143 -5.17685,-11.82614 -10.15888,-18.52503 -1.16349,-1.56446 -4.38446,-3.27952 -7.17098,-7.76855 -2.08855,-3.36439 -0.44101,-4.9414 -2.39032,-5.37824 -1.03262,-0.23186 -5.49716,4.0026 -6.5734,4.78065 -2.30188,1.66307 -5.66985,5.87901 -8.96372,8.36614 -1.94692,1.47005 -5.57424,2.36762 -5.97581,2.98791 -0.94358,1.4569 -0.28505,4.60138 -0.59758,5.97581 -3.84126,16.9002 -12.97409,37.79165 -23.90326,47.20893 -1.32125,1.1384 -4.30916,2.36403 -6.57339,4.18307 -4.62349,3.71517 -6.50946,8.33447 -12.54921,10.75647 -3.56338,1.42881 -7.65681,1.39535 -11.35405,3.58549 -3.99662,2.36701 -6.52559,5.67881 -9.5613,6.57339 -9.67305,2.85046 -28.83031,-3.62612 -23.30567,13.14679 -3.39725,-2.28993 -7.07597,-2.91679 -5.97582,-10.75646 0.17987,-1.28241 3.42175,-6.61105 2.98791,-7.17098 -1.0374,-1.33858 -11.97195,-0.87307 -14.93954,-1.79274 -4.88761,-1.51487 -10.09374,-5.07825 -15.53711,-2.98791 -3.27415,1.25731 -3.0387,6.68932 -5.97582,8.36614 -0.22708,-4.08626 -2.01982,-3.06201 -2.39032,-7.17098 0,-0.39859 0,-0.79658 0,-1.19516 z"
   id="path7"
   style="fill-rule:evenodd;stroke-width:1"
   inkscape:connector-curvature="0" />
    
</svg>