<?xml version="1.0" encoding="UTF-8" standalone="no"?>
<!-- Created with Inkscape (http://www.inkscape.org/) -->

<svg
   xmlns:dc="http://purl.org/dc/elements/1.1/"
   xmlns:cc="http://creativecommons.org/ns#"
   xmlns:rdf="http://www.w3.org/1999/02/22-rdf-syntax-ns#"
   xmlns:svg="http://www.w3.org/2000/svg"
   xmlns="http://www.w3.org/2000/svg"
   xmlns:sodipodi="http://sodipodi.sourceforge.net/DTD/sodipodi-0.dtd"
   xmlns:inkscape="http://www.inkscape.org/namespaces/inkscape"
   version="1.1"
   width="297mm"
   height="210mm"
   viewBox="0 0 1122.5197 793.70079"
   id="Layer_1"
   xml:space="preserve"
   sodipodi:docname="opossum.svg"
   inkscape:version="0.92.3 (unknown)"><metadata
   id="metadata7"><rdf:RDF><cc:Work
       rdf:about=""><dc:format>image/svg+xml</dc:format><dc:type
         rdf:resource="http://purl.org/dc/dcmitype/StillImage" /><dc:title></dc:title></cc:Work></rdf:RDF></metadata><sodipodi:namedview
   pagecolor="#ffffff"
   bordercolor="#666666"
   borderopacity="1"
   objecttolerance="10"
   gridtolerance="10"
   guidetolerance="10"
   inkscape:pageopacity="0"
   inkscape:pageshadow="2"
   inkscape:window-width="2221"
   inkscape:window-height="1261"
   id="namedview5"
   showgrid="false"
   units="mm"
   inkscape:zoom="1.3803833"
   inkscape:cx="638.31517"
   inkscape:cy="320.86025"
   inkscape:window-x="97"
   inkscape:window-y="29"
   inkscape:window-maximized="0"
   inkscape:current-layer="Layer_1" /><defs
   id="defs7" />
    
    
    
<path
   style="fill:#000000;fill-opacity:1;fill-rule:evenodd;stroke:#000000;stroke-width:5;stroke-linecap:butt;stroke-linejoin:miter;stroke-miterlimit:4;stroke-dasharray:none;stroke-opacity:1"
   d="m 447.5373,505.50988 -3.38807,-12.66152 -9.91785,-9.2024 -19.07273,-2.8315 -18.30975,9.20241 -63.32114,32.56235 -21.36137,3.5394 -41.19708,9.2024 -26.70164,15.57331 -35.09383,22.65207 -18.30975,6.37091 -6.79538,0.71341 -3.29769,0.4371 c -50.90472,-16.27098 -11.11873,-53.30231 10.33185,-94.78836 1.15686,-3.93359 4.2251,-15.64248 4.93939,-20.54228 0.91867,-6.30173 -5.0665,-24.25024 -3.37845,-29.96314 4.25339,-14.39479 7.5056,-15.25445 13.2829,-25.92566 5.05776,-9.34258 -2.55367,-24.60788 -4.64202,-33.59921 -2.94696,-12.68934 -26.36957,-14.68785 -29.93432,-27.23165 -2.59273,-12.87476 -1.27697,-32.27321 6.03299,-37.78363 7.6018,-5.73031 15.49254,-5.27374 25.76725,0.94731 8.53767,5.16937 19.89895,14.65043 23.31356,24.83013 4.26271,1.14753 11.45751,4.38315 20.8774,3.23511 18.33249,-2.23421 42.96648,-11.20539 55.9208,-15.36106 27.02001,-1.57196 33.11276,-12.21381 67.15177,-26.50582 34.03901,-14.29198 66.30775,-46.78051 100.04938,-66.10271 36.90318,-9.19775 73.53375,-23.76714 113.604,-19.36047 39.39351,-1.36363 76.66474,7.25071 101.48146,22.95416 30.57456,24.03679 61.60305,35.35731 89.97293,61.21143 25.70134,35.69328 66.5162,44.14793 86.84725,70.52053 20.33104,26.37259 25.22848,27.76022 47.46478,56.68349 28.58181,24.13923 46.23735,48.14219 67.09345,74.99074 28.72641,32.49918 46.37291,62.07337 35.49151,103.65931 -17.72633,35.90726 -30.17663,35.00698 -101.93338,42.71084 -3.6767,0.39471 -50.13795,1.75714 -74.96203,0.43565 -9.10881,-0.4849 -12.65198,-5.17279 -13.838,-5.5128 29.98826,-3.96963 146.33425,-8.13344 164.09498,-34.59761 15.01563,-33.80869 -8.2158,-72.07911 -38.0151,-92.0999 -26.61359,-15.65324 -52.37266,-31.49131 -83.88746,-34.37524 -31.43613,-12.26402 -55.58493,-12.98726 -78.39879,5.75278 -8.97394,8.72734 -26.50172,29.08665 -26.20106,41.5475 0.33995,3.58111 0.89159,11.4653 -2.63121,10.22682 -3.5228,-1.23848 -4.08487,-6.54615 -8.19364,-6.79305 -3.66913,-0.67059 -7.35108,-0.10817 -11.00125,0.32657 -4.05221,2.89133 -1.6037,8.29282 -4.83035,11.80966 -3.22665,3.51684 -7.64816,-5.22581 -10.40561,-8.6133 -1.7936,-3.3758 -4.82336,-5.69811 -8.99686,-5.28771 -10.26782,9.09851 -10.24358,18.32011 -15.4899,15.8398 -5.24632,-2.48031 -2.65564,-13.9506 -12.5377,-15.87744 -4.14259,-2.23978 -7.13911,1.00344 -10.23447,3.22197 -2.46795,1.99721 -3.29536,5.50001 -6.06943,7.12131 -8.13321,0.80709 -2.2985,-8.88989 0.77435,-12.44742 2.45687,-4.06316 2.92267,-7.70994 10.04497,-9.88564 7.1223,-2.1757 18.72193,-4.46909 27.05558,-6.12414 17.33526,-24.04917 -9.1306,-39.2352 -47.27834,-37.63268 -27.19234,1.14231 -65.33227,-3.98435 -94.39453,5.66672 -31.64569,10.50897 -53.40247,36.18564 -60.99268,46.11196 l -3.32189,4.0068 c -3.00585,1.8242 -5.72569,4.02439 -7.61958,6.88675 -3.99821,5.12556 -12.21815,14.89075 -7.82134,15.766 3.89074,5.11005 4.63549,20.90667 1.04491,19.9409 -3.52292,-1.23831 -4.08487,-6.54616 -8.19335,-6.79306 -3.66942,-0.67059 -7.35137,-0.10817 -11.00154,0.32657 -4.05221,2.89133 -1.60369,8.29282 -4.83035,11.80966 -3.22666,3.51684 -7.64787,-5.22581 -10.40561,-8.6133 -1.7936,-3.3758 -4.82336,-5.6981 -8.99686,-5.28771 -4.33939,1.16095 -6.15106,5.57013 -9.82718,7.67586 -1.84841,2.7057 -2.64625,7.91599 -5.66243,8.16395 -3.01618,0.24796 -3.52831,-5.5421 -4.74989,-8.51611 1.05803,-4.45394 -3.8493,-6.64515 -7.7881,-7.36134 -4.14259,-2.23978 -7.13912,1.00344 -10.23447,3.22197 -1.98919,3.9268 -7.28239,13.18655 -10.40853,6.2253 -0.16035,-4.48646 2.15366,-8.16769 5.11374,-11.55141 2.45687,-4.06315 5.95806,-7.23994 10.04467,-9.88564 8.08247,-4.88489 18.72195,-4.46908 27.05559,-6.12414 3.75308,-2.70123 6.92978,-5.95293 9.57674,-9.60216 0.71121,-9.74971 0.98186,-19.51891 1.44578,-29.2397 z"
   id="path840"
   inkscape:connector-curvature="0"
   sodipodi:nodetypes="ccccccccccccccsssscsscscsccccscccsscccccczcczcczcccczcssccccccczccczccccccccc" /></svg>