<?xml version="1.0" encoding="UTF-8" standalone="no"?>
<!-- Created with Inkscape (http://www.inkscape.org/) -->

<svg
   xmlns:dc="http://purl.org/dc/elements/1.1/"
   xmlns:cc="http://creativecommons.org/ns#"
   xmlns:rdf="http://www.w3.org/1999/02/22-rdf-syntax-ns#"
   xmlns:svg="http://www.w3.org/2000/svg"
   xmlns="http://www.w3.org/2000/svg"
   xmlns:sodipodi="http://sodipodi.sourceforge.net/DTD/sodipodi-0.dtd"
   xmlns:inkscape="http://www.inkscape.org/namespaces/inkscape"
   width="297mm"
   height="210mm"
   viewBox="0 0 297 210"
   version="1.1"
   id="svg8"
   inkscape:version="0.92.3 (unknown)"
   sodipodi:docname="Monopterus_albus.svg">
  <defs
     id="defs2" />
  <sodipodi:namedview
     id="base"
     pagecolor="#ffffff"
     bordercolor="#666666"
     borderopacity="1.0"
     inkscape:pageopacity="0.0"
     inkscape:pageshadow="2"
     inkscape:zoom="0.5675023"
     inkscape:cx="897.23633"
     inkscape:cy="-55.047093"
     inkscape:document-units="mm"
     inkscape:current-layer="layer1"
     showgrid="false"
     showguides="false"
     inkscape:window-width="2495"
     inkscape:window-height="1416"
     inkscape:window-x="65"
     inkscape:window-y="24"
     inkscape:window-maximized="1" />
  <metadata
     id="metadata5">
    <rdf:RDF>
      <cc:Work
         rdf:about="">
        <dc:format>image/svg+xml</dc:format>
        <dc:type
           rdf:resource="http://purl.org/dc/dcmitype/StillImage" />
        <dc:title></dc:title>
      </cc:Work>
    </rdf:RDF>
  </metadata>
  <g
     inkscape:label="Layer 1"
     inkscape:groupmode="layer"
     id="layer1"
     transform="translate(0,-87)">
    <path
       style="fill:#000000;stroke-width:1"
       d="m 235.08222,137.8363 c 0.91957,0.29568 1.83395,0.60979 2.74132,0.9486 -0.76016,-0.32593 -1.71283,-0.64462 -2.74132,-0.9486 z m 15.50123,7.28355 c 0.46602,0.31501 0.93129,0.63316 1.39804,0.95553 -1.05591,-0.79574 -1.67691,-1.21831 -1.39804,-0.95553 z m -30.35662,98.55986 c -146.817887,35.54686 -73.40894,17.77343 0,0 z m 14.23223,-40.89326 c -0.33948,0.4274 -0.96746,1.00428 -1.97651,1.77194 3.28236,-2.29624 3.15958,-2.43889 1.97651,-1.77194 z m -4.83367,3.83596 c 1.3e-4,-0.0247 0.003,-0.0502 0.009,-0.0774 -0.0435,0.0342 -0.0684,0.0556 -0.11393,0.0912 0.0342,-0.004 0.0702,-0.01 0.10448,-0.0138 z m 0.009,-0.0774 c 3.71458,-2.92357 0.2215,-0.86601 0,0 z m 23.38906,-15.89653 c -0.0175,9.4e-4 -0.0194,0.0157 0.0195,0.0598 -0.007,-0.0213 -0.0131,-0.0387 -0.0195,-0.0598 z m -2.17166,-3.7919 c 0.0267,0.12203 0.13664,0.31781 0.36635,0.56589 -0.13944,-0.22136 -0.24285,-0.37436 -0.36635,-0.56589 z M 122.49238,163.5472 c -3.06069,1.95999 -5.64352,2.60164 -9.62912,4.64572 1.11526,-0.45678 -2.49006,1.16248 -2.59591,1.38671 0.208,-0.0594 0.42983,-0.10903 0.67416,-0.13974 -0.51842,0.16577 -0.69987,0.1942 -0.67416,0.13974 -1.21829,0.34762 -1.89138,1.07798 -2.88107,0.98889 -0.0878,0.17726 -1.65967,1.15097 -2.94842,1.85377 0.0924,-0.005 -2.36276,1.44868 -2.98618,1.69893 -0.19375,0.15863 -2.082727,1.35573 -4.426397,2.19873 -3.48094,1.83251 -4.86854,3.09414 -8.396446,4.5951 -0.578257,0.20291 -3.248438,1.2963 -3.859258,1.5957 0.24257,-0.0786 0.490469,-0.15093 0.7497,-0.21151 -0.927173,0.33662 -1.02029,0.34414 -0.7497,0.21151 -2.128965,0.69014 -3.693098,1.99661 -6.00321,2.55562 0.07807,-0.063 -0.950686,0.50265 -1.8991,0.84916 -2.606486,0.40937 -4.706132,2.18842 -7.186611,2.85714 0.205894,0.10865 -4.474949,1.69716 -3.90332,1.17459 -0.0994,0.2527 -5.105711,2.23098 -7.253963,2.11941 -1.035472,0.57982 0.492789,-0.27615 -1.768166,0.69367 -3.351797,0.31081 -6.693428,1.22953 -10.054458,0.85985 -1.152038,0.0874 -2.307452,0.13336 -3.46269,0.15799 -0.31996,-0.007 -4.854234,-0.73915 -5.800529,-0.82522 0.149796,0.0394 0.242495,0.0762 0.21339,0.1089 -0.477961,-0.10904 -0.479427,-0.13311 -0.21339,-0.1089 -2.846017,-0.48196 -4.67189,-1.13083 -7.104151,-2.23775 -0.09379,-0.038 -0.183667,-0.0795 -0.270669,-0.12401 -2.136894,-1.99721 -2.982029,-5.11832 -3.085013,-5.98371 -0.692935,-4.1145 -0.104778,-8.14504 1.128003,-12.01398 -0.637022,1.04168 0.263137,-2.21798 0.806345,-3.67482 0.278587,-1.16621 2.49458,-5.56109 2.441068,-4.57118 0.139854,-1.42388 3.243263,-4.75912 4.384859,-4.39179 0.938157,-0.30971 3.740579,-3.76904 6.103932,-4.64545 -1.963724,0.56939 3.439123,-1.3476 1.173951,-0.50043 5.774436,-2.2777 12.019709,-3.95984 18.204784,-3.95367 8.980132,-0.57808 11.595089,0.15808 17.495365,0.34558 2.88951,0.64793 5.226865,0.92207 8.227478,1.20612 3.353559,0.38134 7.618919,1.42185 11.110309,1.40689 3.580027,-0.0296 15.066077,0.0989 20.235427,-0.79166 5.16935,-0.89054 48.55488,-13.74058 50.90045,-16.08746 2.34558,-2.34686 -2.46748,-1.64256 -5.29582,-1.73053 -8.58681,-0.26708 -22.45816,2.06469 -32.6898,3.17768 -13.60176,1.47958 -25.16722,-2.86152 -28.66388,-2.85629 -0.50679,6.4e-4 -5.295477,-0.58209 -6.286617,-1.75781 -2.09489,-0.49835 -3.94456,-0.78446 -4.62531,-1.10282 -6.524511,-1.74617 -15.089153,-3.98541 -18.102809,-4.37612 -6.874017,-0.36791 -13.7073,-1.46031 -20.589824,-1.59563 -8.536893,-0.0273 -15.294756,2.96383 -21.676299,5.52076 -3.844421,2.22082 -5.167755,1.77686 -13.472442,8.99661 -5.264704,5.93931 -9.9388603,12.96962 -9.7976343,21.08521 -0.308332,8.7784 0.163667,3.11913 0.193877,-2.36176 0.31608,2.50697 -0.354711,20.73803 0.0076,14.10319 0.47177,-14.52276 -0.09254,5.99244 0.592328,10.21308 0.849991,3.65127 1.3896243,6.21614 4.8601053,12.6554 1.28156,6.01586 13.839287,17.53183 20.102618,20.59109 0.603311,0.57715 2.841443,1.18846 2.910022,1.81789 1.983934,0.50242 2.070416,1.03292 3.404151,1.30866 -0.188857,0.13303 6.769492,2.55575 4.814782,2.02563 5.464664,1.98566 8.427988,2.33973 15.796441,3.30217 3.124152,0.7018 20.135339,-0.12632 8.195645,0.22535 -7.353866,0.096 7.595931,-0.12395 9.980807,-0.98197 -4.554098,0.53418 -4.928751,0.10175 0.21213,-0.10763 0.388051,-0.55246 6.158806,-1.1009 2.339094,-0.84663 6.579279,-0.89713 0.172462,-0.30758 4.936268,-0.9933 7.8432,-1.73559 -3.229889,0.55999 2.80994,-0.92531 7.29643,-1.28351 -1.97435,0.19201 5.16981,-1.37664 -0.40737,0.30802 9.898567,-4.03825 13.840687,-5.23653 -4.36013,1.10878 1.10184,-0.45348 3.13662,-1.40434 -3.26174,1.18767 5.37495,-2.26786 5.34291,-2.60725 5.94448,-2.29399 5.63398,-1.7931 8.13522,-3.66475 0.89844,-0.56953 3.20108,-1.38889 3.54011,-1.66746 3.3203,-1.54967 2.17833,-0.44194 5.41907,-2.3265 -0.6201,0.33046 -0.18281,-0.20152 2.62991,-1.64039 -0.99554,0.37793 2.07701,-1.17813 5.1761,-3.01577 4.7507,0.0389 3.71399,-3.24459 6.93042,-3.9606 4.46965,-1.68955 2.02866,-1.50406 6.91405,-2.78413 -5.13029,1.17752 2.08232,-0.67786 3.17125,-1.73165 -4.9469,1.89391 -0.52781,-0.0435 1.73291,-0.82838 1.25684,-0.69387 1.37762,-1.11002 7.35279,-3.1895 -3.69776,0.43107 4.52335,-1.24199 8.59977,-3.47213 1.31308,-0.48193 1.54783,-1.15917 4.84059,-1.35147 -5.06663,0.37176 6.12537,-1.03982 3.2065,-0.95553 -3.43311,1.26986 7.15475,-3.01719 7.36601,-3.41107 6.48126,-4.29007 -2.13988,1.29136 0.73017,-0.78431 6.42344,-3.64586 0.66768,-0.83359 5.60917,-3.09949 11.58789,-2.89939 23.79233,-1.26757 35.16007,1.11855 10.52115,3.56383 -1.61155,-0.61985 -5.83514,-1.03798 0.81783,0.33651 13.49178,2.49743 16.91437,6.8127 4.50671,3.65331 4.51591,2.87975 6.62387,6.14863 -0.10181,-0.46574 1.08572,0.21489 2.17165,3.79189 0.17989,-0.0105 2.90953,2.25024 -0.47461,6.89265 -5.92305,4.91556 -7.92031,5.02857 -11.88872,6.41993 2.37127,-0.2993 -5.28767,1.97877 -11.03517,2.66138 -0.002,0.32979 0.63436,0.41349 2.69789,-0.21402 -6.68189,2.18181 -0.18892,-2.3114 2.13578,-3.62195 1.06014,-1.33473 -0.74756,-1.18691 -2.96794,-0.65779 7.8822,-2.46599 -5.96783,1.55087 -8.97931,1.96583 -6.11467,3.69518 -0.19897,-0.0539 -6.13416,3.62824 -31.50797,4.07777 -64.01976,6.29149 -89.97263,17.02393 -6.26099,-0.62269 1.33981,9.74331 -0.11959,6.46335 6.30671,4.41563 10.58604,5.60827 16.51719,7.06638 l 1.99477,0.3374 c 27.81938,8.68267 44.17112,6.48771 75.42951,5.06594 13.90984,0.95518 17.37623,13.42366 17.82207,13.48001 l -6.5e-4,-6.5e-4 1.19599,0.14603 0.0339,9.4e-4 c 0.005,-0.73056 0.91959,-2.07709 3.80765,-0.97441 -0.35056,2.88701 2.50562,-6.27114 1.70207,-3.86304 -1.66593,-3.77122 -10.35947,-5.81159 -10.65119,-7.8337 -1.68042,-2.06474 -2.14276,-2.5713 -2.13325,-2.49456 -0.28542,-0.39369 -0.59527,-0.82045 -1.10598,-1.51577 1.73206,-1.36913 12.35314,-0.74291 16.65315,-3.26818 -7.21541,2.13278 -5.1172,0.79322 0.94734,-0.18633 2.01957,-1.32404 1.75955,-1.04757 6.70633,-2.45994 -1.84642,0.0836 2.4367,-0.6496 4.6549,-1.91106 -1.76078,0.43687 1.3923,-0.60775 4.71029,-2.44988 -0.35355,-0.56158 2.50052,-1.1352 1.46289,-1.09464 6.69125,-2.9291 12.34006,-9.47015 15.663,-14.84155 4.96671,-7.07825 -1.45932,2.16245 -0.58541,1.16955 3.20937,-4.56335 4.94191,-7.55561 6.10456,-11.33794 -0.14384,1.03628 0.80994,-1.27333 0.91084,-3.78498 0.18954,2.68072 0.9724,-8.23808 0.73395,-3.35379 0.13187,1.86412 1.01656,-13.85663 -1.52519,-18.48866 -0.55143,-2.58192 -1.29327,-3.33802 -1.98284,-4.85192 -1.20745,-3.39548 -7.31835,-10.99117 -12.39984,-14.66782 -4.0823,-2.99989 -1.12594,-0.58348 -6.204,-4.48306 6.43804,4.77795 -2.50772,-2.36468 -2.56571,-1.16198 -0.51617,-0.86813 -3.226,-0.97474 -8.19249,-4.24639 2.67854,1.66614 -0.46438,-0.68361 -4.00781,-3.13095 0.93298,0.7031 2.18671,1.6848 3.55585,2.82692 -0.48906,-0.3321 -0.99066,-0.68346 -1.52142,-1.07953 -2.15122,-1.63635 -3.17013,-2.45573 -3.43247,-2.70292 -2.7972,-1.8908 -5.35701,-3.49273 -4.93691,-2.80679 -0.92367,-0.855 -9.63842,-4.55101 -14.93093,-5.45873 -11.67785,-2.15968 -2.04111,-0.91188 4.36661,0.98196 -12.02322,-3.86591 -25.02784,-4.11257 -37.45258,-2.45869 -14.53919,2.66292 2.53559,-0.48033 7.92308,-0.68234 -0.90442,0.33319 -17.0449,1.9073 -23.85738,4.03424 -12.52629,3.56366 1.52429,-0.32282 6.60876,-1.34328 1.6875,0.0356 -12.70501,2.86065 -16.57446,4.4327 9.93801,-2.73568 -13.16336,3.84244 -1.01533,0.46203 -5.41739,1.98432 -4.54277,1.16313 -9.50871,3.1467 7.50326,-2.14149 -4.62824,1.40606 -7.89287,3.21468 2.54492,-0.75287 1.48,-0.36455 -2.66957,1.15067 2.33639,-0.69792 -8.03279,3.58287 -2.03443,1.12737 -4.13949,2.03026 -5.50514,2.35332 -6.61758,3.11271 m 87.06013,48.76405 c -0.59603,0.17938 -1.16292,0.35622 -1.63914,0.51113 -9.0487,2.09758 -4.16268,0.55631 1.63914,-0.51113 z"
       id="path1136"
       inkscape:connector-curvature="0"
       sodipodi:nodetypes="ccccccccccccccccccccccccccccccccccccccccccccccccccccccccccczzsssccccccccccccccccccccccccccccccccccccccccccccccccccccccccccccccccccccccccccccccccccccccccccccccccccccccccccccc" />
  </g>
</svg>
