<?xml version="1.0" encoding="UTF-8" standalone="no"?>
<!-- Created with Inkscape (http://www.inkscape.org/) -->

<svg
   xmlns:dc="http://purl.org/dc/elements/1.1/"
   xmlns:cc="http://creativecommons.org/ns#"
   xmlns:rdf="http://www.w3.org/1999/02/22-rdf-syntax-ns#"
   xmlns:svg="http://www.w3.org/2000/svg"
   xmlns="http://www.w3.org/2000/svg"
   xmlns:sodipodi="http://sodipodi.sourceforge.net/DTD/sodipodi-0.dtd"
   xmlns:inkscape="http://www.inkscape.org/namespaces/inkscape"
   width="297mm"
   height="210mm"
   viewBox="0 0 297 210"
   version="1.1"
   id="svg8"
   inkscape:version="0.92.3 (unknown)"
   sodipodi:docname="Mus_musculus.svg">
  <defs
     id="defs2" />
  <sodipodi:namedview
     id="base"
     pagecolor="#ffffff"
     bordercolor="#666666"
     borderopacity="1.0"
     inkscape:pageopacity="0.0"
     inkscape:pageshadow="2"
     inkscape:zoom="0.35"
     inkscape:cx="-110"
     inkscape:cy="560"
     inkscape:document-units="mm"
     inkscape:current-layer="layer1"
     showgrid="false"
     inkscape:window-width="2495"
     inkscape:window-height="1416"
     inkscape:window-x="65"
     inkscape:window-y="24"
     inkscape:window-maximized="1" />
  <metadata
     id="metadata5">
    <rdf:RDF>
      <cc:Work
         rdf:about="">
        <dc:format>image/svg+xml</dc:format>
        <dc:type
           rdf:resource="http://purl.org/dc/dcmitype/StillImage" />
        <dc:title></dc:title>
      </cc:Work>
    </rdf:RDF>
  </metadata>
  <g
     inkscape:label="Layer 1"
     inkscape:groupmode="layer"
     id="layer1"
     transform="translate(0,-87)">
    <path
       style="fill:#231f20;stroke-width:0.00078943"
       d="m 217.0394,143.76755 c -1.6143,-0.01 -2.85473,1.2131 -3.47317,2.79259 -7.55639,-5.20603 -22.50295,7.6143 -10.04332,15.10709 l -2.02468,1.30948 -3.39772,1.14412 c -43.28818,-3.49895 -60.61698,19.10969 -60.20925,59.81857 -10.60119,2.69149 -20.52259,6.39223 -37.3078,-1.88413 -21.066458,-13.39019 -42.201228,-26.64607 -64.422938,0.80719 18.00842,-16.21626 37.30803,-15.47571 57.62697,0.40411 9.853668,6.79603 11.213148,5.7865 15.562358,7.53598 15.0863,3.22979 22.22142,0.26924 30.85186,-1.34566 4.62104,1.68218 8.63039,2.69127 12.16412,3.36414 0,0 15.15442,5.65237 23.03736,6.93084 2.92211,0.40373 5.23265,-0.26948 8.76638,0.20154 5.02877,0.74016 7.95113,-0.13461 10.73733,-0.94206 0.20387,-1.14388 -3.87379,-2.35505 -8.97051,-3.22978 -0.74752,-0.0673 -7.06727,-0.60513 -7.06727,-0.60513 -2.58234,-0.26915 -5.16499,-0.87496 -7.47551,-2.75901 -1.49504,-1.27846 -0.47545,-1.7493 0.34003,-2.35489 4.21329,-2.08591 7.81492,-4.84483 12.02821,-6.99802 7.61111,-7.33433 15.15419,-12.71726 22.01777,-3.90261 9.51389,15.4761 7.54314,11.16938 10.12548,13.7263 0.74752,0.13457 3.05816,0.26958 5.09685,-0.26872 -0.33978,-1.41304 -0.95149,-1.81694 -5.64048,-3.43183 -4.89285,-13.79392 -0.47548,-16.2838 1.4273,-21.73408 2.19828,-2.86731 5.86218,-8.70644 5.86217,-8.70644 0,0 6.76985,0.89451 7.35615,-0.12971 -0.17776,-1.67828 0.0146,-2.15428 -3.90364,-5.21725 3.14882,-4.65857 7.09345,-9.1693 13.58625,-13.3997 1.77274,-0.47017 3.52662,-1.01516 5.24361,-1.69086 -3.19849,7.82102 -3.20957,7.84849 0.005,-0.002 5.653,-2.22552 10.90178,-5.88665 15.07092,-13.11083 0.40773,-1.95133 4.21326,-3.97001 -8.76639,-6.72879 -2.78621,-3.22979 -11.28059,-5.24829 -25.41551,-6.19032 -0.34677,-0.013 -0.6918,-0.0324 -1.03611,-0.0517 -2.8519,-6.29008 -5.62538,-8.44592 -7.75146,-8.45891 z m 20.12694,16.02383 c 0.75511,-0.001 1.49605,0.30077 2.01745,0.82217 0.92693,1.15866 0.69542,2.78085 -0.23151,3.70778 l -0.23151,0.46302 c -1.15867,0.92694 -2.78085,0.69565 -3.70779,-0.46302 -0.92693,-1.15866 -0.69542,-2.78085 0.23151,-3.70778 l 0.23203,-0.23203 c 0.50692,-0.40553 1.10251,-0.58935 1.68982,-0.59014 z"
       id="path4509"
       inkscape:connector-curvature="0"
       sodipodi:nodetypes="ccccccccccccccccccccccccccccccccccccccccsscc" />
  </g>
</svg>
