<?xml version="1.0" encoding="UTF-8" standalone="no"?>
<!-- Created with Inkscape (http://www.inkscape.org/) -->

<svg
   xmlns:dc="http://purl.org/dc/elements/1.1/"
   xmlns:cc="http://creativecommons.org/ns#"
   xmlns:rdf="http://www.w3.org/1999/02/22-rdf-syntax-ns#"
   xmlns:svg="http://www.w3.org/2000/svg"
   xmlns="http://www.w3.org/2000/svg"
   xmlns:sodipodi="http://sodipodi.sourceforge.net/DTD/sodipodi-0.dtd"
   xmlns:inkscape="http://www.inkscape.org/namespaces/inkscape"
   width="297mm"
   height="210mm"
   viewBox="0 0 297 210"
   version="1.1"
   id="svg8"
   inkscape:version="0.92.3 (unknown)"
   sodipodi:docname="Nothobranchius_furzeri.svg">
  <defs
     id="defs2" />
  <sodipodi:namedview
     id="base"
     pagecolor="#ffffff"
     bordercolor="#666666"
     borderopacity="1.0"
     inkscape:pageopacity="0.0"
     inkscape:pageshadow="2"
     inkscape:zoom="0.93990079"
     inkscape:cx="489.33298"
     inkscape:cy="457.03605"
     inkscape:document-units="mm"
     inkscape:current-layer="layer1"
     showgrid="false"
     inkscape:window-width="2008"
     inkscape:window-height="888"
     inkscape:window-x="99"
     inkscape:window-y="90"
     inkscape:window-maximized="0" />
  <metadata
     id="metadata5">
    <rdf:RDF>
      <cc:Work
         rdf:about="">
        <dc:format>image/svg+xml</dc:format>
        <dc:type
           rdf:resource="http://purl.org/dc/dcmitype/StillImage" />
        <dc:title />
      </cc:Work>
    </rdf:RDF>
  </metadata>
  <g
     inkscape:label="Layer 1"
     inkscape:groupmode="layer"
     id="layer1"
     transform="translate(0,-87)">
    <path
       style="fill:#000000;stroke-width:0.99999994"
       d="m 174.04345,243.12567 c -10.11146,-2.27537 -16.33223,-6.59383 -21.50655,-14.92989 -2.40072,-3.86769 -6.31937,-17.16301 -6.31937,-17.16301 0,0 -4.33376,1.47022 -9.46376,1.54428 -3.74488,0.0541 -8.00704,-1.37969 -10.85739,-0.99257 -0.60147,0.0994 2.49642,4.80779 1.77994,4.88171 -2.05461,0.21195 -4.14017,-5.30533 -4.96466,-4.87564 -0.9845,1.08786 2.19504,7.6301 1.50113,7.5432 -0.51598,-0.0646 -1.49726,-0.74249 -1.84268,-1.89166 -2.16183,-7.19207 -3.48229,-5.66658 -8.64627,-6.39783 -2.87646,3.33397 3.88529,13.08622 -4.37764,10.68995 -5.01374,-0.9069 -6.81181,-4.03318 -10.984465,-3.0397 -3.180044,0.75715 -4.008354,-0.81413 -5.106804,-5.19066 -0.95067,-3.78773 -2.51983,-4.19519 -7.12595,-1.85034 -2.12213,1.08031 -5.73473,2.52473 -8.02799,3.20979 -6.389238,1.90869 -16.146043,-0.8218 -25.433866,-7.11777 -4.005787,-2.71542 -7.743228,-4.93712 -8.305419,-4.93712 -0.562195,0 -3.39337,-1.82937 -6.291507,-4.06527 -5.37126,-4.14389 -9.129742,-10.00519 -7.851514,-12.2443 6.695512,-11.72882 27.863004,-23.69266 47.295269,-26.73124 3.451917,-0.53977 6.696697,-1.24126 7.210597,-1.55887 0.51391,-0.31761 6.71645,-1.26494 13.78343,-2.10515 12.731859,-1.51375 22.865349,-1.33718 35.875719,0.62509 2.87341,0.43338 5.35439,0.90993 7.04404,0.54577 1.6322,-0.35179 2.48606,-1.5147 4.4729,-2.77158 3.04753,-1.71993 7.12849,-4.39773 9.06877,-5.95067 1.94029,-1.55295 6.23586,-3.52384 9.5457,-4.37976 3.30985,-0.85592 8.23065,-2.2894 10.9351,-3.1855 6.64346,-2.20127 18.98286,-1.22664 25.51835,2.01558 2.56786,1.27389 7.60255,3.11024 11.18822,4.08078 8.03404,2.1746 15.50692,6.10571 17.55835,9.23661 0.85806,1.30957 2.24094,3.62047 2.24094,3.62047 0,0 5.18574,-1.68901 8.40885,-2.86643 6.07884,-2.22063 17.06678,-2.20139 20.48127,0.0358 1.45767,0.9551 3.56454,3.80329 4.68191,6.32928 2.25106,5.08889 2.58752,2.84071 -3.34027,22.31862 -1.89985,6.24265 -2.79072,12.30782 -4.83408,32.91173 -0.50955,5.13789 -1.4644,9.98982 -2.12188,10.78205 -4.6106,5.55541 -24.61148,-5.28046 -39.61697,-21.46326 -3.62283,-3.90709 -7.22125,-5.83509 -7.22125,-5.83509 0,0 -0.76988,-0.76204 0.70737,3.94301 1.47725,4.70505 3.37163,9.28076 2.03725,16.35267 -1.59096,8.43176 -5.43211,14.09405 -12.4391,18.33661 -6.67283,4.04023 -14.43575,4.84002 -24.65572,2.54023 z"
       id="path826"
       inkscape:connector-curvature="0"
       sodipodi:nodetypes="cccscscssccssccssccscccccsscccccsccscccczsscc" />
  </g>
</svg>
