<?xml version="1.0" encoding="UTF-8" standalone="no"?>
<!-- Created with Inkscape (http://www.inkscape.org/) -->

<svg
   xmlns:dc="http://purl.org/dc/elements/1.1/"
   xmlns:cc="http://creativecommons.org/ns#"
   xmlns:rdf="http://www.w3.org/1999/02/22-rdf-syntax-ns#"
   xmlns:svg="http://www.w3.org/2000/svg"
   xmlns="http://www.w3.org/2000/svg"
   xmlns:sodipodi="http://sodipodi.sourceforge.net/DTD/sodipodi-0.dtd"
   xmlns:inkscape="http://www.inkscape.org/namespaces/inkscape"
   id="svg4094"
   sodipodi:docname="Orcinus_orca.svg"
   viewBox="0 0 1122.5196 793.70082"
   version="1.1"
   inkscape:version="0.92.3 (2405546, 2018-03-11)"
   width="297mm"
   height="210mm">
  <defs
     id="defs4096" />
  <sodipodi:namedview
     id="base"
     bordercolor="#666666"
     inkscape:pageshadow="2"
     inkscape:window-y="27"
     pagecolor="#ffffff"
     inkscape:window-height="1025"
     inkscape:window-maximized="1"
     inkscape:zoom="0.53168651"
     inkscape:window-x="55"
     showgrid="false"
     borderopacity="1.0"
     inkscape:current-layer="layer1"
     inkscape:cx="427.72251"
     inkscape:cy="396.85039"
     inkscape:window-width="1865"
     inkscape:pageopacity="0.0"
     inkscape:document-units="px"
     units="mm" />
  <g
     id="layer1"
     inkscape:label="Layer 1"
     inkscape:groupmode="layer"
     transform="translate(-3.5234,494.3858)">
    <path
       style="fill:#000000;fill-opacity:1;stroke:#000000;stroke-width:1.60890746px"
       d="m 667.50064,-315.82756 c -1.83728,0.19599 -3.51273,0.66339 -5.01418,1.41077 -6.53323,16.08198 55.79499,108.44297 18.38089,162.88515 -0.45076,0.0747 -0.90211,0.14689 -1.35277,0.22209 l -0.01,-0.56591 -18.29733,2.72915 c -10.28101,1.79125 -28.75272,6.35506 -40.07925,8.85158 l -12.85762,3.04413 c -40.86295,9.23705 -81.50278,20.31865 -122.26691,32.58322 -24.70518,7.267133 -46.88634,14.210763 -60.67601,19.222013 -0.51262,0.18638 -1.13492,0.44009 -1.66372,0.63614 -90.78304,32.80225 -173.5019,91.8241191 -267.62101,112.77414 l -35.59204,7.923871 C 119.96592,35.595706 70.961756,6.0259111 56.299582,20.870982 c -3.847253,0.92066 23.443798,5.520817 28.187914,17.758442 -6.022976,1.345069 -10.545441,3.669025 -10.425119,7.701497 2.633441,1.223446 5.404097,2.321909 8.280318,3.322757 -0.502152,0.350008 -0.878816,0.721147 -1.092765,1.107442 0.385817,0.914738 -0.149962,2.600842 -1.292396,4.789588 -10.539033,16.627824 -41.580182,49.711442 -33.549439,48.273612 18.719579,4.33113 54.520035,-29.621248 71.489875,-47.134616 69.3783,6.248491 167.77616,-17.069139 217.96281,-13.002811 146.36245,1.510275 294.6698,4.859296 439.62157,-14.38227 -7.3989,11.475164 -11.19201,23.747813 -7.67977,42.989196 4.24869,23.277657 3.47628,50.854281 27.01277,48.422431 49.10635,-5.07344 81.56595,-66.550117 100.18324,-111.0610319 59.3489,-6.385521 99.0435,4.1640939 165.93131,-39.0902511 6.6645,-4.309098 25.2146,-25.124523 23.4072,-33.397196 -1.1058,-5.061152 -6.0702,-10.159828 -10.4457,-15.042248 -0.3622,-0.50262 -0.7251,-1.00808 -1.0788,-1.53371 -2.6611,-3.95536 -5.0309,-8.41072 -6.4007,-11.09996 0,0 -4e-4,-0.003 -4e-4,-0.003 -0.047,-0.0924 -0.1011,-0.17412 -0.1484,-0.26601 -3.6957,-7.19046 -8.0532,-13.095653 -14.149,-18.867043 -6.8794,-7.1592 -12.9757,-11.17652 -12.9757,-11.17652 -0.9838,-0.51571 -2.0247,-1.02439 -3.053,-1.53556 -1.0356,-0.73774 -2.0473,-1.43979 -3.0264,-2.09028 -3.951,-2.81595 -5.6622,-3.83383 -8.5653,-5.01596 -2.9859,-1.50079 -5.9894,-2.76504 -9.3082,-3.99489 -20.94611,-7.76331 -49.94059,-14.84218 -82.4655,-20.74328 -34.84352,-7.08201 -69.11736,-11.36604 -92.24909,-11.28667 -1.06112,0.004 -2.11685,0.0256 -3.17689,0.033 -9.93557,-0.22876 -20.53401,-0.1384 -32.54573,0.30027 l 5.02228,-0.56272 C 758.76978,-260.50255 695.05978,-318.76798 667.50064,-315.82756 Z m -559.69335,352.78744 12.24614,-0.981759 -3.83464,0.852969 c -0.8924,0.137564 -1.68978,0.244514 -2.51375,0.359333 -0.79893,-0.05132 -2.74592,-0.162409 -5.89774,-0.230503 z"
       id="path4104"
       inkscape:connector-curvature="0" />
  </g>
  <metadata
     id="metadata42">
    <rdf:RDF>
      <cc:Work>
        <dc:format>image/svg+xml</dc:format>
        <dc:type
           rdf:resource="http://purl.org/dc/dcmitype/StillImage" />
        <cc:license
           rdf:resource="http://creativecommons.org/publicdomain/zero/1.0/" />
        <dc:publisher>
          <cc:Agent
             rdf:about="http://openclipart.org/">
            <dc:title>Openclipart</dc:title>
          </cc:Agent>
        </dc:publisher>
        <dc:title></dc:title>
        <dc:date>2010-04-15T04:34:28</dc:date>
        <dc:description>An orca whale (well, technically it's from the dolphin family, actually). Drawn in Inkscape.</dc:description>
        <dc:source>https://openclipart.org/detail/47185/orca-by-j_alves</dc:source>
        <dc:creator>
          <cc:Agent>
            <dc:title>J_Alves</dc:title>
          </cc:Agent>
        </dc:creator>
        <dc:subject>
          <rdf:Bag>
            <rdf:li>Orcinus orca</rdf:li>
            <rdf:li>dolphin</rdf:li>
            <rdf:li>killer whale</rdf:li>
            <rdf:li>orca</rdf:li>
            <rdf:li>orca whale</rdf:li>
          </rdf:Bag>
        </dc:subject>
      </cc:Work>
      <cc:License
         rdf:about="http://creativecommons.org/publicdomain/zero/1.0/">
        <cc:permits
           rdf:resource="http://creativecommons.org/ns#Reproduction" />
        <cc:permits
           rdf:resource="http://creativecommons.org/ns#Distribution" />
        <cc:permits
           rdf:resource="http://creativecommons.org/ns#DerivativeWorks" />
      </cc:License>
    </rdf:RDF>
  </metadata>
</svg>
