<?xml version="1.0" encoding="UTF-8" standalone="no"?>
<!-- Created with Inkscape (http://www.inkscape.org/) -->

<svg
   xmlns:dc="http://purl.org/dc/elements/1.1/"
   xmlns:cc="http://creativecommons.org/ns#"
   xmlns:rdf="http://www.w3.org/1999/02/22-rdf-syntax-ns#"
   xmlns:svg="http://www.w3.org/2000/svg"
   xmlns="http://www.w3.org/2000/svg"
   xmlns:sodipodi="http://sodipodi.sourceforge.net/DTD/sodipodi-0.dtd"
   xmlns:inkscape="http://www.inkscape.org/namespaces/inkscape"
   version="1.2"
   width="297mm"
   height="210mm"
   viewBox="0 0 1122.5197 793.70079"
   id="Layer_2"
   xml:space="preserve"
   sodipodi:docname="Pan_troglodytes.svg"
   inkscape:export-filename="/home/mjeltsch/Documents/Informatics/Phylogeny2/new/Pan_troglodytes2.png"
   inkscape:export-xdpi="85.513329"
   inkscape:export-ydpi="85.513329"
   inkscape:version="0.92.3 (unknown)"><metadata
   id="metadata8"><rdf:RDF><cc:Work
       rdf:about=""><dc:format>image/svg+xml</dc:format><dc:type
         rdf:resource="http://purl.org/dc/dcmitype/StillImage" /><dc:title /></cc:Work></rdf:RDF></metadata><sodipodi:namedview
   pagecolor="#ffffff"
   bordercolor="#666666"
   borderopacity="1"
   objecttolerance="10"
   gridtolerance="10"
   guidetolerance="10"
   inkscape:pageopacity="0"
   inkscape:pageshadow="2"
   inkscape:window-width="2495"
   inkscape:window-height="1416"
   id="namedview6"
   showgrid="false"
   units="mm"
   inkscape:zoom="0.53272727"
   inkscape:cx="-60.068261"
   inkscape:cy="200"
   inkscape:window-x="65"
   inkscape:window-y="24"
   inkscape:window-maximized="1"
   inkscape:current-layer="Layer_2" /><defs
   id="defs9" />
    
    
    
    <path
   d="m 919.08984,127.17023 c 5.7369,12.30312 8.81164,20.69802 9.22631,25.19092 0.34417,3.38574 0.10366,9.88354 -0.72774,19.48927 0,14.72062 -3.24683,27.02166 -9.74256,36.90521 -6.29047,9.60572 -17.45119,20.28335 -33.48422,32.03289 -0.27783,1.03667 -0.55358,2.07333 -0.82933,3.10999 0.48308,1.38291 1.1424,3.14524 1.96966,5.28698 l -0.20733,0.41467 c -1.93649,-0.0684 -2.10858,-0.31101 -0.51834,-0.72567 -0.27782,-0.48308 -0.86457,-1.51974 -1.76439,-3.10998 -0.0684,0.27574 -0.13685,0.58675 -0.20733,0.933 0,0.27574 0,0.55357 0,0.82932 l 0.10366,0.10366 -0.10366,0.10367 c 0,0.48309 0.0353,1.00142 0.10366,1.55499 0.62199,1.866 1.14032,3.21367 1.55499,4.043 l -0.20733,0.41466 c -0.34624,-0.34624 -0.79615,-0.933 -1.34766,-1.76232 0,0.27575 0,0.51833 0,0.72566 0.34625,1.31241 0.51833,2.21016 0.51833,2.69532 v 0.72567 c -0.0684,-0.0684 -0.13684,-0.0684 -0.20733,0 h -0.311 c -0.34417,-1.17558 -0.82726,-2.69532 -1.45134,-4.56132 -0.20733,0.76091 -0.41259,1.55499 -0.62199,2.38432 0.41466,1.244 0.86457,2.59166 1.34766,4.04299 0,0.89982 -0.0684,1.14033 -0.2094,0.72567 h -0.622 c -0.41467,-0.82934 -0.82726,-1.65867 -1.244,-2.488 -0.2094,0.69042 -0.41466,1.38292 -0.62199,2.07333 0.69042,2.07333 1.14033,3.49148 1.34559,4.25032 l -0.20734,0.311 c -0.48308,-0.89775 -1.00142,-1.90124 -1.555,-3.00632 -0.48307,1.45133 -0.93299,2.8674 -1.34766,4.25032 0.41467,1.72707 0.76092,3.21365 1.03667,4.45764 h -0.51833 c -0.34417,-1.03666 -0.65517,-2.03808 -0.933,-3.00632 -0.55358,1.51975 -1.07191,2.97316 -1.55499,4.35398 0.62406,2.28067 0.93299,3.59308 0.93299,3.93933 0,0.48308 -0.0353,0.72566 -0.10367,0.72566 -0.20733,-0.20734 -0.34624,-0.311 -0.41466,-0.311 -0.27575,-0.55358 -0.55358,-1.14032 -0.82725,-1.76233 l 0.93091,3.31733 -0.82311,1.03666 h -0.10366 c 0.0684,-0.13891 0.10366,-0.44992 0.10366,-0.93299 -0.27783,-0.89775 -0.58675,-1.79758 -0.933,-2.69533 -0.34624,0.76091 -0.65517,1.51975 -0.93299,2.28065 0.27782,3.11 0.55358,5.04441 0.82933,5.80532 v 0.20733 c -0.69249,-1.10508 -1.31449,-2.28066 -1.86599,-3.52465 -0.0684,0.0705 -0.13684,0.17209 -0.20733,0.31099 0.55357,2.90267 1.31241,5.11283 2.28066,6.63465 l -0.20734,0.20734 c -0.76091,-1.244 -1.59024,-3.21366 -2.48799,-5.90899 -0.34625,0.62201 -0.65518,1.244 -0.93299,1.866 0.89982,3.45623 1.69183,6.25522 2.38432,8.39697 v 0.311 c -1.10509,-1.244 -2.24749,-3.5599 -3.42099,-6.94564 -0.0684,0.27574 -0.10367,0.58675 -0.10367,0.933 0.96824,2.62689 2.24542,6.35681 3.83566,11.19595 l -0.311,0.51834 c -1.79758,-3.38574 -3.24683,-6.18473 -4.35606,-8.39698 -0.0684,0 -0.10367,0.0684 -0.10367,0.20733 0.82934,3.11 1.86599,7.15299 3.10999,12.12896 l -0.20733,0.20734 c -1.1735,-2.21224 -2.41957,-5.28698 -3.73199,-9.2263 -0.2094,0.48308 -0.38148,0.96824 -0.51833,1.45133 2.14175,6.21997 3.38575,9.60571 3.73199,10.15929 v 0.20734 c -1.45133,-1.59024 -3.07475,-3.8709 -4.87439,-6.84198 0,0.0684 -0.0353,0.17209 -0.10367,0.311 0.0684,0.13684 0.13684,0.27575 0.20941,0.41467 3.03949,5.18331 4.80182,8.77639 5.28698,10.78129 -1.65866,-2.07332 -3.69674,-5.14807 -6.11631,-9.2263 -0.13684,0.34624 -0.27783,0.72567 -0.41467,1.14033 0.96825,1.51974 2.10858,3.42099 3.42099,5.70164 v 0.31101 c -0.82933,-0.69042 -1.72915,-1.59024 -2.69532,-2.69532 0.48308,1.10508 1.10508,2.17698 1.86392,3.21365 -0.69042,-0.48309 -1.38084,-1.62342 -2.07333,-3.42099 -0.20733,-0.27575 -0.41467,-0.51833 -0.622,-0.72566 0,0.13891 0,0.31099 0,0.51832 1.65866,3.59308 2.90266,6.11632 3.73199,7.56765 l -0.20733,0.20733 c -1.03666,-1.10508 -2.03808,-2.3159 -3.00633,-3.62832 0.13684,1.17558 0.20733,2.03808 0.20733,2.59165 0,0.48309 0,0.89775 0,1.244 0.89983,1.866 1.90125,3.97457 3.00633,6.32365 l -0.20733,0.20733 c -1.59024,-2.00491 -3.28415,-4.59656 -5.07965,-7.77498 0.69042,3.73199 1.20875,6.6699 1.55499,8.81164 0.55358,2.07334 1.10509,4.31875 1.65866,6.73831 0,0.48309 -0.0684,0.76091 -0.20733,0.82934 -0.2094,0.0684 -0.38149,0.13891 -0.51833,0.20733 h -0.10366 c 0.0684,-0.0684 0.10366,-0.41466 0.10366,-1.03667 0,-0.27574 -0.44991,-1.65865 -1.34766,-4.14665 -0.0684,-0.20733 -0.13684,-0.37942 -0.20734,-0.51832 0.13684,0.89774 0.30893,1.6939 0.51834,2.38431 v 0.20734 c -0.48309,-1.45133 -0.933,-3.04158 -1.34766,-4.76865 -0.55358,-1.38291 -1.17351,-2.93791 -1.86392,-4.66499 -0.27783,-0.62199 -0.51834,-1.244 -0.72774,-1.86599 -0.0684,0.13891 -0.13685,0.34625 -0.20733,0.62199 1.65865,6.21999 3.55989,11.57538 5.70164,16.06829 0,0.20733 -0.27783,0.37941 -0.82933,0.51833 -0.622,-0.69042 -1.27717,-1.62341 -1.96966,-2.79899 0.62408,2.48799 0.933,4.4224 0.933,5.80531 v 0.82933 c -0.0684,0 -0.13684,0.0353 -0.20734,0.10367 -0.55358,-0.13892 -1.00142,-0.311 -1.34766,-0.51833 l 1.03666,-0.20734 c -0.96824,-2.07332 -2.10857,-4.76864 -3.41891,-8.08597 0.20733,1.31242 0.30893,2.34908 0.30893,3.10999 0,1.51975 0.55357,3.76723 1.65866,6.73831 l -0.10367,1.03667 h -0.51833 c -0.13684,-0.27576 -0.27576,-0.55359 -0.41467,-0.82933 0.13891,0.82933 0.27783,1.65865 0.41467,2.48799 0,0.76091 -0.0684,1.24399 -0.20733,1.45133 h -0.31101 c 0.48309,1.17558 1.00142,2.3159 1.555,3.42098 l -0.20733,0.20734 c -0.622,-1.244 -1.21082,-2.45274 -1.7644,-3.62832 0.13892,0.89775 0.27782,1.79757 0.41466,2.69532 v 0.82933 c -0.0684,0 -0.13684,0.0353 -0.20733,0.10367 h -0.31099 c -0.20734,-0.55359 -0.41468,-1.10508 -0.62201,-1.65867 v 0.10367 c 0.75884,2.83423 1.14033,4.45765 1.14033,4.87232 v 0.72567 c -0.0684,-0.20734 -0.13684,-0.27576 -0.20733,-0.20734 h -0.51833 c 0,-0.13891 0,-0.44992 0,-0.933 -0.89983,-2.14174 -1.7644,-4.31874 -2.59165,-6.53097 -0.89984,-1.45133 -1.72916,-3.04157 -2.488,-4.76866 -0.13684,2.34908 -0.27782,4.80182 -0.41467,7.36031 0,0.20734 -0.0684,0.37942 -0.20733,0.51833 -0.41466,-3.59307 -0.65517,-7.25664 -0.72774,-10.98862 -0.0684,-0.20734 -0.13683,-0.3815 -0.20733,-0.51833 v 0.10366 c 0.0684,3.04157 0.10367,6.5994 0.10367,10.67763 0,0.27575 0,0.58675 0,0.93299 0.20941,1.51976 0.38149,2.76375 0.51833,3.73199 0.13684,0.76092 0.24258,1.34766 0.311,1.76234 -0.41466,-1.03667 -0.79616,-2.14175 -1.14033,-3.31733 -0.0705,0.20733 -0.13892,0.44991 -0.2094,0.72567 h -0.51834 l -0.30893,-3.93932 c -0.13891,-0.62201 -0.27782,-1.20876 -0.41466,-1.76234 l -0.311,6.73831 c 0.48308,1.866 1.00142,3.59308 1.555,5.18332 -1.1735,-2.41957 -2.21017,-5.07965 -3.10999,-7.98231 -0.13684,1.65867 -0.24051,3.2489 -0.30892,4.76866 0.62199,2.21016 1.24399,4.14665 1.86391,5.80531 l -0.20733,0.20733 c -0.622,-1.31241 -1.21083,-2.73056 -1.7644,-4.25032 -0.13684,1.10717 -0.24051,2.10858 -0.30893,3.00633 h -0.31099 l -0.10367,-4.97598 c -0.0684,-0.13892 -0.13684,-0.27576 -0.20733,-0.41467 -0.0705,4.76865 -0.20941,8.46539 -0.41467,11.0923 h -0.311 l -0.20733,-13.16563 c -0.27783,0.55358 -0.51834,1.14034 -0.72774,1.76233 0,3.66357 0.13891,6.49573 0.41466,8.50064 l -0.20733,0.311 c -0.62199,-0.82934 -1.10508,-2.76374 -1.45133,-5.80532 0,0.0684 0,0.13684 0,0.20734 0.34625,5.45906 0.89983,9.74463 1.65866,12.85462 h -0.51833 c -0.48308,-1.86599 -1.00141,-5.56273 -1.55499,-11.0923 -0.13684,4.07824 -0.38149,7.94706 -0.72567,11.61063 h -0.31099 c -0.13685,-3.04157 -0.27575,-5.9774 -0.41467,-8.81164 -0.20733,0.62201 -0.44784,1.27925 -0.72566,1.96967 -0.0684,3.03949 -0.20734,6.01264 -0.41467,8.91529 0.20941,1.10509 0.55358,2.03809 1.03667,2.79899 0,0.55359 -0.17209,0.82934 -0.51834,0.82934 -0.20733,-0.55358 -0.41466,-1.20875 -0.62199,-1.96966 -0.0684,0.34625 -0.10367,0.65725 -0.10367,0.93299 h -0.311 l -0.0933,-3.21365 c -0.20734,-1.24399 -0.38149,-2.69532 -0.51833,-4.35398 -0.0684,0.27575 -0.17208,0.55358 -0.311,0.82932 0,4.70023 0.17415,8.08598 0.51833,10.15931 l -0.30893,0.72565 c -0.89982,-1.59024 -1.48657,-3.8004 -1.76439,-6.63464 -0.0684,0 -0.10367,0.0353 -0.10367,0.10367 0,0.34624 0,0.72566 0,1.14033 0.27782,1.59024 0.622,3.04157 1.03666,4.35399 l -0.20733,0.20733 c -0.34625,-0.69042 -0.622,-1.38291 -0.82933,-2.07333 -0.0684,1.10508 -0.10366,2.24541 -0.10366,3.42099 0.41466,1.93442 0.62199,3.00632 0.62199,3.21365 0,0.62201 -0.0684,1.00142 -0.20733,1.14033 -0.13684,0.13685 -0.24258,-0.0353 -0.311,-0.51832 0,-0.20733 0,-0.48309 0,-0.82934 0,-0.55357 -0.0684,-1.17558 -0.20734,-1.86599 -0.13683,2.21224 -0.311,4.4224 -0.51833,6.63465 h -0.31099 c -0.13685,-1.45133 -0.24051,-3.00633 -0.30893,-4.66499 -0.0705,0 -0.13891,0 -0.20941,0 0,-2.14175 0,-4.14665 0,-6.01264 -0.41466,1.1735 -0.82725,2.34908 -1.244,3.52465 -0.13683,0.55357 -0.27782,1.10716 -0.41466,1.65866 0.0684,1.24399 0.13684,2.55641 0.20733,3.93932 -0.20733,-0.27575 -0.44784,-1.31242 -0.72566,-3.10999 -0.27783,0.55357 -0.51833,1.14033 -0.72567,1.76232 -0.7609,4.2835 -1.17556,7.39349 -1.24606,9.32998 v 0.311 c 0.2094,0 0.38149,-0.10367 0.51832,-0.311 l 0.31101,-0.51834 c 0.13683,0.20733 0.20733,0.65517 0.20733,1.34766 l -0.20733,0.20734 -1.34766,-0.20734 c -0.0684,-1.10508 -0.13684,-2.69532 -0.20733,-4.76864 -1.59024,4.28348 -3.00633,8.2933 -4.25033,12.02529 0.55358,1.31242 1.10508,2.45482 1.65867,3.42098 v 0.20734 c -0.622,-0.96824 -1.21083,-2.03808 -1.76441,-3.21366 -2.69532,7.81023 -4.66498,14.09863 -5.90897,18.86727 -0.48309,2.00492 -0.933,4.14665 -1.34766,6.42939 l -0.10368,3.62832 c 0,8.63748 0.34625,13.71713 1.03667,15.23895 h -0.51833 c -0.20733,-0.69042 -0.41466,-3.07474 -0.622,-7.15298 -0.20733,-3.38574 -0.34625,-5.87373 -0.41467,-7.46397 v 8.39697 h -0.51832 v -6.01265 c -0.41468,2.90267 -0.75884,5.97947 -1.03667,9.2263 0,0.0684 0,0.13685 0,0.20942 h 0.311 c 0.20733,1.17349 0.55357,3.24682 1.03666,6.21997 0.20733,0.89775 0.44991,1.76233 0.72566,2.59166 v 2.48592 c 0.76092,4.90757 1.45134,8.63955 2.07333,11.19596 v 2.38432 l -0.20733,0.20734 c -1.03666,-5.7369 -1.866,-10.67764 -2.48799,-14.82429 -0.69042,-2.76374 -1.27718,-5.21855 -1.76233,-7.3603 -0.0705,0.55358 -0.10574,1.14033 -0.10574,1.76439 h 0.20941 c 0.75884,4.00775 1.45133,7.70449 2.07332,11.09231 l 0.20733,0.82932 c 0.41467,1.31242 0.69249,2.24541 0.82934,2.79899 -0.13685,-0.20733 -0.24258,-0.41466 -0.311,-0.62199 0,0.34417 0,0.79408 0,1.34559 0.34625,2.21223 0.69249,4.21714 1.03667,6.01264 0.34624,1.10508 0.69249,2.24541 1.03665,3.42099 l -0.20733,0.20733 c -0.13683,-0.48309 -0.311,-0.96824 -0.51833,-1.45133 0.82725,5.11491 1.244,8.39697 1.244,9.8483 0,0.76092 -0.0684,1.24608 -0.20733,1.45134 h -0.31101 c -0.13683,-1.3145 -0.34416,-2.86949 -0.62199,-4.66499 h -0.41466 l -0.933,-4.14665 c 0,1.1735 0,2.45481 0,3.83565 0.2094,1.24607 0.55357,3.59308 1.03666,7.04931 0.13891,0.34624 0.27782,0.69042 0.41466,1.03666 -0.13684,-0.20733 -0.27575,-0.38149 -0.41466,-0.51833 0.13891,1.31449 0.311,2.76375 0.51833,4.35399 0.69249,5.39272 1.51974,9.71146 2.48799,12.95829 l -0.20733,0.311 c -1.10508,-2.41958 -2.21016,-7.15298 -3.3194,-14.20229 -0.20733,-1.24607 -0.37941,-2.38433 -0.51833,-3.42099 0,0.48309 0,1.00142 0,1.555 0.0705,0.48308 0.13892,0.96824 0.20941,1.45133 0.48309,3.59307 0.72567,5.5648 0.72567,5.90897 0,0.76092 -0.0684,1.24607 -0.20735,1.45133 0.48309,2.14175 1.07192,4.70024 1.76234,7.67131 1.38291,6.21998 2.07332,9.74464 2.07332,10.57396 v 0.41467 c 0,0.20734 -0.0684,0.38149 -0.20733,0.51833 -0.76091,-2.76374 -1.45133,-5.49431 -2.07332,-8.18963 -0.96825,-1.65867 -1.76441,-3.45416 -2.38433,-5.39065 v 0.10366 c 0.2094,1.10509 0.44991,2.35115 0.72774,3.73198 0.89775,4.35607 1.34558,7.53448 1.34558,9.53938 0,0.622 -0.0684,1.03667 -0.20733,1.244 h -0.311 c -0.20733,-1.244 -0.72567,-3.52466 -1.55499,-6.84197 0,1.31241 -0.0684,3.00632 -0.20733,5.07965 0,1.79549 0.20733,3.38573 0.62199,4.76864 -0.27783,-1.65866 -0.44991,-2.69532 -0.51833,-3.10999 0.41467,1.72708 0.79616,3.24683 1.14034,4.56132 0.13683,0.34417 0.31099,0.65517 0.51832,0.93093 l -0.20733,0.31099 c 0,-0.0684 -0.0353,-0.10366 -0.10366,-0.10366 0.41259,1.86392 0.69042,3.10998 0.82725,3.73199 h -0.51833 c -0.34417,-1.7955 -0.622,-3.31733 -0.82726,-4.56133 -0.41466,-0.89982 -0.82933,-2.14174 -1.24607,-3.73199 v -4.87231 c -0.13683,2.83216 -0.30892,5.6664 -0.51833,8.50064 0.48308,1.17351 1.10509,2.28066 1.86599,3.31733 v 0.31099 c -0.82932,-0.69042 -1.48657,-1.55499 -1.96965,-2.59166 -0.0684,0.55358 -0.13685,1.10509 -0.20733,1.65866 0.48308,3.87091 0.93092,6.25523 1.34558,7.15298 -0.69041,-0.69042 -1.244,-2.10858 -1.65866,-4.25032 -0.13683,1.45133 -0.27783,2.90058 -0.41466,4.35399 v 0.10367 c -0.27576,2.0049 -0.51834,4.04298 -0.72567,6.1163 0.34417,1.72916 0.75883,2.90267 1.24399,3.52466 -0.55357,-0.34625 -1.03666,-1.03667 -1.45132,-2.07332 -0.20733,1.10508 -0.37942,2.2454 -0.51833,3.42098 0.34624,1.244 0.76091,2.34908 1.24607,3.31733 -0.55358,-0.69042 -1.00142,-1.51976 -1.34767,-2.48799 -0.20733,1.10508 -0.38149,2.21016 -0.51833,3.31938 0.41467,1.86393 1.21083,3.55784 2.38432,5.07758 v 0.311 c -1.31448,-0.41466 -2.21016,-1.45133 -2.69532,-3.10999 0,-0.13684 0,-0.27782 0,-0.41466 -0.13891,0.69249 -0.27782,1.3829 -0.41466,2.07332 -0.13685,0.89983 -0.27783,1.83283 -0.41466,2.80107 0.13683,0.13684 0.27781,0.30893 0.41466,0.51833 v 0.20733 c -0.2094,-0.0684 -0.3815,-0.13683 -0.51833,-0.20733 -0.27783,1.1735 -0.51834,2.4175 -0.72774,3.73199 0.27782,0.75884 0.58883,1.48658 0.93299,2.17699 l -0.20733,0.20734 c -0.34625,-0.34418 -0.65517,-0.75884 -0.93299,-1.244 -0.34625,1.65866 -0.69042,3.3505 -1.03667,5.07965 0,0.0684 0.0353,0.10367 0.10367,0.10367 -0.0684,0.0684 -0.13684,0.10366 -0.20733,0.10366 -3.24683,14.85953 -7.63814,30.37424 -13.1677,46.54618 -1.93441,5.94215 -5.42382,15.68678 -10.47029,29.2339 -4.354,12.37154 -7.25665,22.53084 -8.70798,30.4779 -0.69042,4.28349 -1.7955,9.12263 -3.31732,14.51328 -1.51975,5.66641 -3.17841,10.67763 -4.97598,15.03162 -2.55641,6.2884 -8.84689,12.7862 -18.86728,19.48926 -5.25173,3.45417 -9.60779,5.94216 -13.06195,7.46398 -2.35116,3.04157 -5.07965,6.46257 -8.18964,10.26297 -12.85462,15.54994 -22.63451,23.32492 -29.33757,23.32492 -3.24683,0 -6.39206,-0.622 -9.43363,-1.86599 -4.00982,4.00981 -8.91531,6.01264 -14.72062,6.01264 -2.97315,0 -5.56481,-0.38149 -7.77497,-1.14032 -2.90266,1.45132 -6.53098,2.17698 -10.88497,2.17698 -3.38781,0 -6.42938,-0.75883 -9.12263,-2.28065 -2.00491,-1.51975 -3.11,-2.28273 -3.31733,-2.28273 -0.82932,0 -2.28273,0.41466 -4.35605,1.24607 -2.07333,0.82725 -3.55783,1.24399 -4.45558,1.24399 -4.70024,0 -7.91182,-1.34766 -9.64098,-4.04298 -0.82725,-2.69533 -1.24399,-4.11142 -1.24399,-4.25033 0,-3.73198 3.41892,-7.98231 10.26297,-12.75095 8.0839,-5.80532 13.13037,-10.50348 15.13528,-14.09862 0.41467,-0.75884 0.86251,-1.48658 1.34559,-2.177 -2.55641,0.69042 -5.42382,1.03667 -8.60223,1.03667 -25.84816,-0.34625 -38.97853,-0.51833 -39.39321,-0.51833 -5.11489,0 -8.70796,-1.90124 -10.78129,-5.70165 -1.03667,-3.86883 -1.55499,-5.87373 -1.55499,-6.01265 0,-3.17841 0.48308,-5.21856 1.45132,-6.11423 0.76091,-0.69249 2.52116,-1.10717 5.28698,-1.24608 9.26156,-0.62199 18.24528,-3.24683 26.95324,-7.87864 12.50838,-6.63465 22.63451,-9.95196 30.37424,-9.95196 0.75884,0 1.4845,0.0353 2.17699,0.10366 4.97392,-2.6269 11.22914,-5.87373 18.7636,-9.74463 8.36173,-4.9055 13.61347,-10.05563 15.75728,-15.44628 0.34625,-1.59024 0.6925,-3.10999 1.03667,-4.55924 -2.34908,2.55641 -3.66356,4.00773 -3.93725,4.35398 h -0.311 c 0.96825,-1.45133 2.488,-3.3505 4.56132,-5.70165 0.55358,-2.28066 1.14033,-4.38716 1.76233,-6.32364 -1.38084,2.14174 -2.17699,3.38574 -2.38225,3.73199 h -0.311 c 0.62199,-1.10509 1.48658,-2.72851 2.59166,-4.87232 -1.51975,2.14174 -3.14524,4.1114 -4.87232,5.90897 h -0.311 c 1.3145,-2.07332 3.52466,-5.46113 6.63465,-10.15929 0.34624,-0.48309 0.65517,-0.93093 0.93299,-1.34559 0.13684,-1.38291 0.30893,-2.7285 0.51833,-4.04299 l -0.10366,0.10367 c -2.07332,4.14665 -3.87091,7.39348 -5.39272,9.74463 0.13683,-0.27782 1.76439,-3.59308 4.87439,-9.95196 0.27575,-0.62201 0.58674,-1.21083 0.93092,-1.76441 0,-0.20733 0,-0.37941 0,-0.51833 -1.7955,3.10999 -3.10999,5.46114 -3.93725,7.04931 l -0.311,-0.20733 c 1.65866,-3.52466 3.21366,-6.66989 4.66499,-9.43571 0.13683,-0.96617 0.27782,-1.96759 0.41466,-3.00425 -1.1735,2.4175 -2.41957,5.07757 -3.73199,7.98231 h -0.31099 c 1.59024,-4.14665 3.07474,-7.73973 4.45765,-10.78129 0.20734,-1.31243 0.41467,-2.66009 0.622,-4.043 0.0684,-0.62199 0.17208,-1.24399 0.311,-1.86392 -0.55358,1.03667 -1.03667,2.03808 -1.45133,3.00633 -0.48309,1.72708 -0.76091,3.1784 -0.82934,4.35398 h -0.51832 c 0.13684,-0.75883 0.31099,-1.55499 0.51832,-2.38432 -0.75883,1.79757 -1.27716,3.38781 -1.55499,4.77072 l -0.20733,0.20733 c -0.13684,0 -0.24258,-0.0353 -0.311,-0.10366 v -0.82934 c 0,-0.75883 0.93299,-3.14523 2.80106,-7.15297 0.55358,-2.00283 1.244,-4.1819 2.07333,-6.52891 0.13684,-0.27783 0.2405,-0.55357 0.30893,-0.82932 0.34625,-2.21017 0.72773,-4.42241 1.14033,-6.63464 -1.7955,3.93932 -3.0395,7.32713 -3.73199,10.15929 h -0.51834 c 0.0684,-0.55358 0.20942,-1.14033 0.41468,-1.76233 -0.62201,1.72708 -1.10509,3.3505 -1.45133,4.87232 h -0.51834 c 0.55358,-2.07333 1.27925,-4.45765 2.177,-7.15298 -0.62201,1.3145 -1.244,2.66008 -1.86392,4.04299 h -0.31101 c 0.48309,-1.244 1.48658,-3.3505 3.00633,-6.32365 0.55358,-1.79757 1.20875,-3.66356 1.96966,-5.59798 -2.28274,4.62974 -3.83773,7.98231 -4.66498,10.05564 -0.41467,0 -0.65517,0 -0.72774,0 -0.0684,0 -0.10367,-0.24051 -0.10367,-0.72567 0,-0.34625 1.45133,-3.24683 4.35606,-8.70797 -0.20941,0.13684 -0.34625,0.20941 -0.41467,0.20941 -0.2094,0.27575 -0.38149,0.58675 -0.51832,0.93093 l -1.34767,-0.20735 c 0.55358,-0.69041 1.10509,-1.48656 1.65866,-2.38431 0.34625,-2.00284 1.7644,-5.87374 4.25239,-11.61063 0.55358,-1.244 1.07192,-2.38433 1.55499,-3.421 0,-0.20733 0.0353,-0.41259 0.10368,-0.62199 -1.866,4.00981 -3.93932,7.77498 -6.21998,11.29962 l -0.311,-0.20733 c 2.41957,-3.80247 4.66498,-8.2933 6.73831,-13.47662 0.13683,-0.27782 0.27782,-0.62407 0.41466,-1.03666 0.20733,-0.89982 0.3815,-1.79757 0.51833,-2.6974 -0.62199,1.45133 -2.03807,4.66498 -4.25032,9.64097 l -0.31099,-0.20733 c 0.48309,-1.59024 0.933,-3.07475 1.34766,-4.45765 -0.48309,0.69041 -0.933,1.3829 -1.34766,2.07332 h -0.51833 c 0.89982,-1.59024 1.76439,-3.00632 2.59165,-4.25032 0.20941,-0.96824 0.44992,-1.83282 0.72774,-2.59166 -0.13892,0.20734 -0.27782,0.41467 -0.41466,0.622 h -0.311 c 0.34624,-0.55358 0.72773,-1.20875 1.14033,-1.96966 0.0705,-0.34417 0.1389,-0.65517 0.2094,-0.933 0.34418,-1.24399 0.72566,-2.34908 1.14033,-3.31731 -0.27783,0.41466 -0.48309,0.75883 -0.622,1.03666 h -0.82932 c 1.24606,-1.866 2.48799,-4.00982 3.73198,-6.42731 0,-0.34625 0.0705,-0.69249 0.20941,-1.03667 -0.55358,1.10508 -1.00142,2.03808 -1.34767,2.79899 h -0.51832 c 0.69249,-1.7955 1.3829,-3.49148 2.07332,-5.07965 -0.55358,0.89982 -1.07191,1.866 -1.555,2.90266 -0.55357,1.24399 -1.07191,2.48799 -1.55499,3.73199 h -0.51834 c 0.34625,-1.93649 1.07192,-4.38717 2.177,-7.36031 -0.13684,0.20733 -0.24051,0.41466 -0.30892,0.622 h -0.311 c 0.69249,-1.45133 1.38291,-2.90266 2.07332,-4.35399 0.69249,-1.66074 1.48658,-3.49148 2.38433,-5.49431 0.34417,-1.65867 0.72567,-3.31733 1.14033,-4.97599 0.20733,-1.03666 0.44991,-2.07333 0.72567,-3.10998 -2.76375,7.11979 -4.87232,12.23262 -6.32365,15.34261 h -0.51834 c 0.82934,-2.00491 1.59024,-3.83566 2.28273,-5.49432 -0.13891,0.0705 -0.2094,-0.20733 -0.2094,-0.82725 0,-0.27783 0.34625,-1.45134 1.03667,-3.52466 h -0.51834 c 1.31449,-4.62974 3.55991,-10.29821 6.73831,-17.00128 0,-0.0684 0.0353,-0.13684 0.10366,-0.20733 0.0705,-0.27783 0.17417,-0.58675 0.31101,-0.933 0.13683,-0.41466 0.27782,-0.82932 0.41466,-1.24399 -1.86599,4.07616 -4.04298,8.63747 -6.53098,13.68396 0.0684,-0.20734 2.38433,-5.49433 6.94773,-15.86095 0.13683,-0.27576 0.27574,-0.55359 0.41259,-0.82726 0.27782,-1.24607 0.58882,-2.41957 0.93299,-3.52465 -2.55641,5.25173 -4.70023,9.22629 -6.42732,11.92163 l -0.31099,-0.20734 c 3.52466,-7.32714 6.18473,-12.95829 7.98438,-16.89761 0.13684,-0.48309 0.27575,-0.96825 0.4126,-1.45133 0.41466,-2.34908 0.82932,-4.45558 1.24606,-6.32364 -2.48799,5.66639 -5.25173,11.0218 -8.2933,16.06828 h -0.31101 c 0.20942,-0.41467 3.24683,-6.73831 9.12264,-18.97095 0.20733,-1.44924 0.41466,-2.72849 0.622,-3.83564 0.13684,-0.89983 1.34767,-6.39208 3.62832,-16.48295 1.45133,-6.49573 2.03808,-11.88638 1.76233,-16.17195 -0.27576,-4.49289 -0.30892,-10.92021 -0.10366,-19.28193 0.27782,-7.87865 0.41466,-12.26788 0.41466,-13.1677 0,-2.83217 -0.51833,-6.25522 -1.55499,-10.26089 -1.03667,-3.93932 -1.555,-8.81164 -1.555,-14.61903 0,-8.9153 3.66357,-25.39824 10.98863,-49.44883 0,-0.0684 0.0353,-0.13891 0.10366,-0.20733 0.0705,-0.41467 0.20941,-0.82933 0.41467,-1.24399 -0.34417,0.27574 -0.65517,0.58882 -0.93299,0.93299 -0.41259,0.48308 -0.79409,0.933 -1.14033,1.34766 -0.0684,0.20734 -0.13685,0.44991 -0.20733,0.72567 h -0.31101 v -0.10367 c -1.03666,1.1735 -1.55499,1.90124 -1.55499,2.177 0,0.48308 0.13684,0.69041 0.41466,0.62199 l 0.622,-0.10367 -0.20733,0.20734 -1.34766,-0.20734 c 0.27782,-0.82933 0.93299,-1.90123 1.96965,-3.21366 -0.34624,-2.14382 -0.55357,-4.25031 -0.62199,-6.32363 -0.41467,0.62199 -0.82933,1.24399 -1.24607,1.86598 -0.622,3.10999 -1.07191,6.3589 -1.34559,9.74463 h -0.311 l -0.20734,-4.35398 c 0,-0.76091 0.13685,-1.83074 0.41468,-3.21365 -0.62408,0.82933 -1.24607,1.72708 -1.866,2.69532 -0.13684,2.14175 -0.2405,4.62975 -0.311,7.46397 l -0.30893,0.20734 c -0.34624,-1.866 -0.55357,-3.8709 -0.62199,-6.01265 -0.55359,0.69042 -1.07191,1.41608 -1.555,2.177 -0.34625,2.21223 -0.41466,4.28557 -0.2094,6.21997 h -0.51833 l -0.20733,-4.14665 c 0,-0.27575 0,-0.55358 0,-0.82932 -0.82934,1.03665 -1.62342,2.14174 -2.38433,3.31731 -0.69042,3.45624 -1.03667,5.56274 -1.03667,6.32365 h -0.51832 c 0.0684,-1.10508 0.27782,-2.83424 0.62199,-5.18332 -1.244,1.65866 -2.52116,3.35257 -3.83565,5.07966 -0.622,2.90265 -1.00142,5.18331 -1.14034,6.84197 h -0.31099 v -4.76865 c -1.27717,1.56121 -2.59166,3.1867 -3.93725,4.87232 0.27576,1.10715 0.72567,1.93648 1.34559,2.48799 -0.34418,0.34624 -0.8625,0.51833 -1.55499,0.51833 -0.13685,-0.82933 -0.24051,-1.59025 -0.30893,-2.28066 -0.76091,0.89983 -1.51975,1.86599 -2.28273,2.90266 -0.20733,0.69249 -0.44991,1.34766 -0.72567,1.96965 -0.13683,1.244 -0.24258,2.21018 -0.311,2.90267 v 1.244 h -0.51833 c 0,-0.82934 0,-1.59025 0,-2.28067 -0.13684,-0.62407 -0.20733,-1.17558 -0.20733,-1.66074 -0.27783,0.34625 -0.55358,0.6925 -0.82933,1.03667 0,0.41466 -0.0684,0.69249 -0.20733,0.82933 h -0.311 v -0.10366 c -0.89983,1.03665 -1.76233,2.10857 -2.59166,3.21365 0.27782,1.10508 0.79616,1.96967 1.555,2.59166 -0.89983,-0.27783 -1.555,-1.00142 -1.96967,-2.177 -0.82725,1.03667 -1.65866,2.03808 -2.48591,3.00633 0.20733,0.96617 0.30893,1.83074 0.30893,2.59166 l -0.20735,0.20733 c -0.13683,-0.13684 -0.44991,-0.72567 -0.93299,-1.76233 -0.55357,0.69042 -1.10508,1.38084 -1.65865,2.07333 -0.34625,13.54505 -1.21083,25.12043 -2.59166,34.72821 -0.82934,5.7369 -1.93649,11.71223 -3.3194,17.93221 l -1.65866,11.29962 h -0.41467 c -0.0684,0.13685 -0.10367,0.311 -0.10367,0.51834 -0.13683,1.51974 -0.30892,3.10999 -0.51832,4.76865 -0.0684,0.27782 -0.13685,0.58675 -0.20734,0.933 -0.27782,1.17349 -0.55358,2.45481 -0.82933,3.83565 v 0.10574 c -0.0684,0.27575 -0.13684,0.55357 -0.20733,0.82726 -0.13684,0.27782 -0.24258,0.58674 -0.311,0.93299 -0.13684,0.48309 -0.34417,1.34766 -0.622,2.59166 l -0.10367,0.31099 c -0.41466,1.31243 -0.89982,3.0395 -1.45132,5.18332 -0.69042,3.0395 -1.41816,6.56416 -2.177,10.57397 h -0.311 c 0.20941,-1.72708 0.44991,-3.38782 0.72774,-4.97598 -0.62407,2.76581 -1.45132,5.80738 -2.48799,9.12264 h -0.311 c 1.51975,-6.70307 2.66008,-12.92306 3.42099,-18.65995 -0.622,1.866 -1.27924,3.76517 -1.96966,5.70166 -0.69042,2.14174 -1.866,5.97947 -3.52466,11.50695 -0.89982,4.83915 -1.41815,8.77639 -1.55499,11.81796 h -0.30893 c -0.89982,6.84199 -1.90123,13.23612 -3.00632,19.17827 h -0.311 c 0.34624,-7.32506 0.79616,-12.50838 1.34766,-15.54995 0.13684,-1.17349 0.24051,-2.24541 0.30892,-3.21365 -0.96616,3.31732 -2.00283,6.97881 -3.10998,10.98863 -0.20733,0.75884 -0.41259,1.55499 -0.62199,2.38433 -0.62201,4.62974 -0.96825,7.63606 -1.03667,9.01897 h -0.51834 c 0.0684,-1.10508 0.17417,-2.41958 0.31101,-3.93932 -0.20941,0.96824 -0.3815,1.86599 -0.51834,2.69739 -0.27782,1.1735 -0.48308,2.21017 -0.62199,3.10999 -0.13892,1.03666 -0.20941,1.89917 -0.20941,2.59166 l -0.20734,0.20733 v -0.10367 c -0.62199,3.11 -1.14033,5.56481 -1.55499,7.36032 h -0.31099 c 0.41466,-3.17842 0.79615,-5.94216 1.14033,-8.29331 -0.41259,1.244 -0.79409,2.52323 -1.14033,3.83566 -0.48309,1.45133 -0.933,2.83423 -1.3456,4.14665 -0.48308,2.97314 -0.72774,5.4259 -0.72774,7.36237 l -0.20733,0.20734 c -0.2094,-0.13684 -0.31099,-0.72566 -0.31099,-1.76233 0,-0.69249 0.10366,-1.69391 0.31099,-3.00632 -0.7609,2.0049 -1.48657,3.93725 -2.17698,5.80531 -0.0705,1.17351 -0.13892,2.38433 -0.20941,3.62832 h -0.51833 c 0,-0.48308 0,-1.00141 0,-1.55499 -0.27576,1.93649 -0.44991,3.93932 -0.51834,6.01265 l -0.20733,0.20733 c -0.2094,-0.13684 -0.311,-0.72567 -0.311,-1.76233 0,-0.69249 0.13685,-1.72915 0.41466,-3.10999 -0.34624,0.75884 -0.65517,1.51975 -0.93299,2.28066 -0.48308,2.21017 -0.89983,4.62973 -1.24399,7.25664 h -0.31101 v -3.83565 c -1.72707,3.66357 -3.41891,6.80673 -5.07964,9.43363 0.55358,1.244 0.82932,3.11 0.82932,5.59799 -8.22488,20.8701 -14.44486,32.86222 -18.65993,35.97221 -4.21507,2.97315 -14.37644,8.50063 -30.4779,16.58661 -18.72835,9.32997 -30.54631,13.99495 -35.45388,13.99495 -4.00981,0 -6.73831,-1.20874 -8.18964,-3.62832 -0.69042,-2.35115 -1.03666,-3.5599 -1.03666,-3.62831 0,-3.11 5.87373,-8.63956 17.62327,-16.58662 l 1.45133,-0.933 c -6.98089,0.20941 -14.30595,0.10367 -21.97726,-0.30893 -6.56623,-0.48307 -10.29822,-0.72773 -11.19597,-0.72773 -0.82932,0 -3.07473,0.41467 -6.73831,1.24607 -0.7609,0.20733 -1.45132,0.37942 -2.07332,0.51833 1.38291,2.97108 2.07332,5.87374 2.07332,8.70589 0,0.20942 -0.62199,4.83916 -1.86599,13.8913 -2.55641,8.9153 -7.11773,13.37295 -13.68395,13.37295 -2.21224,0 -4.42241,-0.17208 -6.63464,-0.51833 0.89774,3.24683 1.59023,5.83849 2.07332,7.77498 1.59024,1.86599 2.55641,4.87231 2.90265,9.01896 0.34625,4.14666 0.20734,9.77989 -0.41466,16.89761 l 1.03667,1.03667 c 2.76374,0.27782 4.56131,-0.82934 5.39065,-3.31732 0.96823,-2.62691 2.97315,-3.93932 6.01264,-3.93932 2.55642,0 6.66782,2.10857 12.3363,6.32364 6.63464,4.90756 10.47029,9.91672 11.50695,15.03162 0.13684,0.62199 1.00143,4.52814 2.59166,11.71429 1.03666,4.62973 1.555,8.36172 1.555,11.19389 0,1.03667 -0.38149,2.21224 -1.14033,3.52465 -0.89775,7.87864 -7.60289,15.79253 -20.11126,23.73959 -11.95688,7.67131 -24.22475,11.95687 -36.80155,12.85462 -5.87374,2.14175 -10.88497,3.21366 -15.03162,3.21366 -15.54994,0 -25.22617,-8.94848 -29.02657,-26.84958 -1.17557,-5.59798 -1.69391,-11.81796 -1.55499,-18.65994 0.34624,-5.73689 0.51833,-8.70796 0.51833,-8.9153 0.41467,-14.79111 0.622,-25.81291 0.622,-33.06956 0,-0.13683 0.0353,-0.2405 0.10366,-0.30892 -2.34908,-2.41957 -4.1114,-5.52957 -5.28698,-9.32997 -0.89775,-2.97314 -1.62341,-7.11981 -2.177,-12.43996 -0.55357,-5.1149 -1.0719,-8.32855 -1.55499,-9.64096 -1.31241,-3.59307 -4.4224,-10.84972 -9.32997,-21.76993 -0.96824,-2.14175 -1.65866,-4.76866 -2.07332,-7.87864 -0.76092,-2.35115 -1.34766,-4.94281 -1.76233,-7.77498 -0.622,-16.37927 -1.41815,-27.0569 -2.38433,-32.03289 -0.96824,-5.1149 -2.79899,-11.19596 -5.49431,-18.24527 -0.0684,0 -0.13684,0.0353 -0.20733,0.10366 h -0.311 c -0.0684,-0.55357 -0.51833,-2.07332 -1.34766,-4.56131 -0.62201,-1.45133 -1.244,-2.93583 -1.866,-4.45558 -0.96824,-2.14382 -1.83074,-4.14665 -2.59165,-6.01265 0.62199,1.7955 1.34766,3.69674 2.17699,5.70165 l -0.20734,0.20734 c -0.48308,-0.62201 -0.89982,-1.34559 -1.24399,-2.177 0.41466,1.72916 0.89775,3.59308 1.45133,5.59798 -1.45133,-1.65866 -2.52116,-4.25032 -3.21366,-7.77498 -0.0684,-0.34624 -0.10366,-0.69042 -0.10366,-1.03666 -0.55359,-0.62199 -1.07192,-1.41815 -1.555,-2.38432 0.622,2.35115 1.38291,4.52815 2.28066,6.53098 l -0.20733,0.20733 c -1.38291,-2.00283 -2.38433,-4.62974 -3.00632,-7.87864 -0.0684,-0.41467 -0.10367,-0.79408 -0.10367,-1.14033 -0.13891,-0.27783 -0.24258,-0.55358 -0.31101,-0.82933 -0.27574,-0.48308 -0.51832,-1.00142 -0.72565,-1.555 0.89775,4.14665 1.41607,6.60148 1.55499,7.36239 v 0.20733 c -0.48309,-0.62199 -0.96824,-2.03808 -1.45133,-4.25032 -0.62199,-0.82933 -1.03666,-1.96966 -1.244,-3.42099 v -0.10367 h -0.10366 c 0,-0.55357 -0.0353,-1.14033 -0.10367,-1.76232 -0.20733,-1.03667 -0.34624,-1.866 -0.41466,-2.48799 -0.20734,-0.55358 -0.38149,-1.07192 -0.51834,-1.555 -0.82932,-2.90265 -1.55499,-5.39272 -2.17698,-7.46605 0.55357,3.3194 1.24398,6.70306 2.07332,10.15931 -0.82934,-1.244 -1.45133,-2.97316 -1.86599,-5.18332 -0.34625,-0.622 -0.65517,-1.38291 -0.933,-2.28066 0.0684,0.48309 0.13684,0.96617 0.20733,1.44925 0,0.89983 -0.17208,1.00142 -0.51833,0.311 -0.48309,-1.45133 -1.10508,-5.28698 -1.866,-11.50696 -0.0684,-0.76091 -0.13683,-1.45133 -0.20733,-2.07332 0.0705,1.93648 0.17209,4.04298 0.311,6.32364 0.0684,1.1735 0.13684,2.38432 0.20734,3.62832 H 417.971 c -0.0684,-1.31449 -0.17208,-2.52323 -0.311,-3.62832 h -0.20733 c -0.34624,-1.93648 -0.622,-4.14666 -0.82933,-6.63464 -0.13683,-0.82726 -0.27575,-1.72709 -0.41466,-2.69532 h -0.311 c -0.41467,-2.69534 -0.79408,-5.21857 -1.14033,-7.56765 0,0.48308 -0.0353,0.933 -0.10367,1.34766 h -0.311 c 0,-1.31449 -0.0353,-2.86948 -0.10367,-4.66499 -0.34624,-2.14174 -0.65724,-4.07823 -0.93299,-5.80531 v 6.3112 h -0.51834 c 0.20734,-1.3829 0.27576,-2.9379 0.20734,-4.66497 h -0.20734 c -0.41466,-1.65866 -1.0719,-5.1149 -1.96965,-10.36664 -0.622,-2.0049 -1.244,-4.07823 -1.866,-6.21998 0.13684,1.93649 0.20733,3.59307 0.20733,4.97599 0,1.03666 -0.0684,1.7955 -0.20733,2.28066 h -0.311 c 0,-3.66358 -0.13684,-6.9104 -0.41466,-9.74464 -0.622,-1.86392 -1.20875,-3.76516 -1.76233,-5.70165 0.34624,2.35115 0.55358,4.38923 0.622,6.11632 h -0.51833 c -0.20734,-2.35116 -0.55358,-5.42383 -1.03666,-9.2263 -1.17351,-3.93725 -2.31591,-7.73973 -3.421,-11.4033 0.0684,0.76091 0.1721,1.59024 0.311,2.48799 h -0.311 c 0.0684,0.48309 0.1721,0.96824 0.311,1.45133 1.38291,6.42731 2.07333,9.88354 2.07333,10.36663 v 0.622 c 0,0.20734 -0.0684,0.38149 -0.20733,0.51833 -0.96825,-3.73199 -1.76233,-7.18822 -2.38433,-10.36663 h -0.51832 c -0.0684,-0.89982 -0.10367,-1.7955 -0.10367,-2.69532 -0.82933,-4.14666 -1.41609,-7.67131 -1.76233,-10.57604 -0.76091,-2.34908 -1.48658,-4.59449 -2.17699,-6.73831 -0.0684,0.0704 -0.10368,0.17415 -0.10368,0.311 0.20735,1.93648 0.48309,4.1819 0.82934,6.73831 l -0.51833,0.72566 c -0.82933,-1.03666 -1.59024,-3.10999 -2.28066,-6.21998 -0.89982,-1.86392 -1.83075,-4.97391 -2.79899,-9.32996 0.20733,3.59307 0.76091,6.63464 1.65866,9.12263 -0.69042,-0.13684 -1.244,-0.69042 -1.65866,-1.65867 l -0.10367,0.10367 c -0.76091,-1.10508 -1.24399,-2.76374 -1.45132,-4.97598 -0.0684,-0.89775 -0.10367,-2.7285 -0.10367,-5.49224 0,-0.13684 0,-0.27783 0,-0.41467 -0.20734,3.04157 -0.27576,5.46114 -0.20734,7.25665 l 0.20734,0.51832 c -0.55359,-0.27781 -0.82933,-1.62341 -0.82933,-4.04298 0,-1.45133 0.0705,-3.1784 0.20733,-5.18332 -0.48308,-0.96824 -0.933,-2.03808 -1.34766,-3.21365 0.0684,0.69042 0.10366,1.20875 0.10366,1.55499 0,0.69042 -0.0353,0.96824 -0.10366,0.82934 0,1.51974 0.0353,3.24683 0.10366,5.18331 l -0.20733,0.20734 c -0.34625,-1.17351 -0.51833,-2.45483 -0.51833,-3.83566 0,-1.10716 0,-2.07333 0,-2.90265 -0.20734,-0.48309 -0.38149,-1.00142 -0.51833,-1.55501 h -0.10367 c -0.0684,0.89983 -0.13683,1.76234 -0.20733,2.59166 h -0.51833 c -0.13684,-0.75884 -0.20734,-1.59024 -0.20734,-2.48798 0,-0.62201 0.10368,-1.69184 0.31101,-3.21366 -0.20733,-1.38291 -0.34625,-2.83217 -0.41468,-4.35399 -0.13683,-0.34624 -0.24258,-0.65724 -0.31099,-0.933 0,1.10509 -0.0353,2.00491 -0.10367,2.69533 h -0.20733 c -0.13891,0.69042 -0.20733,1.45133 -0.20733,2.28066 0.20733,1.59024 0.41466,3.2489 0.62199,4.97599 -0.41466,-0.55359 -0.7609,-1.55501 -1.03666,-3.00634 0,0.0684 0,0.13685 0,0.20942 -0.41466,-0.62408 -0.93299,-2.66216 -1.555,-6.11632 v 1.65866 h -0.51832 v -4.87231 c -0.27576,-1.72916 -0.48309,-3.24891 -0.62201,-4.56132 -0.27574,-0.82933 -0.51832,-1.83283 -0.72565,-3.00633 -0.20734,-1.31449 -0.34625,-2.35114 -0.41467,-3.10998 h -0.72567 c -0.0684,-0.27783 -0.38149,-1.83282 -0.933,-4.66499 0.0684,1.03667 0.1721,2.177 0.31101,3.42099 0.41466,3.52258 0.86457,5.83849 1.34766,6.94564 -0.76091,-0.55357 -1.31242,-1.93648 -1.65867,-4.14665 -0.0684,-0.20733 -0.13683,-0.41467 -0.20733,-0.622 -0.0684,0 -0.13683,0.0353 -0.20733,0.10366 -1.38291,-2.97314 -3.07474,-8.39696 -5.07965,-16.2756 -0.69042,-2.62691 -1.27924,-4.97599 -1.76232,-7.04931 0.20733,1.244 0.41466,2.35115 0.62199,3.31732 v 0.31099 c -0.34625,-0.89982 -0.65724,-1.86599 -0.93299,-2.90265 0.0684,0.41467 0.1389,0.86458 0.20733,1.34766 l -0.31101,0.51834 c -1.24398,-2.07333 -2.2454,-4.56133 -3.00632,-7.46398 0.20734,1.244 0.41468,2.52324 0.62201,3.83565 h -0.51834 c -0.62199,-3.45623 -1.1735,-6.59939 -1.65866,-9.43363 -0.0684,-0.13891 -0.13891,-0.27576 -0.20733,-0.41467 0.20733,2.14174 0.311,3.59307 0.311,4.35399 0,0.27575 -0.24258,1.244 -0.72566,2.90266 h -0.31101 c -0.41466,-2.00491 -0.76091,-4.14666 -1.03665,-6.42732 l -0.20734,4.35398 -0.51833,0.51834 c -0.20733,-0.13891 -0.41466,-0.34624 -0.622,-0.622 -0.13684,1.38291 -0.27575,2.97108 -0.41467,4.76865 h -0.31099 l -0.41467,-5.59798 c 0,-0.622 0.0353,-1.62342 0.10367,-3.00633 -0.13684,-0.89982 -0.24258,-1.90123 -0.31101,-3.00632 -0.0684,-0.69042 -0.10366,-1.96965 -0.10366,-3.83565 -0.55358,3.45624 -0.89983,5.6664 -1.03666,6.63464 h -0.31101 c -0.13683,-0.48308 -0.20733,-1.17557 -0.20733,-2.07332 0.48309,-5.32223 0.82934,-9.2263 1.03667,-11.71429 -0.13892,-0.48309 -0.27575,-0.933 -0.41466,-1.34767 -0.0684,0.27575 -0.10367,0.55358 -0.10367,0.82933 -0.13891,3.11 -0.31101,5.56274 -0.51834,7.36031 l -1.03666,0.20733 c 0,-0.0684 0,-0.13891 0,-0.20733 -0.0704,0.20733 -0.10367,0.41466 -0.10367,0.622 0.0684,1.86599 0.1721,3.80041 0.31101,5.80532 0.41466,0.13891 0.20733,0.20733 -0.622,0.20733 -1.38291,0 -2.21224,-1.86599 -2.488,-5.59798 0,-0.48309 0,-0.933 0,-1.34766 -0.82932,-0.89776 -1.24399,-2.07334 -1.24399,-3.52466 0,-0.55358 0.0684,-1.27925 0.20733,-2.177 0.34624,-4.00774 0.622,-7.42872 0.82933,-10.26296 v -0.311 c 0,-2.83423 0.0684,-5.42589 0.20733,-7.77497 -1.10508,5.25173 -2.14174,11.02388 -3.10998,17.31228 h -0.51833 c -0.27576,-1.38292 -0.41467,-2.79899 -0.41467,-4.25033 0,-1.45133 0.76092,-5.18332 2.28066,-11.19596 -1.65866,3.38574 -3.04157,6.11632 -4.14665,8.18964 h -0.311 c 0.82933,-3.31732 2.45482,-7.29189 4.87231,-11.92163 0.34625,-0.69042 0.69042,-1.34766 1.03667,-1.96965 0.13891,-0.41468 0.27574,-0.79409 0.41466,-1.14033 0,-0.82934 0,-1.59025 0,-2.28067 -3.1784,5.7369 -6.56622,10.81655 -10.15929,15.23896 h -0.31101 c 2.41958,-3.59308 5.87374,-9.0874 10.36663,-16.48295 -0.48308,-2.69533 -0.86457,-5.70165 -1.14033,-9.01897 -0.0684,-1.17557 -0.10366,-2.28066 -0.10366,-3.31732 -0.48308,-1.59024 -0.96824,-3.17841 -1.45133,-4.76866 0,0.55358 0.0353,1.10716 0.10367,1.65866 0,0.48309 0,0.933 0,1.34766 -0.0684,0.89776 -0.13684,1.59025 -0.20734,2.07334 h -0.31099 c 0,-0.69042 0,-1.48658 0,-2.38433 -0.69042,-3.10999 -1.34766,-5.90898 -1.96967,-8.39697 0.13685,3.80041 0.27576,8.25805 0.41467,13.37295 l -0.20733,0.20734 c -1.45133,-1.79758 -2.17699,-4.4929 -2.17699,-8.08598 -0.13685,1.45133 -0.27576,2.52116 -0.41466,3.21365 h -0.31101 c -0.13683,-0.6904 -0.24258,-1.45132 -0.311,-2.28065 -0.13683,0.27575 -0.27575,0.69041 -0.41466,1.244 h -0.311 c -0.55358,-4.14666 -0.96617,-7.42873 -1.24399,-9.84831 -0.0705,0.48309 -0.1721,1.00142 -0.31101,1.555 h -0.51833 c -0.13684,-0.69041 -0.20733,-1.90124 -0.20733,-3.62832 0,-0.41467 0,-0.82933 0,-1.24399 v -0.10367 c -0.0705,0.27575 -0.10366,0.51833 -0.10366,0.72566 -0.0684,1.45133 -0.13685,2.69532 -0.20734,3.73199 h -0.20734 c -0.20733,2.07333 -0.31099,3.5599 -0.31099,4.45765 l -0.20733,0.20733 c -0.20734,-0.34625 -0.311,-1.00142 -0.311,-1.96966 0,-0.7609 0.17208,-2.55641 0.51833,-5.39064 v -1.03667 c -0.622,5.32016 -1.03667,8.2933 -1.244,8.91531 h -0.311 c 0.55358,-2.41958 0.82934,-5.01124 0.82934,-7.77498 0,-1.244 0.20733,-4.04299 0.62199,-8.39697 v -5.28698 l -0.10366,-0.10367 c -0.55358,4.07823 -0.82934,6.42731 -0.82934,7.04931 0,0.20733 -0.0684,0.37941 -0.20733,0.51833 -0.27575,-0.55358 -0.44991,-1.45133 -0.51833,-2.69533 -0.13891,0.0684 -0.27575,0.13685 -0.41466,0.20734 0.20733,1.93648 0.41466,3.80041 0.62199,5.59798 -1.31241,-1.59024 -2.10857,-3.73198 -2.38432,-6.42731 -0.0684,-0.41467 -0.10367,-1.00141 -0.10367,-1.76233 l -0.311,7.15298 h -0.31099 c -0.0684,-2.55641 -0.0353,-6.11632 0.10366,-10.67763 0.13684,-4.21508 0.20733,-7.39556 0.20733,-9.5373 0,-0.48309 0,-0.933 0,-1.34766 -0.13891,0.34624 -0.31099,0.62199 -0.51832,0.82932 h -0.20734 c -0.13891,1.45133 -0.24258,3.00632 -0.311,4.66499 h -0.311 v -13.99496 c 0.13892,-0.89775 0.24258,-2.0049 0.311,-3.31731 -0.27575,-0.96825 -0.55358,-1.93442 -0.82932,-2.90267 -0.0684,2.21225 -0.13685,3.93932 -0.20735,5.18332 h -0.31099 c 0,-2.55641 0,-4.87231 0,-6.94564 -0.20733,-0.55358 -0.37942,-1.07192 -0.51833,-1.55499 v 0.72565 h -0.51834 c 0,-0.82932 0,-1.65865 0,-2.48798 -0.48308,-1.72708 -0.96617,-3.38574 -1.45133,-4.97598 -0.20733,1.17557 -0.41466,2.45481 -0.62199,3.83565 0,0.20733 -0.0684,0.37941 -0.20733,0.51833 -0.13891,0 -0.24258,-0.0353 -0.31101,-0.10367 v -0.82933 c 0.27576,-1.93441 0.48309,-3.59308 0.62201,-4.97598 -2.90266,-9.74464 -5.3554,-18.10636 -7.36032,-25.08725 -11.12754,31.03148 -23.63592,46.54618 -37.5272,46.54618 -9.46888,0 -17.89903,-3.76724 -25.29458,-11.29964 -4.90757,-4.97597 -8.18965,-9.84829 -9.84831,-14.61695 -1.31241,-3.73198 -3.28207,-8.32855 -5.90897,-13.78761 -3.45624,-2.07333 -5.80532,-4.1819 -7.04932,-6.32365 -1.24399,-2.07333 -1.86599,-5.18332 -1.86599,-9.32997 0,-0.55357 0,-1.07191 0,-1.55499 -0.96824,-1.38291 -1.65866,-3.42099 -2.07333,-6.11632 -0.69041,-4.21506 -1.59023,-7.46398 -2.69532,-9.74463 -10.71287,-6.42731 -20.11127,-10.50347 -28.19724,-12.23263 0,-0.1389 -0.0705,-0.44991 -0.20733,-0.93299 -0.13892,-0.27576 -0.24258,-0.76092 -0.311,-1.45133 0,-0.0684 -0.0353,-0.10366 -0.10367,-0.10366 -1.24399,-0.96618 -1.86599,-2.83424 -1.86599,-5.59799 0.0684,-0.622 0.10366,-1.20875 0.10366,-1.76233 -0.48308,-1.38291 -0.72566,-2.83423 -0.72566,-4.35398 0,-0.89775 0.0353,-1.65867 0.10367,-2.28066 -1.03667,-3.59308 -2.07333,-7.87864 -3.10999,-12.85463 -0.0684,-0.48308 -0.17209,-0.93299 -0.311,-1.34766 -1.65866,-1.31241 -2.90266,-3.69881 -3.73199,-7.15297 -0.13684,-0.69042 -0.27575,-1.45133 -0.41466,-2.28066 -2.14175,-4.14665 -3.21366,-8.05073 -3.21366,-11.7143 0,-1.59024 0.27575,-3.21365 0.82933,-4.87231 0.27575,-0.96825 0.622,-1.72708 1.03666,-2.28066 0,-0.13684 0,-0.24258 0,-0.311 0.13684,-2.55642 0.20734,-3.8709 0.20734,-3.93932 0,-4.42241 0.0705,-7.32506 0.20733,-8.70797 0.27575,-3.38575 1.00142,-6.08107 2.17699,-8.08597 -0.89982,2.07332 -1.45133,4.87232 -1.65866,8.39697 -0.13684,1.45132 -0.20733,4.21507 -0.20733,8.29331 0,0.34624 0,0.69041 0,1.03665 0.20733,-3.87089 0.72566,-7.46397 1.55499,-10.78129 0,-0.27575 0,-0.51833 0,-0.72566 h 0.10367 c 0.20733,-0.76092 0.41466,-1.48658 0.622,-2.177 0.622,-5.6664 1.86599,-9.43363 3.73198,-11.29963 -1.24399,2.28066 -2.14382,4.97599 -2.69532,8.08597 0.96824,-2.6269 2.21224,-5.0444 3.73199,-7.25664 1.38291,-4.97598 3.62832,-9.2263 6.73831,-12.75096 -2.41957,3.31733 -4.31874,7.04932 -5.70165,11.19597 0.20733,-0.34624 0.44784,-0.65517 0.72566,-0.933 0.20734,-0.48309 0.3815,-0.933 0.51834,-1.34766 1.59024,-3.66356 3.49148,-6.56623 5.70164,-8.70797 2.62691,-4.285556 6.18474,-9.191056 10.67764,-14.720618 -3.04157,4.422409 -5.35541,7.810224 -6.94565,10.159303 0.76091,-0.760908 1.555,-1.451328 2.38433,-2.073331 1.86599,-3.385734 3.5599,-6.081058 5.07964,-8.085972 l 0.20735,0.207341 c 0.55357,-1.934416 1.00141,-3.317327 1.34766,-4.146661 1.31241,-3.663564 2.69532,-5.977396 4.14665,-6.94564 -0.34625,1.936487 -1.244,4.457647 -2.69532,7.567643 -0.48309,1.036665 -0.933,2.004904 -1.34767,2.902655 1.3829,-1.86599 2.6269,-3.524658 3.73199,-4.975986 0.82933,-1.658658 1.41815,-2.834234 1.76233,-3.524652 h -0.10367 c -0.27576,-0.207333 -0.48309,-0.346245 -0.622,-0.414665 0.89982,-1.036663 1.51975,-1.554995 1.866,-1.554995 l 0.10366,0.207333 c 0,-0.621998 0.0353,-1.208749 0.10367,-1.762328 h 0.311 l 0.10366,-0.103666 c 0.0684,0.06842 0.10367,0.379419 0.10367,0.932997 0,0.346246 -0.0353,0.760911 -0.10367,1.243996 0.13892,-0.207333 0.27576,-0.379419 0.41466,-0.518332 l 0.10368,0.103667 c 0.76091,-1.175576 1.244,-1.901241 1.45133,-2.176994 -0.13892,0.275753 -0.24258,0.553579 -0.31101,0.829332 0.41467,-0.483086 0.86458,-0.932997 1.34766,-1.347663 -0.89982,1.382908 -1.86599,2.97315 -2.90265,4.768651 -0.20733,0.346246 -0.44784,0.760911 -0.72566,1.243996 -0.13892,0.483084 -0.27576,1.071907 -0.41467,1.762327 0.89775,-1.105083 1.90124,-2.176992 3.00633,-3.213656 1.17349,-1.727081 2.38431,-3.248902 3.62831,-4.561318 -0.34625,1.590242 -0.79408,2.523238 -1.34766,2.798991 0,-0.346245 0.10366,-0.690418 0.311,-1.036663 -0.622,0.89775 -1.27924,1.865993 -1.96966,2.902657 h 0.41466 c -0.34624,0.275751 -0.65724,0.586751 -0.93299,0.932997 -0.41467,0.553577 -0.79408,1.173504 -1.14033,1.865995 h 0.20733 c -0.20733,0.207331 -0.41466,0.379413 -0.62199,0.518328 -0.27576,0.414672 -0.51834,0.829334 -0.72567,1.243996 0.13891,-0.138914 0.311,-0.275747 0.51833,-0.414662 0.13891,-0.136843 0.27576,-0.24258 0.41467,-0.310996 0.69042,-0.968249 1.27923,-1.727086 1.76232,-2.280663 -0.48309,0.621994 -0.933,1.243997 -1.34766,1.86599 0.55358,-0.483078 1.10715,-0.932989 1.65866,-1.347662 2.07333,-3.109987 4.2835,-6.392062 6.63464,-9.848297 h 0.31101 c 0.13683,0.275752 0.20733,0.690417 0.20733,1.243995 0,0.138913 -0.37942,0.829331 -1.14033,2.073327 0.34625,-0.275753 0.82933,-0.518332 1.45133,-0.725664 l 0.10366,-0.103667 c 0.0684,0.06842 0.10367,0.379419 0.10367,0.932997 0,1.175576 -1.0719,3.456235 -3.21365,6.841982 -0.13892,0.275747 -0.27576,0.586744 -0.41467,0.932989 4.28556,-4.907561 6.53097,-8.639548 6.73831,-11.195959 h 0.311 c 0.0684,0.138912 0.13684,0.207333 0.20733,0.207333 v 0.82933 c 0,1.590241 -1.27924,4.146652 -3.83565,7.671308 0.20733,-0.207334 0.44784,-0.381493 0.72567,-0.518332 1.51974,-2.004907 2.55641,-3.696742 3.10998,-5.07965 h 0.311 c 0.13684,0.138913 0.311,0.24258 0.51833,0.310999 0.13684,0.07049 0.20734,0.310999 0.20734,0.725664 2.0049,-3.524654 3.83565,-6.116313 5.49431,-7.774974 -2.6269,4.146653 -4.73547,7.638135 -6.32365,10.470299 h 0.20734 c 0.34624,-0.414665 0.65724,-0.829331 0.933,-1.243997 0.96616,-2.004906 2.00283,-3.731987 3.10998,-5.183315 l 0.51834,0.103666 c 0.41466,0.138913 0.65517,0.275753 0.72566,0.414665 -0.76091,0.483085 -1.45133,1.14033 -2.07332,1.969661 0.55357,-0.621999 1.00141,-1.071911 1.34766,-1.347662 -0.34625,0.621997 -0.69042,1.208748 -1.03667,1.762327 2.00284,-2.556412 3.73199,-4.353986 5.18332,-5.390649 0,0.207333 0.0684,0.483085 0.20733,0.829331 2.34908,-2.626905 3.66356,-4.283493 3.93932,-4.975983 l 0.10367,-0.103667 c 0.0684,0.06842 0.10366,0.379419 0.10366,0.932997 0,0.414665 -1.27924,2.073326 -3.83565,4.975983 0,0.207333 0,0.447838 0,0.725664 0,0.346246 -0.17208,0.829331 -0.51833,1.451329 0.41466,-0.483085 0.76091,-0.932997 1.03667,-1.347662 l 1.24398,0.310998 c -0.55357,0.483086 -1.14032,1.001418 -1.76232,1.554995 1.24399,-0.89775 2.62691,-1.830746 4.14665,-2.79899 0,0.06842 -0.0353,0.138912 -0.10367,0.207333 0.41468,-0.346245 0.79409,-0.621998 1.14034,-0.829331 v 0.308925 c -1.31242,0.897751 -3.14524,2.834238 -5.49432,5.805314 0.41466,-0.207332 0.82934,-0.414665 1.244,-0.621997 1.10508,-1.243996 2.48799,-2.798992 4.14665,-4.664985 l 0.10367,-0.103666 c 0.48308,-0.553578 0.82933,-0.932996 1.03666,-1.14033 -0.0643,0.128546 -0.13477,0.234286 -0.20733,0.310999 0.35039,-0.348319 0.73188,-0.659317 1.14033,-0.932997 1.17557,-1.72708 2.07332,-3.248902 2.69532,-4.561317 -0.41467,1.175575 -1.03666,2.454818 -1.866,3.835654 1.31242,-1.105083 2.45483,-1.830748 3.421,-2.176994 1.24399,-1.036663 2.45274,-1.936486 3.62832,-2.695324 l -5.70165,5.701648 c -0.41467,0.346245 -1.17557,1.14033 -2.28066,2.384325 2.00491,-2.002833 3.97456,-3.663568 5.90898,-4.975984 -1.51974,2.28066 -2.79899,4.215073 -3.83565,5.805314 0.27575,-0.346245 0.55357,-0.621997 0.82933,-0.82933 1.72707,-1.65866 3.00632,-2.902657 3.83565,-3.731987 0.27575,-0.346246 0.51833,-0.621998 0.72566,-0.82933 1.03667,0.136839 1.555,0.414665 1.555,0.82933 -1.10716,0.553577 -2.45482,1.519748 -4.04299,2.902657 -0.27575,0.483085 -0.55358,0.968244 -0.82932,1.451328 0.0684,-0.06842 0.20733,-0.103666 0.41466,-0.103666 0.96824,-1.727081 2.10857,-2.86741 3.42099,-3.420989 -0.0705,0.553579 -0.17209,1.14033 -0.31101,1.762327 1.03667,-1.797574 1.866,-2.971076 2.488,-3.524654 0.69042,-0.966171 1.34766,-1.762328 1.96966,-2.384325 -0.20733,1.65866 -1.14033,3.93932 -2.79899,6.841977 0.20733,0 0.44991,0 0.72566,0 1.244,-1.451328 2.177,-2.556411 2.79899,-3.317323 0,-0.207332 0,-0.346246 0,-0.414665 h 0.311 l 0.20734,-0.103667 c 1.03665,-3.593074 1.55499,-5.633228 1.55499,-6.116312 h 0.311 c 0.0684,0.138913 0.13684,0.207333 0.20733,0.207333 v 0.82933 c 0,0.553579 -0.34625,2.141746 -1.03667,4.768651 h 0.20735 c 0.48307,-0.968244 1.0719,-1.969661 1.76232,-3.006324 0.41466,-0.89775 0.89775,-1.830747 1.45133,-2.79899 -0.0705,0.207333 -0.17209,0.553578 -0.311,1.036663 0.20733,-0.346245 0.41466,-0.655171 0.62199,-0.932997 1.10509,-2.973149 1.76234,-4.735478 1.96967,-5.286982 h 0.311 l 0.0995,-0.103667 c 0.0684,0.06842 0.10366,0.37942 0.10366,0.932997 0,0.346246 -1.14033,3.352569 -3.42099,9.01897 -0.48309,1.105083 -0.89775,2.141746 -1.24399,3.10999 0.48308,-0.483085 0.96824,-0.968244 1.45132,-1.451329 0.41468,-0.553578 0.82934,-1.036663 1.244,-1.451328 0.0684,-0.207333 0.13684,-0.379418 0.20733,-0.518332 0.34625,-0.553577 0.65517,-1.071909 0.933,-1.554995 1.65866,-4.215072 3.42099,-8.121219 5.28698,-11.714293 l 0.72567,0.103665 c 1.45133,-2.834236 2.76374,-5.079649 3.93932,-6.738311 -1.24399,2.834238 -2.38433,5.459069 -3.42099,7.878641 v 0.103667 c -0.55358,1.175575 -1.03667,2.315905 -1.45133,3.420988 1.93442,-3.317322 3.21365,-5.218562 3.83566,-5.701647 -0.34625,0.82933 -0.65725,1.623414 -0.933,2.384325 4.00773,-6.980891 7.08455,-11.403296 9.2263,-13.269289 -3.66356,6.151559 -6.80881,11.749541 -9.43363,16.793943 0.96823,-0.89775 1.90123,-1.762327 2.79898,-2.591657 l 0.10367,-0.103667 c 0.41466,-1.175575 0.89982,-2.349078 1.45133,-3.524655 2.0049,-4.492898 3.8709,-8.017553 5.59798,-10.573964 -0.48308,2.141746 -1.14032,4.457652 -1.96966,6.945644 2.62691,-4.768651 4.21507,-8.12122 4.76866,-10.055633 h 0.31099 c 0.13684,0.138912 0.311,0.242579 0.51833,0.310998 0.13684,0.0705 0.20733,0.381493 0.20733,0.932997 0,0.760911 -1.72707,4.181899 -5.18332,10.262966 l 0.51834,0.103667 c 0.0704,-0.06842 0.13892,-0.138914 0.20733,-0.207333 0.55358,-0.968244 1.17558,-2.004908 1.86599,-3.109991 2.21225,-4.975982 3.421,-8.085972 3.62833,-9.329968 h 0.31099 l 0.82934,1.243996 c -0.34625,0.82933 -0.76091,1.762328 -1.244,2.79899 1.244,-1.72708 2.31591,-2.902657 3.21366,-3.524654 0.82933,-1.451328 1.69391,-3.006323 2.59165,-4.664985 0.20734,0 0.48309,0.06842 0.82934,0.207333 0.34624,0.207332 0.51833,0.379418 0.51833,0.518332 -0.89983,0.968243 -1.76233,2.108572 -2.59165,3.420988 -0.0705,0.06842 -0.13892,0.172087 -0.20735,0.310999 -0.89982,1.382909 -1.76232,2.937904 -2.59165,4.664984 0.41467,-0.553578 0.79408,-0.96617 1.14033,-1.243995 1.72708,-2.487992 3.49148,-4.422405 5.28698,-5.805314 l 0.20733,0.207333 c -1.59024,1.65866 -3.35257,4.181899 -5.28698,7.567641 0.622,-0.414665 1.24399,-0.82933 1.866,-1.243996 1.86599,-3.524655 3.8004,-6.392066 5.80531,-8.604305 -1.31242,1.936487 -2.73058,4.457652 -4.25032,7.567642 0.41466,-0.346245 0.86457,-0.655172 1.34766,-0.932997 2.34908,-3.731988 4.59656,-5.805314 6.73831,-6.21998 -0.69042,1.243997 -1.31241,2.34908 -1.86599,3.317323 0.76091,-0.483086 1.59024,-0.932997 2.488,-1.347663 1.72707,-2.280658 2.90265,-4.111405 3.52464,-5.494314 h 0.31101 c 0.0684,0.138912 0.13683,0.242579 0.20733,0.310999 0.0704,0.0705 0.10367,0.381492 0.10367,0.932996 0,0.551506 -0.44991,1.519748 -1.34767,2.902657 1.244,-0.690418 2.55641,-1.312415 3.93932,-1.865993 0.622,-1.519748 1.20875,-2.452745 1.76233,-2.798991 -0.34625,0.899823 -0.69042,1.727081 -1.03667,2.487992 0.69042,-0.346245 1.45133,-0.657245 2.28067,-0.932997 0.41466,-0.897751 0.933,-1.90124 1.55499,-3.006323 l 0.72567,-0.207333 c 0.20733,0.06842 0.31099,0.346245 0.31099,0.829331 0,0.138912 -0.20733,0.657244 -0.622,1.554994 3.66357,-1.451328 7.49923,-2.660077 11.50696,-3.628321 1.72709,-1.590242 2.69533,-2.523238 2.90266,-2.79899 -0.34625,0.690418 -0.86457,1.486574 -1.55499,2.384325 7.67131,-1.934413 15.79253,-3.145236 24.36159,-3.628322 V 22.88192 h 26.95324 c 1.03666,0.207333 2.07333,0.449912 3.10998,0.725665 12.09372,-7.04931 29.64858,-9.122636 52.66249,-6.219979 10.09089,1.243995 22.70294,3.663567 37.83821,7.256642 8.43015,1.934413 20.59436,4.83707 36.49055,8.707971 47.61601,8.77639 72.25542,13.304535 73.91409,13.580288 33.72473,5.6664 68.38452,10.298212 103.97731,13.891287 l 34.10622,0.414665 c 15.41311,0.553578 37.56038,5.14807 66.45011,13.78762 10.43506,3.10999 19.24669,6.151559 26.43491,9.122632 9.74464,-0.553577 16.1367,-0.379413 19.17827,0.518338 l 28.71558,0.414662 c 11.26645,3.731989 20.35384,9.98721 27.26423,18.763599 3.52466,4.4929 7.8434,12.26787 12.95829,23.32492 z M 747.41842,350.98582 c 0.20733,-0.82933 0.48309,-1.65867 0.82726,-2.48799 -0.27576,0.34625 -0.51834,0.72566 -0.72567,1.14032 -0.0663,0.41467 -0.1016,0.86458 -0.1016,1.34767 z m -1.76233,4.97598 c -0.0684,0.0684 -0.10366,0.13891 -0.10366,0.20733 h 0.10366 z m -3.93932,8.18964 h -0.31099 c -0.27576,1.1735 -0.58676,2.48799 -0.933,3.93932 0.27783,-0.34625 0.58882,-0.69041 0.933,-1.03666 0.41466,-0.41467 0.86457,-0.89775 1.34766,-1.45133 0.34416,-1.31242 0.75884,-2.6269 1.244,-3.93932 -0.0684,-0.48309 -0.13685,-0.933 -0.20735,-1.34766 h -0.31099 c 0.0684,-0.13891 0.17416,-0.27576 0.31099,-0.41467 -0.0684,-0.0684 -0.10366,-0.17208 -0.10366,-0.311 -0.55358,1.244 -0.79616,2.34908 -0.72773,3.31733 l -0.20734,0.20733 -0.622,-0.10366 c -0.13684,0.41466 -0.27367,0.79407 -0.41259,1.14032 z m 122.11892,-61.16313 c -0.20733,0.48309 -0.37941,1.00142 -0.51832,1.55499 0.48308,1.03667 1.07191,2.21018 1.7644,3.52466 -0.13684,-1.03666 -0.31101,-2.3159 -0.51834,-3.83565 -0.2799,-0.41467 -0.5204,-0.82934 -0.72774,-1.244 z m -12.95828,34.31355 c 0,0.41466 0,0.82934 0,1.244 0.27782,1.31241 0.58882,2.59166 0.93299,3.83565 l -0.20733,-6.84197 c -0.2094,0.48308 -0.41466,0.96824 -0.62199,1.45133 0,0.0684 -0.0332,0.17208 -0.10367,0.31099 z m 10.7813,-0.31099 c -0.41467,-1.72709 -0.79409,-3.421 -1.14033,-5.07966 0.13683,1.17558 0.31099,2.38433 0.51832,3.62833 0.20734,0.48308 0.41468,0.96824 0.62201,1.45133 z m 20.99242,-85.05822 c -0.0228,-0.12855 -0.004,-0.2488 0.0519,-0.36283 -0.13684,-0.20734 -0.27783,-0.41467 -0.41467,-0.622 0.12855,0.32136 0.2488,0.64895 0.36283,0.98483 z M 820.50318,445.8405 c -0.34625,-2.35115 -0.58675,-4.21507 -0.72774,-5.59798 -0.0684,0.69249 -0.13684,1.45133 -0.20733,2.28273 0.34832,1.10508 0.65724,2.21017 0.93507,3.31525 z m 2.38432,16.58661 c 0,0.69042 0,1.45133 0,2.28066 0.34624,0.6925 0.65725,1.48657 0.933,2.38432 -0.20733,-1.45133 -0.44991,-3.00632 -0.72566,-4.66498 z m -0.10367,29.64857 c 0.55358,1.93648 1.27925,3.90615 2.177,5.91105 -0.75884,-3.04157 -1.44926,-6.04789 -2.07333,-9.02104 -0.0705,1.03667 -0.10367,2.07333 -0.10367,3.10999 z m 0.51834,-5.28699 c 0,-3.04157 -0.13684,-5.5648 -0.41467,-7.56763 0,1.17557 0,2.38432 0,3.62831 0,0.76092 0,1.55501 0,2.38433 0.13891,0.48309 0.27576,1.00142 0.41467,1.55499 z m -103.25166,56.08349 c -2.69533,7.32506 -4.35399,11.88638 -4.97598,13.68602 1.45133,-3.66356 2.6269,-6.63464 3.52465,-8.91738 0.55359,-1.44924 1.10508,-2.8674 1.65867,-4.25031 0.1389,-0.622 0.27782,-1.244 0.41466,-1.86392 -0.20733,0.34417 -0.38149,0.72567 -0.51833,1.14033 -0.0684,0.0663 -0.10367,0.13683 -0.10367,0.20526 z m -9.22631,44.78385 c -1.38083,3.10998 -2.55641,6.39206 -3.52464,9.84829 0.34624,-0.7609 0.72774,-1.59024 1.1424,-2.48799 0.48309,-1.45133 1.0719,-3.14523 1.76232,-5.07965 0.0684,-0.27782 0.17209,-0.51833 0.311,-0.72566 0.0684,-0.5515 0.17002,-1.06983 0.30892,-1.55499 z m -4.45764,13.47662 c -0.13892,0.55357 -0.24258,1.10508 -0.311,1.65866 0.20733,-0.48308 0.41466,-0.933 0.62199,-1.34767 v -0.51832 c 0,-0.13685 0.0353,-0.34418 0.10367,-0.62201 -0.13891,0.27783 -0.27575,0.55358 -0.41466,0.82934 z m 2.17699,-1.34766 c -0.55357,1.38291 -1.07191,2.76374 -1.55499,4.14665 0.41466,-0.96824 0.8625,-1.96966 1.34558,-3.00632 0.0726,-0.41468 0.14099,-0.79409 0.20941,-1.14033 z m -1.03666,0.10366 c 0.55357,-0.96824 1.07191,-1.89917 1.55499,-2.79899 0.13684,-0.96825 0.30893,-1.90124 0.51834,-2.80106 -0.34625,0.62407 -0.65517,1.27924 -0.933,1.96966 -0.62201,1.51974 -1.03667,2.76582 -1.244,3.73199 z m -1.14033,13.06196 c -0.41467,1.03666 -0.76091,2.03808 -1.03667,3.00632 0.27576,-0.62199 0.55358,-1.1735 0.82726,-1.65866 0.0704,-0.48309 0.13892,-0.933 0.20941,-1.34766 z M 456.84172,267.43076 c -1.31241,-1.65866 -2.48799,-3.00632 -3.52465,-4.04298 -0.34625,-0.27575 -0.69041,-0.51833 -1.03666,-0.72566 0.13683,2.90265 0.27575,6.08314 0.41466,9.5373 0.48309,12.85462 1.96967,23.39334 4.45765,31.61822 v 27.05691 c 1.17351,1.31242 2.38433,2.76375 3.62832,4.35399 6.14949,7.73973 11.74955,16.20719 16.79395,25.39825 5.04647,9.32997 7.56765,15.86094 7.56765,19.59293 0,1.65866 -0.76092,6.87515 -2.28067,15.65361 0.27575,0.622 0.58676,1.27717 0.933,1.96759 2.41957,5.18332 4.11141,9.12264 5.07964,11.81796 1.72709,4.62973 3.11,10.19455 4.14667,16.69028 1.86599,3.73406 3.21365,6.77355 4.04298,9.12263 -0.82933,-1.1735 -2.00491,-3.21365 -3.52466,-6.1163 0.13892,1.24606 0.311,2.48799 0.51833,3.73198 1.72709,2.97315 2.90267,5.49432 3.52466,7.56764 h -0.311 c 0.89983,1.866 1.69391,3.59307 2.38433,5.18332 h -0.82933 c -0.48309,-1.65866 -1.93442,-4.73341 -4.35399,-9.22631 0.20733,2.07333 0.44784,4.00982 0.72566,5.80532 0,0.13891 0.0353,0.27782 0.10367,0.41467 0.89775,2.21016 2.24541,5.46113 4.04298,9.74463 h -0.51832 c -1.244,-2.83216 -2.34908,-5.3554 -3.31733,-7.56765 0.27576,2.35116 0.55359,4.49291 0.82933,6.4294 1.244,2.55641 2.07333,4.66498 2.488,6.32363 h -0.51833 c -0.20734,-0.69041 -0.72567,-1.93648 -1.555,-3.73198 0.27575,2.07333 0.55358,3.66357 0.82933,4.76865 0.13684,0.55358 0.27575,1.14033 0.41466,1.76232 0.69042,2.35116 1.48658,4.80391 2.38433,7.36239 l -0.20733,0.20733 c -0.48309,-0.75884 -0.933,-1.59024 -1.34766,-2.48798 0.0704,0.48307 0.17208,1.00141 0.31099,1.55499 0.62201,1.93649 1.38291,4.14665 2.28066,6.63464 -0.622,-1.24399 -1.31241,-2.86948 -2.07333,-4.87232 0.20734,1.31242 0.44991,2.7285 0.72567,4.25032 1.59024,4.49083 2.38433,7.91182 2.38433,10.26297 v 0.72359 c -0.0684,-0.0684 -0.13684,-0.0684 -0.20733,0 h -0.31101 c -0.13683,-0.82933 -0.34624,-1.76233 -0.62199,-2.79899 0.0684,0.622 0.13891,1.24399 0.20733,1.86391 0.48309,3.24683 0.933,6.2884 1.34766,9.12264 0.76091,2.14175 1.65866,4.59657 2.69533,7.36031 h -0.51833 c -0.34625,-0.82933 -0.96618,-2.6269 -1.866,-5.39064 0.48309,2.69532 0.96825,5.18331 1.45133,7.46396 1.24399,2.83217 2.07333,5.01124 2.48799,6.53098 l -0.20733,0.20734 c -0.55358,-1.1735 -1.07191,-2.24541 -1.555,-3.21366 0.13685,0.75884 0.311,1.51976 0.51833,2.28066 0.34625,1.24607 0.65517,2.55641 0.933,3.93933 0.55358,2.0049 0.82934,3.52465 0.82934,4.56131 v 0.72567 h -0.10367 c 0.20733,1.45132 0.34625,3.00632 0.41466,4.66498 0.41467,1.17351 0.82933,2.45482 1.244,3.83565 -0.41467,-0.55358 -0.79409,-1.1735 -1.14033,-1.86392 0.0684,1.31242 0.10366,2.69533 0.10366,4.14665 1.03667,2.55641 1.65866,4.14666 1.86599,4.76866 -0.55357,-0.96825 -1.17557,-2.28066 -1.86599,-3.93932 0,0.27783 0,0.58882 0,0.933 0.622,2.6269 1.31242,5.52956 2.07333,8.70796 h -0.51833 c -0.48308,-2.28066 -1.00142,-4.62974 -1.555,-7.0493 -0.0684,0.41466 -0.10366,0.82932 -0.10366,1.24606 -0.0684,1.38084 -0.13892,2.90059 -0.20733,4.56132 0.48308,2.90058 0.93299,5.21856 1.34766,6.94565 v 3.42098 l -0.20733,0.20733 c -0.41467,-3.45623 -0.79409,-6.18472 -1.14033,-8.18963 0,-0.13684 0,-0.30893 0,-0.51833 -0.13685,1.59024 -0.24258,3.28415 -0.311,5.07965 0.89774,4.35398 1.45133,7.29188 1.65866,8.81163 h -0.51834 c -0.20733,-1.93649 -0.58674,-4.31873 -1.14032,-7.15297 0.13891,1.03666 0.311,2.28273 0.51833,3.73199 0.69042,3.93932 1.0719,6.29047 1.14033,7.0493 h -0.51834 c -0.55357,-3.10998 -1.00141,-5.73689 -1.34766,-7.87864 -0.13683,2.41751 -0.27575,5.04648 -0.41466,7.87864 0,14.30596 1.03666,28.81924 3.10998,43.53986 1.244,-1.38291 3.07475,-2.69533 5.49433,-3.93932 3.10998,-1.59024 9.08739,-4.4224 17.93426,-8.50064 0.48309,-0.27783 7.39557,-1.90124 20.73327,-4.87232 12.71571,-2.83424 19.97235,-5.18331 21.76992,-7.0493 1.65867,-1.72709 3.04157,-4.62974 4.14667,-8.70798 1.45132,-5.04647 2.3159,-7.84339 2.59164,-8.39697 0.55359,-1.10508 1.00142,-2.6269 1.34767,-4.56132 -1.24399,2.35116 -2.59165,4.90757 -4.04299,7.67131 h -0.82932 c 0.89982,-1.59024 1.96965,-3.49148 3.21365,-5.70164 0,-0.34625 0.0353,-0.69042 0.10366,-1.03667 h -0.20733 c 0.0705,-0.62199 0.17209,-1.31448 0.311,-2.07333 h -0.311 c 0.27576,-0.82933 0.55358,-1.69183 0.82934,-2.59166 0.41466,-1.65866 0.96616,-3.42098 1.65865,-5.28698 0,-0.89982 0,-1.83281 0,-2.80106 -0.62199,1.45133 -1.14033,2.86949 -1.55499,4.2524 -0.0684,0.27574 -0.10366,0.51832 -0.10366,0.72565 h -0.10367 c -0.55358,1.866 -0.86458,3.59308 -0.933,5.18332 h -0.311 v -3.10998 c 0.20733,-0.75884 0.44991,-1.55501 0.72566,-2.38433 -0.13683,0.27783 -0.27575,0.55357 -0.41466,0.82932 l -0.20733,-0.10366 c -0.0684,0.41467 -0.10367,0.79408 -0.10367,1.14033 h -0.51833 c -0.0684,-4.83707 0.72566,-10.4703 2.38432,-16.89761 -0.13891,-0.0684 -0.24258,-0.13684 -0.31099,-0.20734 h 0.41466 c 0.27576,-1.31448 0.622,-2.66007 1.03666,-4.04298 0.20734,-0.62199 0.41467,-1.31241 0.62201,-2.07332 0.20733,-2.41751 0.44991,-4.80182 0.72566,-7.15298 -0.96824,2.28273 -1.48658,3.5599 -1.555,3.83772 -1.31241,3.52466 -2.38432,6.84199 -3.21366,9.95197 -0.0684,0.34625 -0.10366,0.69042 -0.10366,1.03667 h -0.10367 c -0.69041,2.76374 -1.17557,5.3554 -1.45133,7.77497 h -0.51832 c 0.27574,-4.70023 1.17557,-9.60779 2.69532,-14.72062 0.27575,-1.24607 0.62199,-2.55641 1.03666,-3.93932 0.34625,-3.31732 1.10509,-7.1198 2.28066,-11.40329 l -0.10367,-0.10367 c -1.38291,3.59308 -2.14175,6.73831 -2.28065,9.43364 h -0.51834 c 0.34625,-4.56133 1.83075,-10.12613 4.45766,-16.69028 0.41466,-1.10509 0.86457,-2.10857 1.34766,-3.00632 0.76091,-4.07824 2.17699,-8.39697 4.25032,-12.9583 0.0684,-0.27783 0.13891,-0.51832 0.20733,-0.72566 0.13891,-0.55358 0.311,-1.1424 0.51833,-1.7644 -0.76091,1.45133 -1.555,3.00632 -2.38432,4.66499 -3.04158,6.4978 -4.97599,12.16421 -5.80532,17.00127 h -0.51833 c 0.96824,-5.04648 2.83424,-10.71287 5.59798,-17.00127 1.38291,-3.04157 2.90266,-6.04582 4.56131,-9.01897 4.76866,-14.30596 12.05847,-30.64999 21.8736,-49.03417 2.00491,-3.80041 4.59656,-7.98231 7.77498,-12.54363 1.51974,-10.29821 4.49289,-23.70641 8.9153,-40.22253 1.3829,-5.18331 5.32015,-18.65993 11.81796,-40.42987 0,-0.89982 0.0353,-1.76232 0.10367,-2.59165 -0.622,0.622 -1.31242,1.07191 -2.07333,1.34766 0.82933,-2.00491 1.59024,-3.80041 2.28273,-5.39065 0.13685,-2.62691 0.30893,-5.25173 0.51833,-7.87864 -0.96824,2.07333 -1.90124,4.35398 -2.80106,6.84197 l -0.20733,0.20733 c -0.13685,0 -0.24258,-0.0353 -0.311,-0.10366 v -0.82932 c 0,-0.13685 0.0353,-0.34625 0.10367,-0.62201 h -0.62201 c 0.69249,-1.10508 2.03809,-3.66356 4.04299,-7.67131 0.0684,-1.03665 0.17209,-2.07332 0.31101,-3.10998 -1.17558,2.14381 -2.17907,4.00981 -3.00633,5.59798 h -0.311 c 1.03666,-2.00491 2.21016,-4.25032 3.52466,-6.73831 0.20733,-2.41957 0.48308,-4.87231 0.82932,-7.36031 -1.3829,2.55641 -2.38432,4.83707 -3.00632,6.84198 -0.2094,0.62199 -0.311,0.48308 -0.311,-0.41466 0,-1.244 1.1735,-3.73199 3.52466,-7.46398 0.0684,-0.76091 0.17208,-1.51976 0.311,-2.28066 -2.14382,3.8004 -3.55991,6.49573 -4.2524,8.08597 h -0.62199 c 1.24607,-2.55641 2.9379,-5.77006 5.07965,-9.64097 0.27782,-1.72708 0.55358,-3.45623 0.82932,-5.18331 -0.0704,0.0684 -0.10573,0.13684 -0.10573,0.20733 -1.03667,1.65866 -1.89917,3.14523 -2.59166,4.45765 v 0.10367 l -0.10367,0.10367 c -0.96824,2.28065 -2.24541,5.59797 -3.83565,9.95196 h -0.311 c 1.31449,-5.39065 2.45482,-9.46889 3.42098,-12.23263 0.13685,-0.27574 0.24051,-0.55357 0.30893,-0.82933 -0.0684,0 -0.10367,-0.27575 -0.10367,-0.82932 0,-1.10509 1.03667,-3.55783 3.11,-7.36032 0.69249,-1.31241 1.38291,-2.48799 2.07332,-3.52466 0.0684,-0.34624 0.13684,-0.69041 0.20941,-1.03665 -0.48309,0.76091 -1.00141,1.55499 -1.555,2.38433 -2.41957,3.73198 -3.93931,6.18472 -4.56131,7.3603 l -0.311,-0.20733 c 1.10508,-1.51975 2.76581,-4.31875 4.97599,-8.39697 0.75883,-1.31242 1.41815,-2.45483 1.96965,-3.42099 0.0684,-0.20733 0.10367,-0.41466 0.10367,-0.622 -0.13684,0.20734 -0.27783,0.44992 -0.41467,0.72566 -1.93648,3.17842 -3.17841,5.4259 -3.73199,6.73831 -0.13684,0 -0.24258,0 -0.31099,0 v -0.72566 c 0,-0.34624 1.03666,-2.38432 3.10998,-6.11631 0.82934,-1.51975 1.51976,-2.73058 2.07334,-3.62833 0.55357,-2.55641 1.14033,-5.01122 1.76439,-7.3603 -1.72916,0.76091 -3.42098,1.48658 -5.07965,2.17699 -0.62199,0.82933 -1.48657,1.90124 -2.59166,3.21366 l -0.10366,-0.10367 c -0.82933,0.96617 -1.31449,1.51975 -1.45133,1.65866 l -0.311,-0.20733 c 0.55358,-1.10508 1.41816,-2.34908 2.59166,-3.73199 -0.13684,0 -0.20733,0.0353 -0.20733,0.10367 -3.17841,1.65866 -5.28698,2.83423 -6.32365,3.52465 -3.38781,2.14175 -5.2538,3.8709 -5.59798,5.18332 l -0.82933,-0.20734 c 0.69249,-0.89774 2.90265,-2.69532 6.63464,-5.39065 0.75884,-0.55357 1.59024,-1.14032 2.48799,-1.76232 -2.07332,0.76091 -4.1114,1.48657 -6.11631,2.17699 -2.97314,2.488 -5.18331,4.31874 -6.63465,5.49432 0.69249,-1.10508 2.2475,-2.69533 4.66499,-4.76866 -1.7955,0.55358 -3.55989,1.07192 -5.28698,1.555 -2.21016,0.96617 -3.38781,1.69183 -3.52466,2.17699 -0.13683,0.13892 -0.48308,0.20733 -1.03665,0.20733 -0.13685,0.27576 -0.20734,0 -0.20734,-0.82932 -1.3829,0.69041 -2.93791,1.51974 -4.66498,2.48798 -0.0684,0 -0.13685,0 -0.20942,0 -1.03665,0.76092 -2.10856,1.45134 -3.21365,2.07333 -0.13684,0.27576 -0.20733,0.17209 -0.20733,-0.31099 -0.34624,0.41466 -0.69249,0.82932 -1.03666,1.24399 l -0.82934,-0.20733 c 0.41467,-0.96825 1.48658,-2.24541 3.21366,-3.83565 -0.96616,0.20733 -1.89916,0.41466 -2.79899,0.62199 -0.69042,0.41466 -1.38291,0.86458 -2.07333,1.34766 -2.97315,1.93442 -5.32015,3.45624 -7.0493,4.56133 l -0.10367,1.76232 -0.20733,0.20733 c -0.0684,-0.62199 -0.10366,-1.20875 -0.10366,-1.76232 -0.13892,0.0684 -0.27783,0.13891 -0.41468,0.20733 l -0.31099,-0.20733 c 0.2094,-0.20733 0.41466,-0.37943 0.62199,-0.51834 -0.13683,-1.59024 -0.27575,-2.90266 -0.41259,-3.93932 -0.69249,0.0684 -1.34766,0.13891 -1.96966,0.20734 -0.622,1.31241 -1.20874,2.41957 -1.76232,3.31732 0.20733,0.55357 0.34625,1.03666 0.41466,1.45132 l -0.20733,0.20734 c -0.20733,-0.20734 -0.41467,-0.51833 -0.622,-0.93299 -0.13684,0.1389 -0.27575,0.27574 -0.41466,0.41466 -0.34625,-0.0684 -0.58883,-0.17208 -0.72567,-0.311 -0.0684,-0.0684 -0.10367,-0.38149 -0.10367,-0.933 0,-0.34624 0.13892,-0.76091 0.41467,-1.244 l -0.10366,-0.20733 c -0.20734,0.27575 -0.3815,0.55358 -0.51834,0.82934 v 0.10366 c 0,0.76091 -0.34625,1.34767 -1.03667,1.76233 -0.55357,-0.34625 -1.83074,-1.51975 -3.83565,-3.52466 -0.41466,0 -0.82932,0.0353 -1.244,0.10367 0.27576,0.20734 0.58676,0.44991 0.933,0.72566 1.59025,1.38291 2.69533,2.28067 3.31733,2.69533 -1.72708,0.0684 -3.24683,-0.65724 -4.56132,-2.177 -0.34625,-0.48308 -0.65725,-0.86457 -0.93299,-1.14033 -0.76092,0 -1.51976,0.0353 -2.28066,0.10368 1.86598,0.62199 3.00632,1.0719 3.42098,1.34766 v 0.31099 c -3.04157,-0.69042 -5.21856,-1.20874 -6.53098,-1.55499 -0.0684,0 -0.13683,0 -0.20733,0 h -1.14033 c 2.21224,0.62199 3.52466,1.14032 3.93932,1.55499 -1.72708,0.20734 -3.80041,-0.10366 -6.21997,-0.933 -0.69042,-0.20733 -1.31243,-0.41466 -1.866,-0.62199 h -4.56132 c 2.07332,1.244 4.04299,1.93441 5.90898,2.07332 0.0705,0.13892 -0.311,0.20733 -1.14033,0.20733 -2.97107,0 -5.42589,-0.72566 -7.36031,-2.17698 -0.0705,0 -0.10366,-0.0353 -0.10366,-0.10367 h -2.28066 l 5.18331,2.07332 c -1.45132,-0.34624 -2.7285,-0.69042 -3.83565,-1.03666 -2.55641,-0.13891 -5.3554,-0.48308 -8.39697,-1.03666 h -0.20733 c 2.0049,0.48308 4.25032,1.00142 6.73831,1.55499 -0.20733,0.20734 -0.96618,0.311 -2.28066,0.311 -1.79758,0 -4.28557,-0.41466 -7.46398,-1.244 -1.93649,-0.13684 -3.83566,-0.34624 -5.70165,-0.62199 h -2.79898 c 2.0049,0.41466 3.69674,0.76091 5.07965,1.03666 l 1.24399,0.51833 c -0.20733,0.20734 -0.89775,0.311 -2.07333,0.311 -4.56131,0 -8.84688,-0.62199 -12.85462,-1.86599 -0.48308,0 -0.96824,0 -1.45133,0 2.97315,1.10508 6.35889,1.96966 10.1593,2.59166 -4.62974,-0.48309 -8.43015,-1.27925 -11.4033,-2.38433 0,0.0684 0,0.13684 0,0.20733 l 5.18332,2.177 c -1.86599,-0.69042 -3.69674,-1.38291 -5.49431,-2.07333 -0.20734,0 -0.48309,0 -0.82934,0 -0.1389,0 -0.24257,0 -0.311,0 4.00775,2.14175 7.42873,3.69674 10.26297,4.66499 -2.97108,-0.48309 -6.2884,-1.69392 -9.95197,-3.62833 -1.03665,-0.55357 -2.03807,-1.07191 -3.00632,-1.55499 -0.20733,-0.0684 -0.41466,-0.13891 -0.62199,-0.20734 -0.34625,0.13892 -0.86459,0.20734 -1.555,0.20734 -0.13891,0 -0.27575,0 -0.41467,0 1.10717,0.48308 2.24541,0.89775 3.42099,1.244 v 0.31099 c -1.65865,-0.55357 -3.14523,-1.07191 -4.45765,-1.55499 -1.03666,-0.20734 -2.41957,-0.58675 -4.14665,-1.14033 -2.83424,-0.48309 -5.6664,-1.07191 -8.50064,-1.76233 1.72708,1.03666 3.62833,1.90125 5.70165,2.59166 v 0.30892 c 0.41466,0.13892 0.86458,0.34625 1.34766,0.622 2.14175,0.69042 4.35398,1.244 6.63464,1.65866 0.62201,0.20733 0.48309,0.311 -0.41466,0.311 -0.76091,0 -1.55499,-0.0684 -2.38433,-0.20733 v 0.20733 c -0.27575,-0.13892 -0.51832,-0.24258 -0.72566,-0.311 -2.41957,-0.55357 -5.28698,-1.59024 -8.60431,-3.10998 -2.28066,-1.10509 -4.04298,-2.14175 -5.28698,-3.11 -0.34624,-0.0684 -0.62199,-0.1389 -0.82933,-0.20733 0.622,0.76092 1.14033,1.41609 1.555,1.96966 0.62199,0.48308 1.17557,0.86458 1.65866,1.14034 -0.41466,-0.20735 -0.86458,-0.44993 -1.34766,-0.72567 0,0.0684 0.0353,0.13891 0.10366,0.20733 0.27575,0.13891 0.51833,0.24258 0.72566,0.31099 3.73199,1.79759 7.5324,3.24891 11.4033,4.354 -3.31732,-0.55358 -7.42873,-2.00492 -12.33629,-4.354 -0.20733,0 -0.41467,0 -0.622,0 1.17558,1.244 1.866,2.00492 2.07333,2.28067 -0.69042,-0.41467 -1.62342,-1.17557 -2.79899,-2.28067 -0.89982,0 -1.79757,-0.13683 -2.69532,-0.41466 1.03665,1.10508 1.76232,1.93442 2.17698,2.48799 v 0.20734 c -0.89982,-0.76091 -2.0049,-1.79758 -3.31731,-3.10999 -0.41468,-0.13891 -0.79409,-0.27576 -1.14034,-0.41467 0.89983,0.69042 1.86599,1.45134 2.90266,2.28066 v 0.20733 c -1.65866,-1.03665 -3.21365,-2.0049 -4.66498,-2.90265 v 0.31099 c 0.20733,0.13892 0.27575,0.27576 0.20733,0.41467 0.41466,0.27575 0.86457,0.58675 1.34766,0.93299 v 0.20735 c -0.55357,-0.34625 -1.07191,-0.69042 -1.55499,-1.03667 -0.13891,0 -0.38149,0 -0.72567,0 -0.27575,0 -0.55357,-0.0353 -0.82933,-0.10367 1.45133,1.1735 3.17841,2.52116 5.18331,4.04299 v 0.20733 c -1.31241,-0.89775 -2.52323,-1.72708 -3.62831,-2.48799 0.69041,0.55358 1.3829,1.14033 2.07332,1.76232 v 0.20734 c -1.93649,-1.24399 -4.14665,-2.83423 -6.63464,-4.76865 0.41466,0.82933 0.622,1.45133 0.622,1.86599 0,0.27576 0,0.48309 0,0.622 0.62199,0.55358 1.31241,1.14033 2.07332,1.76233 -3.1784,-2.00491 -6.2884,-4.52608 -9.32997,-7.56765 -0.55357,-0.48308 -1.03666,-0.96824 -1.45132,-1.45133 0.13684,0.48309 0.20733,0.96825 0.20733,1.45133 1.38291,1.38291 2.9379,2.86742 4.66499,4.45766 -1.03667,-0.69042 -2.59166,-2.07333 -4.66499,-4.14665 0,0.20733 0,0.37941 0,0.51833 1.79757,1.93441 3.07474,3.38574 3.83565,4.35398 l -0.20733,0.31101 c -1.38291,-1.244 -2.73057,-2.45276 -4.04299,-3.62833 -0.27575,0.34625 -0.65724,0.51833 -1.14033,0.51833 -1.10715,0 -1.76232,-0.51833 -1.96965,-1.55499 -0.13892,-1.03667 -0.69042,-1.555 -1.65867,-1.555 -0.41466,0 -3.97456,-3.8004 -10.67763,-11.4033 h -1.55499 c -0.27575,0 -0.51833,0 -0.72567,0 -1.10716,0 -2.21224,-0.0353 -3.31732,-0.10366 -10.22565,-0.48308 -16.82711,-2.21224 -19.7982,-5.18332 z m 41.67387,15.75728 c 1.93649,2.00491 4.4224,4.31875 7.46397,6.94564 -0.48308,-0.82932 -1.17557,-2.0049 -2.07332,-3.52464 -0.82934,-0.62201 -1.69391,-1.34767 -2.59166,-2.177 -0.27576,-0.27575 -0.55358,-0.51833 -0.82934,-0.72566 -0.0684,-0.0684 -0.13891,-0.10367 -0.20733,-0.10367 0.69042,0.96824 1.244,1.65866 1.65866,2.07333 -1.03665,-0.55358 -2.10857,-1.38291 -3.21365,-2.488 -0.0684,0 -0.13891,0 -0.20733,0 z m 26.74591,7.67131 c -1.1735,-0.55357 -2.76374,-1.41608 -4.76866,-2.59166 -0.48308,-0.20733 -0.96824,-0.34624 -1.45132,-0.41466 0.89982,0.48308 1.96966,1.03666 3.21366,1.65866 0.96824,0.48309 1.96965,0.933 3.00632,1.34766 z m 80.96339,2.488 c 1.866,-1.72709 3.73406,-3.2489 5.59799,-4.56133 -1.86393,0.34625 -3.73199,0.65725 -5.59799,0.933 0,0.48309 0,1.03667 0,1.65866 z m -5.49431,-2.59166 c 0,0.0684 0.0353,0.13684 0.10366,0.20733 0.13892,-0.20733 0.27576,-0.41466 0.41467,-0.62199 -0.13891,0 -0.24258,0 -0.311,0 -0.0684,0.1389 -0.13892,0.27574 -0.20733,0.41466 z m -30.68523,0.62199 h -0.933 c 0.89775,0.20734 1.866,0.41467 2.90265,0.622 -0.69041,-0.20733 -1.34766,-0.41466 -1.96965,-0.622 z m 78.26807,5.90899 c 0.48309,-0.82934 0.96616,-1.555 1.44925,-2.177 0.0705,-0.62199 0.17417,-1.20875 0.311,-1.76232 -1.03667,1.93441 -1.86599,3.52465 -2.48799,4.76864 0.20941,-0.34625 0.45199,-0.62199 0.72774,-0.82932 z M 304.76324,44.85918 c 0.41466,-0.968243 0.933,-2.004907 1.55499,-3.10999 -0.89982,1.173503 -1.76233,2.419572 -2.59166,3.731988 v 0.103666 l -0.10367,0.103667 c -0.13683,0.414665 -0.31099,0.864577 -0.51832,1.347661 0.55357,-0.82933 1.10508,-1.554994 1.65866,-2.176992 z m -72.77376,37.941869 h 0.10367 c 0,-0.06008 0.0353,-0.09535 0.10366,-0.103666 -0.0767,0.0082 -0.14721,0.04357 -0.20733,0.103666 z m -0.933,-3.00632 c 0,-0.275751 0.0353,-0.51833 0.10367,-0.725663 -1.03667,1.519748 -2.00491,3.041569 -2.90266,4.561317 0.96825,-1.382911 1.83075,-2.55641 2.59166,-3.524654 0.0684,-0.138913 0.13891,-0.242579 0.20733,-0.311 z m 9.2263,-3.524654 c -0.27575,0.483085 -0.62199,1.036664 -1.03666,1.658661 0,0.0705 0,0.207333 0,0.414665 0,0.138913 -0.0353,0.346245 -0.10367,0.621998 0.41467,-0.275753 0.82934,-0.518332 1.244,-0.725664 0.20733,-0.414665 0.41467,-0.794084 0.622,-1.140329 -0.0705,0.138912 -0.10366,0.275752 -0.10366,0.414665 0.27574,-0.553578 0.55357,-1.07191 0.82932,-1.554995 z m 0.933,6.012646 c -0.27576,0.346246 -0.58675,0.760908 -0.933,1.243997 0.41466,-0.553577 0.82934,-1.036666 1.244,-1.451329 -0.13892,0 -0.24258,0.06842 -0.311,0.207332 z m 1.96966,-1.243995 c -0.69041,0.76091 -1.51975,1.658657 -2.488,2.695323 -0.62199,0.69042 -1.24398,1.382911 -1.86598,2.073331 1.03666,-0.760918 2.14174,-1.866 3.31732,-3.317328 0.41466,-0.483082 0.82933,-1.001414 1.244,-1.554993 -0.0684,0.06842 -0.13892,0.103667 -0.20734,0.103667 z m -4.35398,-1.451329 c -0.41467,1.105083 -1.1735,2.834239 -2.28067,5.183317 h 0.10367 c 1.10509,-2.004904 2.34908,-4.146653 3.73199,-6.427313 -0.27575,0.207333 -0.79409,0.621998 -1.55499,1.243996 z m 7.56764,-2.073326 c -0.20733,0.275752 -0.51834,0.621998 -0.933,1.036663 -0.0684,0.207333 -0.13892,0.414665 -0.20733,0.621998 h 0.20733 c 0.34624,-0.553578 0.65724,-1.105083 0.933,-1.658661 z m -1.55499,2.695325 c -0.27161,0.545284 -0.58262,1.115449 -0.933,1.710494 0.0787,-0.103667 0.18244,-0.1555 0.31099,-0.1555 0.20733,-0.553578 0.44991,-1.07191 0.72567,-1.554994 z m 0.20733,0.725663 c 0.27574,-0.414665 0.58674,-0.794084 0.93299,-1.14033 -0.13891,0 -0.24257,0.03525 -0.311,0.103667 -0.20733,0.346245 -0.41466,0.690418 -0.62199,1.036663 z m 9.12263,-3.213655 c -0.13269,0.132693 -0.20318,0.271605 -0.20733,0.414665 0.004,-0.06842 0.0394,-0.103667 0.10367,-0.103667 0.0684,-0.138912 0.1389,-0.275752 0.20733,-0.414665 z m 6.21998,-4.664985 v 0.103666 c 0.0705,-0.06842 0.13891,-0.138912 0.20734,-0.207332 -0.0684,0 -0.13892,0.03525 -0.20734,0.103666 z m 1.65866,-1.243996 c 1.51975,-1.519748 3.00633,-2.902657 4.45765,-4.146652 -1.10508,0.760911 -2.38432,1.830747 -3.83565,3.213655 -0.20733,0.275753 -0.41466,0.586752 -0.622,0.932997 z m -4.14665,4.250319 c 0.0684,-0.136839 0.13684,-0.275752 0.20733,-0.414665 0.0353,-0.05184 0.0684,-0.10574 0.10367,-0.155499 -0.29442,0.277826 -0.57224,0.572237 -0.82933,0.881164 0.0684,-0.06842 0.17209,-0.103667 0.31099,-0.103667 0.0684,-0.138913 0.13892,-0.207333 0.20734,-0.207333 z m 19.17827,-7.463974 c -0.13892,0 -0.20733,0.03525 -0.20733,0.103665 -0.13892,0.275753 -0.24258,0.553579 -0.311,0.829332 0.1389,-0.346246 0.311,-0.657246 0.51833,-0.932997 z m 1.65866,-1.554995 c -0.34625,0.899824 -0.76091,1.936486 -1.244,3.109989 -0.27575,0.690418 -0.51833,1.347663 -0.72566,1.96966 0.13683,-0.138913 0.24258,-0.242579 0.311,-0.310999 0.34624,-0.899824 0.72567,-1.865993 1.14033,-2.902657 0.55357,-1.382909 1.0719,-2.662151 1.55499,-3.835653 -0.34624,0.621998 -0.69042,1.279242 -1.03666,1.96966 z m -43.12519,17.51961 c 0.13684,-0.346245 0.27575,-0.657242 0.41467,-0.933 -0.13685,0.207331 -0.27576,0.414662 -0.41467,0.622004 z m -6.63464,0.725659 c 0.34624,-0.483079 0.72566,-0.93299 1.14032,-1.347662 0.0684,-0.346246 0.17209,-0.69041 0.31101,-1.036655 -0.20733,0.346245 -0.41468,0.690409 -0.62201,1.036655 v 0.103665 h -0.10366 c -0.27575,0.414673 -0.51833,0.829335 -0.72566,1.243997 z m 1.86599,-0.414662 c -0.27575,0.275747 -0.55358,0.553576 -0.82934,0.829334 -0.13683,0.207331 -0.24258,0.449911 -0.31099,0.725659 0.20733,-0.207331 0.41466,-0.379413 0.622,-0.518328 0.13891,-0.346245 0.311,-0.69042 0.51833,-1.036665 z m -1.244,3.835654 v 0.207331 c 0.41466,-0.207331 1.41608,-1.451327 3.00632,-3.731989 -0.7609,0.553577 -1.41608,1.140331 -1.96965,1.762334 -0.27576,0.346246 -0.51834,0.69041 -0.72567,1.036656 0.48309,-0.414662 0.96825,-0.829325 1.45133,-1.243997 -0.69041,0.69042 -1.31242,1.382911 -1.86599,2.073331 0,0.138914 0.0353,0.103665 0.10366,-0.103666 z m -1.55499,-1.14033 c -0.13891,0.06838 -0.27576,0.207331 -0.41466,0.414662 -0.41467,0.483088 -0.79409,1.036665 -1.14033,1.658668 0.0684,-0.07054 0.13683,-0.103665 0.20733,-0.103665 0.0704,0 0.17208,-0.103676 0.31099,-0.311007 0.13685,-0.138914 0.311,-0.346245 0.51834,-0.621993 0.13891,-0.275758 0.311,-0.622003 0.51833,-1.036665 z m -5.39065,2.902654 c -0.55357,0.897751 -1.14033,1.901239 -1.76233,3.006331 0.48309,-0.69042 1.00142,-1.347672 1.555,-1.969665 0.0684,-0.414662 0.13892,-0.760908 0.20733,-1.036666 z m -11.50696,15.342612 c -0.13684,0.13892 -0.24258,0.311 -0.311,0.51833 l -0.311,0.51834 c -0.27575,0.55358 -0.55358,1.14032 -0.82933,1.76232 -0.0684,0.20733 -0.13892,0.41467 -0.20733,0.622 0.13891,-0.13684 0.31099,-0.311 0.51833,-0.51833 0.62199,-1.31241 1.48657,-2.76374 2.59165,-4.35398 -0.55357,0.48307 -1.03666,0.96823 -1.45132,1.45132 z m 5.18331,-6.427306 c 0.20733,-0.275747 0.41467,-0.518327 0.622,-0.725668 0.27576,-0.483079 0.51833,-0.93299 0.72567,-1.347662 -2.07333,1.865999 -3.83566,3.939316 -5.28699,6.219976 l 0.622,0.20733 c 0.96824,-1.38291 2.07333,-2.83424 3.31732,-4.353976 z m -0.20733,3.731986 c 0.27575,-0.34625 0.58675,-0.72567 0.933,-1.14033 -0.20734,0.0684 -0.37942,0.17208 -0.51834,0.311 -0.13891,0.27575 -0.27575,0.55357 -0.41466,0.82933 z m -9.74463,9.5373 c 0.13891,-0.20733 0.31099,-0.41466 0.51833,-0.62199 h -0.20734 c -0.13891,0.20733 -0.24258,0.41466 -0.31099,0.62199 z m 1.55499,-1.76233 c 0.34625,-0.96824 0.79408,-1.93648 1.34766,-2.90266 -0.89775,1.10716 -1.69183,2.31591 -2.38432,3.62832 0.34624,-0.27574 0.69041,-0.51832 1.03666,-0.72566 z m -12.54362,35.45389 c -0.55358,1.79757 -0.82933,3.35256 -0.82933,4.66498 0,2.90265 0.79408,6.11631 2.38432,9.64096 -0.55358,-2.14382 -0.82933,-4.1819 -0.82933,-6.11631 v -4.35399 h 0.311 c 0,1.244 0.0684,2.45483 0.20733,3.62833 0,-0.76091 0.0352,-1.45133 0.10367,-2.07332 -0.0684,-0.13685 -0.10367,-0.24258 -0.10367,-0.31101 v -0.311 c -0.34624,-2.14175 -0.51833,-3.2489 -0.51833,-3.31731 0,-0.76092 0,-1.38292 0,-1.866 -0.0684,-0.41467 -0.10367,-0.82933 -0.10367,-1.244 -0.20733,0.41467 -0.41466,0.96825 -0.62199,1.65867 z m 1.96966,12.23262 c 0.41466,2.07332 0.96824,4.07615 1.65866,6.01264 0.13684,0.41467 0.34624,0.79409 0.62199,1.14033 -0.62199,-1.72707 -1.20875,-3.97457 -1.76232,-6.73831 -0.13684,-0.7609 -0.24258,-1.48657 -0.311,-2.17699 0.13891,0.96825 0.34624,1.90125 0.622,2.799 0.48308,1.72707 1.00141,3.24683 1.55499,4.56131 -0.27575,-1.45133 -0.55358,-2.83424 -0.82933,-4.14665 -0.76091,-1.93442 -1.34766,-3.83566 -1.76233,-5.70165 0,1.51975 0.0684,2.93791 0.20734,4.25032 z m 2.17699,9.01897 c -0.48309,-1.03666 -0.933,-2.03808 -1.34766,-3.00633 0.76091,3.24683 1.79757,5.56274 3.10999,6.94565 -0.0684,-0.27576 -0.10367,-0.55358 -0.10367,-0.82933 -0.622,-1.03667 -1.17558,-2.07333 -1.65866,-3.10999 z m 1.24399,1.244 c -0.0684,-0.27576 -0.13684,-0.51834 -0.20733,-0.72567 -0.20733,-0.27575 -0.38149,-0.55358 -0.51833,-0.82933 0.20733,0.55358 0.44991,1.07191 0.72566,1.555 z m 140.9862,117.76494 v 4.14665 c 0,0.20733 0.0353,0.44784 0.10367,0.72566 0,-0.13684 0.0353,-0.27575 0.10366,-0.41467 v -3.83565 c -0.0684,-0.20733 -0.13891,-0.41466 -0.20733,-0.62199 z m -0.82933,3.42098 c -0.0684,-2.41957 -0.10367,-4.21507 -0.10367,-5.39065 -0.20733,2.41958 -0.38148,5.28698 -0.51833,8.60431 0.20733,-0.89775 0.41467,-1.96966 0.622,-3.21366 z m 8.08598,24.46525 c 0,0.20111 0,0.42503 0,0.67384 0.004,-0.18038 0.0394,-0.33796 0.10366,-0.4665 -0.0663,-0.0663 -0.1016,-0.13477 -0.10366,-0.20734 z m 1.55499,9.90014 c 0.006,-0.26746 0.0414,-0.52662 0.10367,-0.7775 -0.0663,-0.0663 -0.10161,-0.13477 -0.10367,-0.20733 0,0.32136 0,0.64895 0,0.98483 z m 2.17699,-2.33249 c 0.34624,1.51974 0.72567,3.18047 1.14033,4.97597 -0.0684,-0.62199 -0.13683,-1.31241 -0.20733,-2.07332 -0.27575,-0.96824 -0.58676,-1.93441 -0.933,-2.90265 z m 8.81164,27.67891 c -0.0663,-0.0663 -0.10161,-0.13478 -0.10367,-0.20734 0,0.0726 0,0.14098 0,0.20734 -0.0684,0.27574 -0.0684,0.55357 0,0.82932 z m -3.10999,-9.64098 c -0.0684,-0.27575 -0.13891,-0.55357 -0.20733,-0.82932 0,0.27575 0,0.55357 0,0.82932 z m 11.40329,36.28322 c 0,0.0684 0.0353,0.17208 0.10367,0.311 0,-0.27575 0.0353,-0.51833 0.10366,-0.72567 -0.20733,-0.48308 -0.34624,-0.93299 -0.41466,-1.34767 0,0.55359 0.0684,1.14034 0.20733,1.76234 z m 326.85991,92.36669 c 0.0684,-0.48309 0.13683,-0.933 0.20733,-1.34559 -0.0684,0.13684 -0.10366,0.30893 -0.10366,0.51833 -0.0684,0.20526 -0.10367,0.48309 -0.10367,0.82726 z m -5.07965,17.51961 v 0.82933 c 0,1.65866 -0.13684,3.52258 -0.41466,5.59591 0.48308,-2.28066 1.00141,-4.31875 1.55499,-6.11425 0.27783,-1.51974 1.10715,-5.84056 2.48799,-12.95829 -1.10508,4.07616 -2.34907,8.29331 -3.73199,12.6473 z m 3.93932,-10.67763 c -0.0684,0.0704 -0.10366,0.13891 -0.10366,0.2094 -0.34625,1.93649 -0.62408,3.62832 -0.82934,5.07965 0.41467,-1.93649 0.72567,-3.70088 0.933,-5.28905 z m -108.43497,34.72821 c 0.41466,-2.55641 0.86457,-5.07757 1.34766,-7.56556 -0.13684,0.34416 -0.27575,0.69041 -0.41466,1.03665 -1.59024,5.04649 -2.90266,9.81306 -3.93932,14.30388 0.20733,-0.69041 0.44783,-1.41607 0.72566,-2.17699 0.41466,-1.17557 1.17558,-3.04157 2.28066,-5.59798 z m -2.17699,21.97726 c -1.86599,6.56415 -2.90266,11.50697 -3.10999,14.82221 0.55358,-1.51975 1.10508,-2.97108 1.65866,-4.35398 0.34624,-1.31449 0.76091,-2.69533 1.24399,-4.14666 0,-2.13967 0.0684,-4.24825 0.20734,-6.32157 z m -0.41467,15.44628 c -0.34624,0.96618 -0.65517,1.93441 -0.933,2.90058 0.27576,-0.89982 0.58676,-1.79549 0.933,-2.69532 0,-0.13684 0.0353,-0.27782 0.10367,-0.41466 -0.0684,0.002 -0.10367,0.0705 -0.10367,0.2094 z m -0.31099,4.45766 c 0.0684,-0.69042 0.1389,-1.38084 0.20733,-2.07333 -0.62201,1.59024 -1.10508,3.04156 -1.45133,4.35606 0.41466,-0.76299 0.82932,-1.52183 1.244,-2.28273 z M 379.09198,409.34996 c -0.0684,-0.13892 -0.10366,-0.27783 -0.10366,-0.41467 l -0.10367,0.10366 h -0.20733 c 0.13684,0.82934 0.311,1.62342 0.51833,2.38433 -0.0684,-0.69249 -0.10367,-1.38291 -0.10367,-2.07332 z m 2.07333,3.83565 c -0.27575,-0.69042 -0.55357,-1.41816 -0.82933,-2.17699 0.27576,1.10508 0.55358,2.28066 0.82933,3.52466 z m 4.14666,8.81163 h -0.51833 l -0.10367,-3.00632 c -0.20734,-0.62199 -0.41467,-1.24399 -0.622,-1.86391 0.0684,1.03666 0.17208,2.14174 0.311,3.31731 0.20733,2.14175 0.41467,4.14665 0.622,6.01265 0,0.13684 0.0353,0.27575 0.10366,0.41259 0.0684,-1.51974 0.17209,-2.93583 0.311,-4.25031 -0.0684,-0.20733 -0.10366,-0.41467 -0.10366,-0.62201 z m 1.96965,4.97599 c 0.0684,0.34417 0.13892,0.69042 0.20734,1.03667 0,-0.41467 0.0353,-0.79616 0.10367,-1.14241 -0.20733,-0.55357 -0.41467,-1.10508 -0.62201,-1.65867 0.13892,0.55359 0.24258,1.14242 0.311,1.76441 z m 2.177,4.87232 c 0.20733,0.82932 0.48309,1.76232 0.82933,2.79899 0,-0.20733 0,-0.41259 0,-0.622 -0.27576,-0.75884 -0.55358,-1.48657 -0.82933,-2.17699 z m 2.79899,9.12264 c 0.55357,1.72707 1.03666,3.31731 1.45132,4.76864 -0.1389,-1.10508 -0.20733,-2.03808 -0.20733,-2.80106 -0.48308,-1.244 -0.89775,-2.45274 -1.24399,-3.62832 0,0.48516 0,1.03873 0,1.66074 z m 1.96966,9.12263 c -0.13891,-0.20734 -0.27576,-0.48308 -0.41467,-0.82726 0.27576,1.17351 0.58675,2.34908 0.933,3.52259 -0.20733,-0.96618 -0.37941,-1.866 -0.51833,-2.69533 z m 20.62959,61.88879 c 0,0.13684 0,0.30892 0,0.51834 0.20734,1.10508 0.41468,2.14174 0.62201,3.10998 -0.13892,-0.96824 -0.24258,-1.86599 -0.311,-2.69739 -0.0705,-0.34418 -0.17209,-0.69042 -0.31101,-1.03667 z m 1.244,6.94565 c -0.0684,-1.10508 -0.10367,-2.21017 -0.10367,-3.31733 -0.0684,-0.2094 -0.13891,-0.41466 -0.20733,-0.62407 0.0684,1.38498 0.17208,2.6974 0.311,3.9414 z m -3.93932,-15.54995 c -0.13892,-0.55358 -0.24258,-1.10508 -0.311,-1.65866 -0.13891,-0.48309 -0.27575,-0.96825 -0.41466,-1.45133 0.34625,2.14174 0.76091,4.18189 1.244,6.11631 -0.13892,-0.96824 -0.31101,-1.96966 -0.51834,-3.00632 z m 7.36031,24.36158 v -0.51833 c 0,-0.13684 -0.0353,-0.27783 -0.10366,-0.41466 0,0.27782 0.0353,0.58674 0.10366,0.93299 z m 0.933,2.79899 c 0.55358,2.07333 1.27924,4.45766 2.17699,7.15298 v -0.622 c 0,-0.0684 0,-0.13684 0,-0.20733 -0.27575,-0.69249 -0.48308,-1.27924 -0.622,-1.7644 -0.27575,-0.82726 -0.82933,-2.62691 -1.65865,-5.39065 0,0.27782 0.0353,0.55565 0.10366,0.8314 z m 4.04299,11.4033 c 0.0684,0.34624 0.13683,0.65724 0.20733,0.933 0.13891,0.76091 0.311,1.48657 0.51833,2.17698 0.13891,0.41468 0.27575,0.86459 0.41467,1.34767 -0.13892,-0.69041 -0.27576,-1.31449 -0.41467,-1.86599 v -0.82934 c -0.27575,-0.62199 -0.51833,-1.21082 -0.72566,-1.76232 z m 1.96965,6.53098 c 0.69042,1.93648 1.41816,3.93932 2.177,6.01265 v 0.20733 c -0.20733,-0.27783 -0.41467,-0.58676 -0.622,-0.933 0.34624,0.82933 0.72566,1.62342 1.14033,2.38433 -0.0705,-0.41467 -0.13892,-0.82934 -0.20733,-1.24607 -0.34625,-0.96618 -0.65725,-1.9676 -0.933,-3.00425 -0.48308,-1.79757 -0.93299,-3.35258 -1.34767,-4.66499 -0.27574,-0.62407 -0.51832,-1.21082 -0.72565,-1.76439 0.13891,1.03873 0.31099,2.04015 0.51832,3.00839 z"
   id="path5"
   style="fill-rule:evenodd;stroke-width:0.99999988"
   inkscape:connector-curvature="0" />
    
</svg>