<?xml version="1.0" encoding="UTF-8" standalone="no"?>
<!-- Created with Inkscape (http://www.inkscape.org/) -->

<svg
   xmlns:dc="http://purl.org/dc/elements/1.1/"
   xmlns:cc="http://creativecommons.org/ns#"
   xmlns:rdf="http://www.w3.org/1999/02/22-rdf-syntax-ns#"
   xmlns:svg="http://www.w3.org/2000/svg"
   xmlns="http://www.w3.org/2000/svg"
   xmlns:sodipodi="http://sodipodi.sourceforge.net/DTD/sodipodi-0.dtd"
   xmlns:inkscape="http://www.inkscape.org/namespaces/inkscape"
   version="1.1"
   width="297mm"
   height="210mm"
   viewBox="0 0 1122.5197 793.7008"
   id="svg2"
   xml:space="preserve"
   sodipodi:docname="Pelecanus_crispus.svg"
   inkscape:version="0.92.3 (unknown)"><metadata
   id="metadata9"><rdf:RDF><cc:Work
       rdf:about=""><dc:format>image/svg+xml</dc:format><dc:type
         rdf:resource="http://purl.org/dc/dcmitype/StillImage" /><dc:title></dc:title></cc:Work></rdf:RDF></metadata><sodipodi:namedview
   pagecolor="#ffffff"
   bordercolor="#666666"
   borderopacity="1"
   objecttolerance="10"
   gridtolerance="10"
   guidetolerance="10"
   inkscape:pageopacity="0"
   inkscape:pageshadow="2"
   inkscape:window-width="2495"
   inkscape:window-height="1416"
   id="namedview7"
   showgrid="false"
   units="mm"
   inkscape:zoom="0.81267218"
   inkscape:cx="137.65"
   inkscape:cy="145.2"
   inkscape:window-x="65"
   inkscape:window-y="24"
   inkscape:window-maximized="1"
   inkscape:current-layer="svg2" /><defs
   id="defs10" />
<g
   id="Layer_1"
   transform="translate(0,503.30079)">
</g>
<g
   id="Layer_2"
   transform="matrix(3.3431678,0,0,3.3431678,99.498322,-88.799685)"
   style="stroke-width:0.29911751">
	<path
   d="m 133.3,201.2 c 4.5,-1.6 9.1,-3.1 13.5,-4.9 5.5,-2.4 8.8,-4.9 13.3,-8.8 7.7,-6.8 12.2,-15.7 16.2,-25.1 7.7,-18.2 3.7,-38.5 -2.1,-56.7 -1.9,-5.9 -3.9,-11.2 -7.2,-16.5 -3.2,-5 -6.9,-8.2 -6.1,-14.5 5.6,3.1 10.6,5.6 15.2,9.9 5.3,4.9 10.6,9.1 16.5,13.4 4.8,3.5 10.3,5.3 16,6.6 5.7,1.2 12.9,1.3 18,3.8 0,-1.9 0.4,-4.1 -0.3,-5.8 -1,-2.6 -3.7,-5.6 -5.4,-7.8 -2.3,-3 -5.2,-5.4 -7.9,-8.1 -7.2,-7 -14.1,-14.7 -22.1,-21 -4.3,-3.4 -8.7,-6.7 -12.9,-10.2 -3.9,-3.2 -4.9,-7.5 -8.9,-10.7 -3.9,-3.1 -7.7,-4.2 -12.7,-4.5 -5.9,-0.4 -9.1,1.1 -13.7,4.6 -2.5,1.9 -3,2 -3.7,4.9 -0.7,2.9 -0.7,4.3 -0.3,7.2 0.8,5.3 1.8,9.9 3.4,15 2.8,9 9.8,15.9 13.9,24.4 2.5,5.3 3.3,9.7 4,15.4 0.5,4 1.7,9.9 0.5,13.7 -0.8,2.4 -2.9,4.3 -4.9,5.6 -2.6,1.8 -3,1.2 -6.1,0.2 -5.3,-1.8 -9.5,-1.2 -14.6,0.9 -8.4,3.6 -17.1,7.3 -25.9,9.9 -10,2.9 -20.1,5.6 -28.2,12.6 -7.2,6.3 -13.5,13 -16.6,22.3 -1,3 -1.1,4.5 -3.2,6.7 -2.5,2.7 -1.2,3.5 -1.9,7 -0.9,4.5 -5.7,7.7 -7.1,12.4 -1.1,3.9 0.1,8.7 -0.4,12.8 -0.3,2.4 -1.3,4.6 -1.8,6.9 -0.4,2.3 -0.7,3.6 1.7,3.2 2.1,-0.3 5.8,-3.6 7.5,-5 1.9,-1.5 3.7,-3.2 5.5,-4.8 4.1,-3.7 9.2,-3.7 14.6,-4.7 4.8,-1 9.6,-2.1 14.5,-2.8 4.5,-0.7 9,-0.1 13.5,-0.7 6.3,-0.9 5.1,4.3 5.6,9 0.3,2.9 0.4,5.9 0.9,8.8 0.4,2.1 1.4,4.1 1.8,6.1 0.7,4.4 -0.9,9.4 0.2,13.8 1.2,4.6 6.1,2.8 10.2,3.1 5.1,0.4 10.2,1.3 15.4,1.3 2.1,0 5.4,0.6 7.3,-0.3 2.9,-1.5 1.1,-3.5 -1.4,-4.9 -4.2,-2.2 -8,-2.7 -12.5,-2.2 -2.2,0.3 -4.4,0.6 -6.6,0.5 -3.8,0 -2.7,-1.4 -3.1,-4.9 -0.9,-8.9 -4.3,-19.5 -1.3,-28.3 1.3,-5.3 4.9,-6.7 9.7,-8.8 z"
   id="path6"
   inkscape:connector-curvature="0"
   style="stroke-width:0.29911751" />
</g>
</svg>