<?xml version="1.0" encoding="UTF-8" standalone="no"?>
<!-- Created with Inkscape (http://www.inkscape.org/) -->

<svg
   xmlns:dc="http://purl.org/dc/elements/1.1/"
   xmlns:cc="http://creativecommons.org/ns#"
   xmlns:rdf="http://www.w3.org/1999/02/22-rdf-syntax-ns#"
   xmlns:svg="http://www.w3.org/2000/svg"
   xmlns="http://www.w3.org/2000/svg"
   xmlns:sodipodi="http://sodipodi.sourceforge.net/DTD/sodipodi-0.dtd"
   xmlns:inkscape="http://www.inkscape.org/namespaces/inkscape"
   width="297mm"
   height="210mm"
   viewBox="0 0 297 210"
   version="1.1"
   id="svg8"
   inkscape:version="0.92.3 (unknown)"
   sodipodi:docname="Platyfish.svg">
  <defs
     id="defs2" />
  <sodipodi:namedview
     id="base"
     pagecolor="#ffffff"
     bordercolor="#666666"
     borderopacity="1.0"
     inkscape:pageopacity="0.0"
     inkscape:pageshadow="2"
     inkscape:zoom="0.35"
     inkscape:cx="-110"
     inkscape:cy="560"
     inkscape:document-units="mm"
     inkscape:current-layer="layer1"
     showgrid="false"
     inkscape:window-width="2356"
     inkscape:window-height="1123"
     inkscape:window-x="65"
     inkscape:window-y="24"
     inkscape:window-maximized="0" />
  <metadata
     id="metadata5">
    <rdf:RDF>
      <cc:Work
         rdf:about="">
        <dc:format>image/svg+xml</dc:format>
        <dc:type
           rdf:resource="http://purl.org/dc/dcmitype/StillImage" />
        <dc:title></dc:title>
      </cc:Work>
    </rdf:RDF>
  </metadata>
  <g
     inkscape:label="Layer 1"
     inkscape:groupmode="layer"
     id="layer1"
     transform="translate(0,-87)">
    <path
       style="fill:#000000;stroke-width:1"
       d="m 95.163756,259.44605 c -11.301883,-1.0649 -22.532458,-2.75429 -33.924778,-2.93584 -8.827664,-2.2366 -16.442784,-1.46257 -24.236274,-5.58822 -6.83681,-1.86179 -12.65663,-5.73158 -18.09482,-10.96908 -9.3130405,-8.3942 9.60101,-10.52959 14.03238,-17.33876 8.63957,-7.27011 19.02997,-11.77474 27.667762,-19.0246 10.362762,-7.81517 21.971313,-13.79458 33.048055,-20.31168 8.339789,-4.73302 19.034639,-6.06488 25.573999,-13.41987 4.99003,-9.98385 14.62869,-11.79907 20.52355,-20.75179 6.89407,-9.49847 17.95122,-13.0274 28.71925,-15.5885 10.07647,-3.31905 19.95671,-7.61873 30.50912,-9.19039 -3.65565,4.95233 -15.7713,8.55098 -13.84037,12.10378 3.82757,-3.16196 11.27939,-5.8894 3.5984,0.0705 -3.38435,1.85255 -4.71926,6.65514 0.0776,3.43161 -3.99262,5.37459 13.11852,-7.38674 4.41256,0.59881 -7.3346,3.07398 3.684,7.98671 -5.20033,11.05545 -4.18,1.7962 2.51256,4.39075 -2.08216,6.72989 3.28106,2.04443 -5.99974,4.88177 -1.05,7.72926 -4.09125,1.70412 -9.80739,3.55953 -1.73976,2.31771 1.13145,2.55662 -12.62599,7.07879 -1.35186,5.75765 10.06675,-0.63695 19.38441,-3.88411 28.92439,-6.28002 10.12438,-3.58364 19.39954,-8.91961 29.47163,-12.58122 7.17298,-1.47763 12.94069,-5.32081 19.74636,-5.16448 3.95197,1.48792 2.36466,-0.15043 1.93723,3.15917 9.1579,-1.95221 3.75658,5.34975 9.80704,7.8432 2.53958,2.32144 2.15972,6.73576 3.66875,8.2551 -4.39888,2.71845 9.90508,2.63855 0.80758,6.51585 -2.81302,1.49936 3.39688,0.41018 2.25195,2.91043 0.14932,1.50803 -3.60733,5.84692 0.97582,5.62261 -0.33427,2.52621 1.85671,4.10783 -1.11416,5.80184 8.13454,3.02338 -8.02328,7.54798 -0.58811,6.65477 5.36376,0.77236 -5.85026,5.30347 0.35463,6.5055 0.0916,4.97216 -8.39029,9.29082 -3.55175,11.39861 -2.78016,1.44652 -7.05182,1.62359 -1.38171,3.06971 -9.49894,5.76533 -20.96449,1.57339 -31.26288,2.2066 -9.76531,-0.53394 -20.05823,-4.37546 -29.82651,-1.67569 -9.9614,0.33575 -19.72281,2.2608 -28.81216,6.18899 -2.1534,2.8334 7.7305,2.17938 3.6826,5.09968 10.18675,0.71389 -2.01681,3.6614 -3.13612,4.28189 7.45684,-0.51043 10.17529,0.69626 9.55992,7.33494 -1.76863,1.87209 1.79461,5.61619 -4.22747,2.56843 -14.54707,-3.1743 11.74142,4.23168 5.06472,6.95565 -4.44764,-1.50197 -12.84711,-3.9805 -3.90576,0.43639 3.94296,2.79558 -9.27729,0.15883 -11.5293,-0.35647 -9.08566,-0.12548 -19.32903,-11.68292 -26.74815,-4.70319 -2.16923,2.67075 -6.22998,4.59366 -10.11702,5.54626 13.26468,1.7355 -4.30921,2.14065 -8.91503,1.55429 3.02171,1.76966 18.52092,2.45138 5.99675,2.77466 -10.35659,-2.30647 -20.47605,1.14582 -30.79137,1.87372 -4.29365,1.10208 -8.507848,2.25149 -12.984194,1.52683 z M 188.10334,153.47534 c -0.12617,-1.55501 1.34148,0.57569 0,0 z"
       id="path826"
       inkscape:connector-curvature="0" />
  </g>
</svg>
