<?xml version="1.0" encoding="UTF-8" standalone="no"?>
<!-- Created with Inkscape (http://www.inkscape.org/) -->

<svg
   xmlns:svg="http://www.w3.org/2000/svg"
   xmlns="http://www.w3.org/2000/svg"
   version="1.0"
   width="100%"
   height="100%"
   viewBox="0 0 465.8 182"
   id="Layer_1"
   xml:space="preserve"><defs
   id="defs7" />
<path
   d="m 197.5,44.5 c 7,-3.3 15.3,-24 32.7,-36 17.4,-12 32.3,-9.3 44,-4 11.7,5.3 39.3,31 37.3,40 -2,9 -11.3,12 -18.7,12.7 -7.4,0.7 -22,4 -13.7,4.7 8.3,0.7 67.3,12.7 79.7,11 12.3,-1.7 16.3,-2 34.7,-8.3 18.3,-6.3 45.3,-14.7 53,-6.3 7.7,8.3 1.7,-3.8 14.3,30.7 12.6,34.5 -0.5,96.8 -22.7,93 -22.2,-3.8 -34.8,-11.2 -46.5,-18.7 -11.7,-7.5 -32,-21.2 -36.8,-21.5 -4.8,-0.3 -46,-2 -62.7,0.2 -16.7,2.2 -37.3,3 -27.3,6.3 10,3.3 25.7,7.3 25.7,17.2 0,9.8 -4.8,16.8 -12,16.7 -7.2,-0.2 -9,0.3 -19.7,-5.8 -10.7,-6.2 -26.3,-21.5 -31.2,-19.3 0,0 -16.8,3.5 -9,5.5 7.8,2 13.5,16.3 7.5,17.2 -6,0.9 -21.2,0.5 -28.7,-5 -7.5,-5.5 -7.8,-5.5 -35,-4 -27.2,1.5 -41.5,1.5 -54.7,-3 0,0 -108.8,-43.7 -107.8,-55.8 1,-12.1 14.6,-18 72.1,-35.7 57.5,-17.7 84.2,-22 97.5,-24.7 13.3,-2.7 28,-7.1 28,-7.1 z"
   id="path3" />
</svg>