<?xml version="1.0" encoding="UTF-8" standalone="no"?>
<!-- Created with Inkscape (http://www.inkscape.org/) -->

<svg
   xmlns:dc="http://purl.org/dc/elements/1.1/"
   xmlns:cc="http://creativecommons.org/ns#"
   xmlns:rdf="http://www.w3.org/1999/02/22-rdf-syntax-ns#"
   xmlns:svg="http://www.w3.org/2000/svg"
   xmlns="http://www.w3.org/2000/svg"
   xmlns:sodipodi="http://sodipodi.sourceforge.net/DTD/sodipodi-0.dtd"
   xmlns:inkscape="http://www.inkscape.org/namespaces/inkscape"
   version="1.1"
   width="297mm"
   height="210mm"
   viewBox="0 0 1122.5197 793.7008"
   id="Layer_1"
   xml:space="preserve"
   sodipodi:docname="Pygoscelis_adeliae.svg"
   inkscape:version="0.92.3 (unknown)"><metadata
   id="metadata53"><rdf:RDF><cc:Work
       rdf:about=""><dc:format>image/svg+xml</dc:format><dc:type
         rdf:resource="http://purl.org/dc/dcmitype/StillImage" /><dc:title /></cc:Work></rdf:RDF></metadata><sodipodi:namedview
   pagecolor="#ffffff"
   bordercolor="#666666"
   borderopacity="1"
   objecttolerance="10"
   gridtolerance="10"
   guidetolerance="10"
   inkscape:pageopacity="0"
   inkscape:pageshadow="2"
   inkscape:window-width="2495"
   inkscape:window-height="1416"
   id="namedview51"
   showgrid="false"
   units="mm"
   inkscape:zoom="1.6051389"
   inkscape:cx="561.25984"
   inkscape:cy="396.85039"
   inkscape:window-x="65"
   inkscape:window-y="24"
   inkscape:window-maximized="1"
   inkscape:current-layer="Layer_1" /><defs
   id="defs99">
        
        
        
    
            
            
            
            
            
            
            
            
            
            
            
            
            
            
            
            
            
            
            
            
            
            
            
            
            
            
            
            
            
            
            
            
            
            
            
            
            
            
            
            
            
            
            
            
            
            
            
            
            
            
            
            
            
            
            
            
            
            
            
            
            
            
            
            
            
            
            
            
            
            
            
            
            
            
            
            
            
            
            
            
            
            
            
            
            
            
            
            
            
            
            
        </defs>
    
    <path
   d="m 403.50518,140.57955 c 0.25755,0 0.38633,0 0.64389,0 0,-0.25756 0,-0.32195 0,-0.32195 3.21948,-0.25756 6.43897,-0.32195 9.65845,-0.32195 0,0.25756 0,0.38634 0,0.6439 0.25756,0 0.38634,0 0.6439,-0.0644 1.35218,-0.25756 2.89753,-0.51512 4.50727,-0.57951 v -0.32194 c 4.24972,-0.25756 8.62822,-0.32195 12.87794,-0.32195 0,0.25756 0,0.38634 0,0.64389 0.25755,0 0.38633,0 0.64389,0 20.60469,2.57559 36.31577,10.04479 47.00445,22.53639 -9.72284,11.91208 -16.41936,26.97926 -19.8964,45.07276 -0.0644,0.25756 -0.0644,0.38633 -0.0644,0.64389 0,2.57559 -0.0644,5.15118 -0.32195,7.72676 0,0 -0.0644,0 -0.32195,0 -2.31803,11.2038 -4.70044,22.34321 -7.01847,33.48262 -0.0644,0.25756 -0.0644,0.38634 -0.0644,0.6439 -22.27882,20.41152 -44.04253,41.46694 -65.22673,62.9087 -7.91992,8.17749 -15.32473,16.93448 -22.08565,26.27098 -17.96471,24.79002 -33.6114,51.76929 -46.94006,80.9378 -5.34434,11.52575 -8.88577,24.79002 -10.62429,39.79281 0,4.50728 0,9.01455 0,13.52183 0,0.25756 0,0.38634 0,0.64389 0,0.25756 0,0.38634 0.0644,0.57951 0.5795,2.38242 0.83706,5.15117 0.5795,8.43505 0.25756,0 0.32195,0.0644 0.32195,0.0644 1.93169,8.56447 5.73068,15.13157 11.26819,19.8964 0,0.25756 0,0.38634 0,0.6439 0.25756,0 0.38634,0.0644 0.57951,0.12878 2.44681,1.80291 5.9232,2.57558 10.36673,2.4468 3.79899,-1.99608 6.82531,-4.57166 9.07895,-7.91992 10.36673,-15.19596 20.5403,-30.64948 30.58508,-46.16739 16.61254,-25.82025 35.60749,-49.45126 56.92046,-70.82862 0.25756,0 0.38634,-0.0644 0.45073,-0.19317 2.06047,-2.25364 4.44224,-4.05655 7.27603,-5.6019 0,-0.25756 0,-0.38634 0.0644,-0.6439 1.48161,-5.47312 4.25036,-7.66237 8.30627,-6.43897 -0.6439,4.82923 -0.90146,10.23796 -0.6439,16.09742 0,0.25756 0,0.38634 0,0.6439 0,3.21948 -0.0644,6.43896 -0.32195,9.65844 0,0 -0.0644,0 -0.32195,0 0.38634,3.99216 0,7.27604 -1.15901,9.72284 -0.12878,0.19382 -0.12878,0.32195 -0.12878,0.57951 0,3.47704 -0.0644,6.8253 -0.32195,10.23796 0,0.0644 -0.0644,0.0644 -0.32195,0.0644 0,0.25755 0,0.38633 0,0.64389 0,0.25756 0,0.38634 0,0.6439 0,2.83314 0,5.53751 0,8.37065 0,0.25756 0,0.38634 0,0.6439 0,2.57559 -0.0644,5.15117 -0.32194,7.66237 0,0.0644 -0.0644,0.0644 -0.32195,0.0644 -0.38634,5.40873 -0.6439,11.01063 -0.6439,16.74131 0,0.25756 0,0.38634 0,0.6439 0,2.96192 0,6.05263 0,9.01455 0,0.25756 0,0.38634 0,0.6439 0,0.25756 0,0.38633 0,0.64389 1.41657,19.89641 3.79899,38.69819 7.08286,56.6629 2.06047,3.92777 3.34827,8.62822 3.86338,14.16573 1.60974,16.48375 5.85946,30.32753 12.94232,41.66011 8.17749,12.94232 17.57903,24.79002 28.26706,35.60748 0.25756,5.34434 -0.19316,10.10918 -1.2234,14.23011 0,0.12878 -0.0644,0.38699 -0.0644,0.57951 -0.70828,2.06047 -0.90145,4.63606 -0.70828,7.72676 0.0644,0.19317 0.0644,0.45073 0.0644,0.6439 -0.38633,3.28387 -0.5795,6.63213 -0.64389,10.30234 0,0.19317 0,0.45073 0,0.6439 -0.83707,1.73852 -1.80291,3.34826 -3.09071,4.63605 -0.065,0.12878 -0.12877,0.32195 -0.12877,0.51512 -1.8673,0.45073 -4.05655,0.70829 -6.43897,0.6439 -0.25756,0 -0.38634,0 -0.6439,0 -5.02239,2.25364 -11.26819,3.34826 -18.673,3.21948 -0.25756,0 -0.38634,0 -0.64389,0 -4.44289,0.77268 -9.33651,0.96585 -14.80963,0.6439 -0.25755,0 -0.38633,0 -0.64389,0 -1.73852,0.83706 -2.89754,2.31802 -3.54143,4.37849 0,0.065 -0.0644,0.12878 -0.32195,0.12878 0,0.19317 -0.0644,0.38634 -0.19317,0.51512 -1.67478,1.93169 -1.15902,2.83315 1.48096,2.70437 0,0.19316 0,0.45072 0,0.64389 0.25756,0 0.32195,0.0644 0.38634,0.12878 4.31411,5.85946 9.3365,10.94624 15.06718,15.32474 0,0.19317 0,0.45073 0,0.6439 0.25756,0 0.32195,0 0.38634,0.12878 0.5795,0.83706 1.2234,1.48096 2.18925,1.80291 0,0.19317 0,0.45072 0,0.64389 0,0.19317 0,0.45073 0,0.6439 0.25755,0 0.38633,0 0.64389,0 2.25364,0.32195 4.44289,0.77268 6.43897,1.28779 0,-0.19317 0,-0.32194 0.0644,-0.32194 1.93169,-0.6439 3.79899,-1.15902 5.73068,-1.60975 0,-0.19317 0,-0.32194 0.0644,-0.32194 1.67477,-0.45073 2.89753,-0.32195 3.79899,0.32194 0.0644,1.15902 -0.32195,1.80291 -1.2878,1.93169 -0.25756,0 -0.38633,0 -0.64389,0 0,0.19317 0,0.45073 0,0.6439 0.19317,1.73852 1.28779,2.57559 3.21948,2.57559 0,0.25756 0,0.38633 0,0.64389 0.25756,0 0.38634,0 0.6439,0.0644 2.18924,0.51576 4.12093,0.51576 5.79507,-0.0644 0,-0.25756 0,-0.32195 0.12877,-0.38633 2.38242,-1.35283 5.60191,-1.86731 9.52967,-1.54536 0.25756,0 0.38634,-0.0644 0.45073,-0.19317 1.86666,-2.4468 4.70045,-3.86338 8.56383,-4.3141 0,-0.19317 0,-0.32195 0.0644,-0.32195 3.15509,-0.19317 6.37457,-0.32195 9.59406,-0.32195 0,-0.19317 0,-0.32195 0.0644,-0.32195 2.51119,-0.19317 5.08678,-0.32195 7.66236,-0.32195 0,-0.19317 0,-0.32194 0.0644,-0.32194 3.4133,-0.19317 6.76092,-0.32195 10.23796,-0.32195 0.25756,0 0.38634,0 0.6439,0 1.03023,0 2.18925,0 3.21948,0 0.25756,0 0.38634,-0.0644 0.51512,-0.19317 2.76875,-2.12486 5.34434,-4.44289 7.85554,-6.8897 0,-0.19316 0,-0.45072 0,-0.64389 0.0644,-2.96193 0.25755,-5.79507 0.64389,-8.37066 -0.25756,0 -0.32195,-0.0644 -0.32195,-0.0644 -0.5795,-3.02631 -0.38633,-5.6019 0.32195,-7.66237 0,-0.19317 0,-0.45072 0.0644,-0.64389 0.45073,-8.24188 0.38698,-16.2262 -0.0644,-23.82418 -0.25756,0 -0.38634,-0.0644 -0.45073,-0.19317 -0.70828,-0.83706 -1.41657,-1.60974 -2.12485,-2.38241 0,-0.19317 -0.0644,-0.45073 -0.0644,-0.57951 -1.80356,-4.82922 -2.18925,-8.94952 -1.22341,-12.29843 0,-0.19316 0.0644,-0.32194 0.0644,-0.38633 2.38242,-0.83771 4.25036,-0.12878 5.73068,2.31802 0.25756,0 0.38634,0 0.6439,0.0644 3.28387,0.12878 6.05263,1.41658 8.37065,3.79899 0.25756,0 0.38634,0.0644 0.51512,0.12878 3.54143,3.09071 7.91993,5.40809 13.00671,6.95409 0,0.19317 0,0.45072 0,0.64389 0,0.19317 0,0.45073 0.0644,0.6439 0.32195,3.7346 0.70893,7.34042 1.22341,10.94624 0.25691,0 0.32194,0.0644 0.38633,0.12878 1.73852,6.05199 4.3785,11.13941 7.98432,15.32474 -0.83706,5.21556 -1.67477,10.36674 -2.5112,15.45352 0,0.19317 -0.0644,0.45073 -0.0644,0.64389 -3.7346,4.3785 -8.0487,8.24188 -12.94232,11.39697 -0.19381,0.12878 -0.32194,0.19317 -0.5795,0.19317 -2.12486,2.83315 -2.83315,7.08287 -2.25364,12.87794 h -0.32195 c 0,0.25755 -0.0644,0.38633 -0.12878,0.5795 -1.03023,2.12486 -1.86666,4.57167 -2.44681,7.14725 0.25756,0 0.38634,0 0.6439,0 7.4692,0.45073 15.19596,0.90146 23.18028,1.2878 0,0.25756 0.0644,0.32195 0.12878,0.38634 1.5447,0.96584 2.96192,1.93169 4.37849,2.83314 0,0.25756 0,0.38634 0,0.6439 0,0.25756 0,0.38634 0,0.64389 0,0.25756 0.0644,0.38634 0.0644,0.57951 1.22341,3.7346 2.44681,7.33978 3.79899,11.01063 0,0.19317 0,0.45073 0,0.6439 0.25692,0 0.38634,0.0644 0.57887,0.12878 2.57558,0.77267 5.40873,0.70828 8.43569,-0.12878 0,-0.19317 0.0644,-0.38634 0.12877,-0.45073 1.67414,-1.41657 3.54144,-2.51055 5.66629,-3.41265 0,-0.25756 0.0644,-0.38634 0.12878,-0.38634 6.88905,-3.21948 14.1007,-3.47704 21.76371,-0.90145 0,0.25755 0,0.38633 0,0.64389 0,0.19317 0.0644,0.32195 0.0644,0.38634 0.6439,0.19381 1.2234,0.32195 1.8673,0.25756 0,0.19317 0,0.38634 0,0.6439 0.25691,0 0.38634,0.0644 0.51512,0.12878 2.18924,1.86665 3.92777,4.18532 5.27995,6.95408 0,0.25756 0,0.38634 0,0.64389 0.25691,0 0.38634,0 0.64389,0 1.03024,0 2.18861,0 3.21949,0 0,-0.25755 0.0644,-0.32194 0.0644,-0.32194 2.18925,-0.83707 3.86338,-1.93169 5.08678,-3.54143 0,-0.19317 0.0644,-0.45073 0.12878,-0.57951 1.86666,-3.7346 3.28387,-7.8549 4.3785,-12.29843 -0.70893,-1.8673 -0.96585,-4.18532 -0.70893,-7.08286 0.065,-0.25756 0.065,-0.38634 0.065,-0.6439 -1.03088,-1.28779 -1.80291,-2.96192 -2.25364,-5.08678 0,-0.0644 -0.065,-0.0644 -0.32195,-0.0644 -0.64389,-9.91601 -3.41265,-17.64276 -8.24187,-23.30905 -0.065,-0.12878 -0.12878,-0.32195 -0.12878,-0.51512 -0.065,-5.27995 -0.25756,-10.43113 -0.57951,-15.45352 -0.0644,-0.19317 -0.0644,-0.45073 -0.0644,-0.6439 0,-0.19317 0,-0.45072 0,-0.64389 -0.32195,-7.21165 -0.065,-13.84378 0.6439,-19.9608 1.22276,-3.0907 2.70436,-5.98824 4.57166,-8.75699 11.46136,-16.74131 22.21444,-34.44847 32.13044,-53.05708 0,-0.19317 0.0644,-0.45073 0.0644,-0.57951 1.35283,-5.9232 3.09071,-11.5251 5.08679,-16.8057 0,-0.25756 0.0644,-0.38634 0.0644,-0.64389 2.12485,-11.52575 3.86338,-23.56662 5.08678,-36.05821 0.19317,0 0.38634,-0.0644 0.38634,-0.12878 6.69652,-15.06654 10.81746,-32.64556 12.49159,-52.67074 0.19317,0 0.32195,-0.0644 0.38634,-0.0644 0.45073,-1.60975 1.15901,-2.89754 2.18925,-3.79899 0,-0.25756 0,-0.38634 0.0644,-0.6439 0.25756,-5.73068 1.09462,-10.88185 2.51119,-15.45352 0,-0.25756 0,-0.38634 0,-0.6439 -0.32194,-7.79114 -0.12878,-15.13156 0.6439,-21.89248 0,-0.25756 0,-0.38634 -0.065,-0.6439 -0.32195,-3.41265 -0.32195,-6.63213 0.065,-9.65844 -2.64062,-12.81355 -4.76483,-26.07782 -6.37458,-39.92159 -0.0644,-0.25756 -0.0644,-0.38634 -0.0644,-0.6439 -0.77267,-2.5112 -0.96584,-5.47312 -0.70893,-9.01455 0.065,-0.25756 0.065,-0.38634 0.065,-0.6439 0,-0.25756 0,-0.38634 0,-0.6439 -1.22341,-3.21948 -1.8673,-7.08286 -1.93169,-11.59013 0,-0.25756 0,-0.38634 0,-0.6439 -0.77268,-1.99608 -0.96585,-4.57167 -0.70893,-7.72676 0.065,-0.25756 0.065,-0.38634 0.065,-0.6439 0,-0.25755 -0.065,-0.38633 -0.12878,-0.5795 -1.35218,-2.8325 -1.35218,-4.95736 0.12878,-6.50336 1.54471,1.67413 2.8325,3.60582 3.92777,5.79507 3.21948,6.63214 7.1479,12.55598 11.91209,17.77155 17.57773,19.63884 31.61532,42.88351 42.11083,69.79839 10.10918,17.32082 18.99495,35.80065 26.52854,55.56827 2.63998,6.82595 4.76419,13.58686 6.43897,20.21836 6.63213,26.20659 15.19596,50.15954 25.62708,71.66569 0.19317,0 0.32195,-0.0644 0.38634,-0.12878 2.96257,-7.40481 4.95801,-15.71044 6.05263,-24.98319 0,-0.25756 0,-0.38634 0,-0.6439 0,-4.50727 0,-9.01455 0,-13.52183 0,-0.25755 0,-0.38633 0,-0.64389 0,-0.90146 0,-1.67413 0,-2.57559 -4.25036,-29.8768 -10.23796,-58.01508 -17.96472,-84.41484 -0.0644,-0.19381 -0.0644,-0.32195 -0.0644,-0.57951 -1.60975,-1.15901 -2.31868,-3.28387 -1.93169,-6.43896 0,-0.25756 0,-0.38634 0,-0.6439 -11.91209,-30.84265 -25.69148,-60.07555 -41.40256,-87.63433 -15.26034,-26.91487 -31.48654,-52.99269 -48.61419,-78.36221 -9.07894,-13.39305 -17.70715,-27.17244 -25.88464,-41.33816 -7.21164,-25.43392 -18.54422,-46.68251 -33.99774,-63.81016 -2.31867,-2.63997 -3.92841,-6.05262 -4.63606,-10.23795 -16.16244,-26.52854 -37.60356,-48.03469 -64.06771,-64.647219 -2.31867,-1.416572 -4.57231,-2.961924 -7.01847,-4.764834 -6.88969,-5.022394 -13.84378,-10.044787 -20.99103,-14.938401 -2.76875,-0.515118 -5.27995,-1.223404 -7.59798,-2.189249 -0.0644,-0.06439 -0.12878,-0.193169 -0.12878,-0.386338 -1.67413,0 -3.47704,0 -5.15117,0 -0.25756,0 -0.38634,0 -0.6439,0 -4.89361,-3.283872 -11.33258,-5.022393 -19.31689,-5.151172 -0.25756,0 -0.38634,0 -0.6439,0 -3.21948,0 -6.43897,0 -9.65845,0 -0.25756,0 -0.38634,0 -0.6439,0 -26.39976,5.6019 -45.07276,19.252508 -56.019,40.887433 -0.32195,0.70829 -1.03023,1.28779 -2.12486,1.73852 -7.85554,3.34826 -15.51791,6.69653 -22.98711,10.17357 -1.93169,0 -3.86338,0 -5.79507,0 -0.25755,0 -0.38633,0 -0.64389,0 -17.77155,1.93169 -29.94119,9.46528 -36.57333,22.60077 -0.12878,0.19317 -0.12878,0.32195 -0.12878,0.5795 7.85554,-0.70828 16.41936,-1.80291 25.75587,-3.21948 z"
   id="path9"
   inkscape:connector-curvature="0"
   style="stroke-width:1" /><path
   d="m 306.27679,473.47409 c 0,0.25756 0,0.38634 0,0.64389 0.25756,0 0.38634,0 0.6439,0 0,-0.25755 0,-0.38633 0,-0.64389 0,-4.50728 0,-9.01455 0,-13.52183 -0.25756,0 -0.38634,0 -0.6439,0 0,4.50728 0,9.01455 0,13.52183 z"
   id="path11"
   style="fill:#ced0d3;stroke-width:1"
   inkscape:connector-curvature="0" /><path
   d="m 330.10096,506.31281 c -4.44288,0.12878 -7.91992,-0.64389 -10.36673,-2.4468 -0.19317,-0.0644 -0.32195,-0.12878 -0.57951,-0.12878 0,0.25756 0.0644,0.38634 0.12878,0.45073 2.96193,2.51119 6.56775,3.15509 10.81746,2.12485 z"
   id="path15"
   style="fill:#999b9f;stroke-width:1"
   inkscape:connector-curvature="0" /><path
   d="m 502.66525,67.819237 c 3.21948,0 6.43897,0 9.65845,0 0,-0.257559 0,-0.450728 0,-0.643897 -3.21948,0 -6.43897,0 -9.65845,0 -0.25756,0 -0.38634,0 -0.6439,0 0,0.193169 0,0.386338 0,0.643897 0.25756,0 0.38634,0 0.6439,0 z"
   id="path17"
   style="fill:#898b8e;stroke-width:1"
   inkscape:connector-curvature="0" /><path
   d="m 413.80752,140.57955 c 0,-0.25756 0,-0.38634 0,-0.6439 -3.21948,0 -6.43897,0.0644 -9.65845,0.32195 0,0 0,0.0644 0,0.32195 0.25756,0 0.38634,0 0.6439,0 2.96192,0 6.05263,0 9.01455,0 z"
   id="path19"
   style="fill:#76767b;stroke-width:1"
   inkscape:connector-curvature="0" /><path
   d="m 431.83663,139.93565 c 0,-0.25755 0,-0.38633 0,-0.64389 -4.24972,0 -8.62822,0.0644 -12.87794,0.32195 v 0.32194 c 0.25756,0 0.38634,0 0.6439,0 4.12094,0 8.1131,0 12.23404,0 z"
   id="path21"
   style="fill:#84858b;stroke-width:1"
   inkscape:connector-curvature="0" /><path
   d="m 459.20223,215.91545 c 0.25756,-2.57558 0.32195,-5.15117 0.32195,-7.72676 -0.70829,1.8673 -0.96585,4.18533 -0.6439,7.08287 0,0.25755 0,0.38633 0,0.64389 0.25756,0 0.32195,0 0.32195,0 z"
   id="path25"
   style="fill:#a1a2a3;stroke-width:1"
   inkscape:connector-curvature="0" /><path
   d="m 690.03916,350.48984 c 0,-0.25756 0,-0.38634 0,-0.6439 0,-2.57558 0,-5.15117 0,-7.72676 -0.19317,0 -0.45073,0 -0.6439,0 0,0.25756 0,0.38634 -0.065,0.6439 -0.25692,3.15509 -0.0638,5.73068 0.70893,7.72676 z"
   id="path27"
   style="fill:#b4b5ba;stroke-width:1"
   inkscape:connector-curvature="0" /><path
   d="m 692.61474,373.02622 c 0,-0.25756 0,-0.38634 0,-0.6439 0,-2.96192 0,-6.05262 0,-9.01455 -0.19316,0 -0.45072,0 -0.64389,0 0,0.25756 0,0.38634 -0.065,0.6439 -0.25691,3.54143 -0.0637,6.50335 0.70893,9.01455 z"
   id="path29"
   style="fill:#6c6d72;stroke-width:1"
   inkscape:connector-curvature="0" /><path
   d="m 698.73176,446.43043 c 0.19317,-7.4692 0.32195,-15.06718 0.32195,-22.53638 -0.77268,6.76092 -0.96584,14.10134 -0.6439,21.89248 0,0.25756 0,0.38634 0,0.6439 z"
   id="path31"
   style="fill:#a1a2a5;stroke-width:1"
   inkscape:connector-curvature="0" /><path
   d="m 812.37951,550.09778 c 0,0.25756 0,0.38634 0,0.6439 h 0.32195 c 0.19317,-4.76484 0.32195,-9.40089 0.32195,-14.16573 -0.19317,0 -0.45073,0 -0.6439,0 0,4.50728 0,9.01456 0,13.52183 z"
   id="path33"
   style="fill:#c4c6c9;stroke-width:1"
   inkscape:connector-curvature="0" /><path
   d="m 442.13897,385.26026 c -0.70829,2.51119 -0.96584,5.47312 -0.6439,9.01455 0,0.25756 0,0.38634 0,0.64389 0.25756,0 0.32195,0 0.32195,0 0.25756,-3.21948 0.32195,-6.43896 0.32195,-9.65844 z"
   id="path35"
   style="fill:#424242;stroke-width:1"
   inkscape:connector-curvature="0" /><path
   d="m 440.20728,405.22105 c -0.70829,2.63998 -0.96584,5.85946 -0.6439,9.65845 0,0.25756 0,0.38634 0,0.6439 0.25756,0 0.32195,0 0.32195,-0.0644 0.25756,-3.41266 0.32195,-6.76092 0.32195,-10.23796 z"
   id="path37"
   style="fill:#c4c6c8;stroke-width:1"
   inkscape:connector-curvature="0" /><path
   d="m 439.56338,425.82574 c -0.25755,0 -0.38633,0 -0.64389,0 0,2.31803 0,4.76484 0,7.08286 0,0.25756 0,0.38634 0,0.6439 0.25756,0 0.32195,0 0.32195,-0.0644 0.25755,-2.5112 0.32194,-5.08678 0.32194,-7.66237 z"
   id="path39"
   style="fill:#9a9b9f;stroke-width:1"
   inkscape:connector-curvature="0" /><path
   d="m 439.56338,416.81119 c -0.70828,2.25364 -0.96584,5.08678 -0.64389,8.37065 0,0.25756 0,0.38634 0,0.6439 0.25756,0 0.38634,0 0.64389,0 0,-0.25756 0,-0.38634 0,-0.6439 0,-2.83314 0,-5.53751 0,-8.37065 z"
   id="path41"
   style="fill:#d4d4d4;stroke-width:1"
   inkscape:connector-curvature="0" /><path
   d="m 437.95364,460.53177 c 0,0.0644 0.0644,0.0644 0.32195,0.0644 0,-0.25756 0,-0.38634 0,-0.6439 0,-2.96192 0,-6.05263 0,-9.01455 -0.70829,2.63997 -0.90145,5.85946 -0.32195,9.59406 z"
   id="path43"
   style="fill:#bbbcc0;stroke-width:1"
   inkscape:connector-curvature="0" /><path
   d="m 488.43514,631.87265 c -0.19382,-3.0907 0,-5.66629 0.70828,-7.72676 -1.48096,1.73852 -1.80291,4.57167 -0.96584,8.30627 0,0 0.0644,0.0644 0.32194,0.0644 0,-0.19317 0,-0.45073 -0.0644,-0.6439 z"
   id="path45"
   style="fill:#76787b;stroke-width:1"
   inkscape:connector-curvature="0" /><path
   d="m 476.90939,686.02435 c -0.25756,-0.0644 -0.38634,-0.0644 -0.6439,-0.0644 0,0.25756 0,0.32195 0.0644,0.32195 4.12094,1.35218 7.46984,0.77268 10.23796,-1.60974 0.25755,0 0.38633,0 0.64389,0 2.18925,0 4.24972,0 6.43897,0 0.25756,0 0.38634,0 0.38634,-0.12878 1.4816,-2.63998 4.18532,-4.18533 7.98431,-4.3785 0,-0.19317 0,-0.45072 0,-0.64389 -0.25756,0 -0.38633,0 -0.64389,0 -3.86338,0.45072 -6.69653,1.8673 -8.56383,4.3141 -0.065,0.12878 -0.19317,0.19317 -0.45073,0.19317 -3.92776,-0.32195 -7.14725,0.19317 -9.52967,1.54536 -0.12877,0.0644 -0.12877,0.12813 -0.12877,0.38633 -1.67414,0.57951 -3.60583,0.57951 -5.79507,0.0644 z"
   id="path47"
   style="fill:#989a9b;stroke-width:1"
   inkscape:connector-curvature="0" /><path
   d="m 502.02135,679.521 c 0.25756,0 0.38634,0 0.6439,0 2.83314,0 5.53751,0 8.37066,0 0,-0.19317 0,-0.45073 0,-0.6439 -3.21949,0 -6.43897,0.12878 -9.59406,0.32195 -0.0644,0 -0.0644,0.12878 -0.0644,0.32195 0.25756,0 0.38633,0 0.64389,0 z"
   id="path49"
   style="fill:#6c6c6c;stroke-width:1"
   inkscape:connector-curvature="0" /><path
   d="m 502.66525,680.16489 c 3.28387,0.32195 6.11702,0.12878 8.37066,-0.64389 -2.83315,0 -5.53752,0 -8.37066,0 -0.25756,0 -0.38634,0 -0.6439,0 0,0.19317 0,0.45072 0,0.64389 0.25756,0 0.38634,0 0.6439,0 z"
   id="path51"
   style="fill:#c9c9c9;stroke-width:1"
   inkscape:connector-curvature="0" /><path
   d="m 455.59641,678.2332 c -0.90146,3.60582 1.03023,5.34435 5.85946,5.15118 -2.89754,-0.57951 -4.05655,-1.41658 -3.60582,-2.44681 0.0644,-0.12878 0.12813,-0.12878 0.38634,-0.12878 0,-0.19317 0,-0.45073 0,-0.6439 0,-0.19317 0,-0.45072 0,-0.64389 -0.96585,-0.32195 -1.60975,-0.96585 -2.18925,-1.80291 -0.0644,-0.12878 -0.12814,-0.12878 -0.38634,-0.12878 0,0.19317 0,0.45072 -0.0644,0.64389 z"
   id="path53"
   style="fill:#c5c5c5;stroke-width:1"
   inkscape:connector-curvature="0" /><path
   d="m 458.30077,681.13074 c 2.7694,1.09462 5.08679,1.41657 7.01848,0.96584 -1.99608,-0.51511 -4.18533,-0.96584 -6.43897,-1.28779 -0.25756,0 -0.38634,0 -0.64389,0 0,0.19317 0,0.32195 0.0644,0.32195 z"
   id="path55"
   style="fill:#a3a3a3;stroke-width:1"
   inkscape:connector-curvature="0" /><path
   d="m 471.43627,680.16489 c -0.0644,1.09463 0.45072,1.60975 1.60974,1.2878 0,0.19317 0,0.45072 0,0.64389 0.25756,0 0.38633,0 0.64389,0 0.96585,-0.12878 1.35219,-0.77267 1.2878,-1.93169 -0.90146,-0.64389 -2.12486,-0.77267 -3.79899,-0.32194 -0.0644,0 -0.0644,0.12877 -0.0644,0.32194 z"
   id="path57"
   style="fill:#bfbfbf;stroke-width:1"
   inkscape:connector-curvature="0" /><path
   d="m 458.23639,652.47734 c -4.89362,0 -9.91601,0 -14.80963,0 -0.25755,0 -0.38633,0 -0.64389,0 0,0.19317 0,0.45073 0,0.6439 0.25756,0 0.38634,0 0.64389,0 5.47312,0.32195 10.36674,0.12878 14.80963,-0.6439 z"
   id="path59"
   style="fill:#7d7e82;stroke-width:1"
   inkscape:connector-curvature="0" /><path
   d="m 438.91949,656.98462 c 0,0.19317 0,0.45072 0,0.64389 0.25756,0 0.32195,-0.0644 0.32195,-0.12878 0.64389,-2.06047 1.80291,-3.54143 3.54143,-4.37849 0,-0.19317 0,-0.45073 0,-0.6439 -2.31803,0.45073 -3.60582,1.93169 -3.86338,4.50728 z"
   id="path61"
   style="fill:#a5a7aa;stroke-width:1"
   inkscape:connector-curvature="0" /><path
   d="m 438.40437,657.75729 c -2.89753,2.57559 -2.31867,3.86338 1.80291,3.7346 0,-0.19317 0,-0.45073 0,-0.64389 -2.63998,0.12878 -3.15509,-0.77268 -1.48096,-2.70437 0.12878,-0.12878 0.19317,-0.32195 0.19317,-0.51512 -0.25756,0 -0.38634,0.0644 -0.51512,0.12878 z"
   id="path63"
   style="fill:#8d8e92;stroke-width:1"
   inkscape:connector-curvature="0" /><path
   d="m 553.01796,620.08934 c 3.34827,3.60582 7.79115,6.05199 13.39305,7.27603 0,-0.19317 0,-0.45072 0,-0.64389 -5.08678,-1.54536 -9.46528,-3.86338 -13.00671,-6.95409 -0.12878,-0.065 -0.25691,-0.12878 -0.51512,-0.12878 0,0.19317 0.0644,0.38634 0.12878,0.45073 z"
   id="path65"
   style="fill:#a0a2a5;stroke-width:1"
   inkscape:connector-curvature="0" /><path
   d="m 557.39646,694.33062 c 0,0.25756 0,0.38634 0,0.6439 h 0.32195 c -0.57951,-5.79507 0.12878,-10.04479 2.25364,-12.87794 -2.31803,-0.19317 -3.1551,1.09463 -2.63998,3.86338 0,0.25756 0.0644,0.38634 0.0644,0.6439 0,2.57559 0,5.15117 0,7.72676 z"
   id="path67"
   style="fill:#9a9ca0;stroke-width:1"
   inkscape:connector-curvature="0" /><path
   d="m 555.46477,702.70127 c -0.25756,0 -0.38634,0 -0.6439,0 0.57951,-2.57558 1.41658,-5.02239 2.44681,-7.14725 0.065,-0.19381 0.12878,-0.32195 0.12878,-0.5795 -0.25756,0 -0.38634,0 -0.6439,0 0,0.25755 -0.0644,0.38633 -0.19317,0.45072 -1.99672,2.25364 -2.64062,4.89362 -1.73852,7.91993 v 0.32195 c 11.52511,-0.90146 20.99103,0.70829 28.33145,4.82922 0,-0.25755 0,-0.38633 0,-0.64389 0,-0.25756 0,-0.38634 0,-0.6439 -1.41657,-0.90145 -2.83314,-1.8673 -4.37849,-2.83314 -0.065,-0.0644 -0.12878,-0.12814 -0.12878,-0.38634 -7.98432,-0.38634 -15.71108,-0.83707 -23.18028,-1.2878 z"
   id="path69"
   style="fill:#858585;stroke-width:1"
   inkscape:connector-curvature="0" /><path
   d="m 557.39646,686.60386 c -0.70829,1.99608 -0.96584,4.57167 -0.70829,7.72676 0.0644,0.25756 0.0644,0.38634 0.0644,0.6439 0.25756,0 0.38634,0 0.6439,0 0,-0.25756 0,-0.38634 0,-0.6439 0,-2.57559 0,-5.15117 0,-7.72676 z"
   id="path71"
   style="fill:#c9c9c9;stroke-width:1"
   inkscape:connector-curvature="0" /><path
   d="m 541.94294,660.848 c 0,-2.38242 0,-4.70045 0,-7.08287 -0.70828,2.06047 -0.90145,4.63606 -0.32195,7.66237 0,0 0.0644,0.0644 0.32195,0.0644 0,-0.19317 0,-0.45073 0,-0.64389 z"
   id="path73"
   style="fill:#c1c2c5;stroke-width:1"
   inkscape:connector-curvature="0" /><path
   d="m 529.06501,677.58931 c -2.5112,0.77267 -5.47312,0.96584 -9.01455,0.64389 -0.25756,0 -0.38634,0 -0.6439,0 0,0.19317 0,0.45073 0,0.6439 0.25756,0 0.38634,0 0.6439,0 5.15117,0.45073 9.40089,0 12.87793,-1.28779 -1.03023,0 -2.18925,0 -3.21948,0 -0.25756,0 -0.38634,0 -0.6439,0 z"
   id="path75"
   style="fill:#c5c6c9;stroke-width:1"
   inkscape:connector-curvature="0" /><path
   d="m 511.6798,678.8771 c 2.57559,0 5.15117,0 7.72676,0 0,-0.19317 0,-0.45073 0,-0.6439 -0.25756,0 -0.38634,0 -0.6439,0 -2.57558,0 -5.15117,0.12878 -7.66236,0.32195 -0.0644,0 -0.0644,0.12878 -0.0644,0.32195 0.25755,0 0.38633,0 0.64389,0 z"
   id="path77"
   style="fill:#797979;stroke-width:1"
   inkscape:connector-curvature="0" /><path
   d="m 519.40656,678.8771 c -2.57559,0 -5.15117,0 -7.72676,0 -0.25756,0 -0.38634,0 -0.64389,0 0,0.19317 0,0.45073 0,0.6439 0.25755,0 0.38633,0 0.64389,0 3.1551,0.32195 5.73068,0.12878 7.72676,-0.6439 z"
   id="path79"
   style="fill:#c6c6c6;stroke-width:1"
   inkscape:connector-curvature="0" /><path
   d="m 519.40656,678.2332 c 0.25756,0 0.38634,0 0.6439,0 3.54143,0.32195 6.50335,0.12878 9.01455,-0.64389 -3.47704,0 -6.8253,0.12878 -10.23796,0.32195 -0.0644,0 -0.0644,0.12877 -0.0644,0.32194 0.25756,0 0.38634,0 0.6439,0 z"
   id="path81"
   style="fill:#848689;stroke-width:1"
   inkscape:connector-curvature="0" /><path
   d="m 602.46922,716.867 c 0.38634,0 0.90081,0 1.28779,0 0,-0.25756 0.0644,-0.32195 0.0644,-0.38634 6.504,-2.25364 13.07111,-2.38242 19.89641,-0.25756 0,-0.25756 0,-0.38634 0,-0.64389 -7.66237,-2.57559 -14.87466,-2.31803 -21.76371,0.90145 -0.065,0 -0.12878,0.12814 -0.12878,0.38634 0.25692,0 0.38634,0 0.6439,0 z"
   id="path83"
   style="fill:#8e9091;stroke-width:1"
   inkscape:connector-curvature="0" /><path
   d="m 604.33588,716.73822 c 7.53359,-1.99608 14.35954,-1.54471 20.66972,1.41657 0,0.19317 0.0644,0.38634 0.12878,0.51512 0.77203,0.90145 1.54471,1.8673 2.44681,2.70437 0,0.19316 0.0644,0.45072 0.0644,0.64389 0.32195,1.41657 0.70893,2.63998 1.2234,3.86338 0,0.19317 0,0.45073 0,0.6439 0.25692,0 0.38634,0 0.6439,0 1.67413,0 3.4764,0 5.15117,0 v -0.32195 c 1.35218,0.12878 2.18861,-0.19317 2.57559,-0.96585 -0.38698,0 -0.90146,0 -1.2878,0 -0.25755,0 -0.38698,0 -0.64389,0 -1.03088,0 -2.18925,0 -3.21949,0 -0.25755,0 -0.38698,0 -0.64389,0 -1.99673,-2.31802 -3.86338,-4.70044 -5.66629,-7.21164 -0.065,-0.12878 -0.12878,-0.32195 -0.12878,-0.51511 0,-0.25756 0,-0.45073 0,-0.6439 -0.6439,0.0644 -1.2234,-0.0644 -1.8673,-0.25756 0,-0.0644 -0.0644,-0.19317 -0.0644,-0.38634 -6.82595,-2.12486 -13.39305,-1.99608 -19.89641,0.25756 0,0.0644 -0.0644,0.12814 -0.0644,0.38634 0.25692,0 0.38634,-0.0644 0.57887,-0.12878 z"
   id="path85"
   style="fill:#dadada;stroke-width:1"
   inkscape:connector-curvature="0" /><path
   d="m 596.03026,720.73038 c -3.02632,0.83706 -5.86011,0.90145 -8.43569,0.12878 -0.19317,-0.065 -0.32195,-0.12878 -0.57887,-0.12878 0,0.19317 0.0644,0.32195 0.0644,0.38634 3.09071,1.15965 6.31019,1.2234 9.59406,0.25756 0.25692,0 0.38634,-0.0644 0.45073,-0.19317 1.48096,-1.54536 3.02567,-2.96257 4.70044,-4.31411 -2.12485,0.90145 -3.99215,1.99608 -5.66629,3.41265 -0.0644,0.0644 -0.12877,0.25756 -0.12877,0.45073 z"
   id="path87"
   style="fill:#8b8b8b;stroke-width:1"
   inkscape:connector-curvature="0" /><path
   d="m 633.05431,655.69682 c 0.25691,-6.88969 0.32195,-13.71499 0.32195,-20.60469 -0.70893,6.11702 -0.96585,12.74915 -0.6439,19.9608 0,0.19317 0,0.45072 0,0.64389 z"
   id="path89"
   style="fill:#87898c;stroke-width:1"
   inkscape:connector-curvature="0" /><path
   d="m 625.77828,718.02601 c 1.80291,2.5112 3.66956,4.89426 5.66629,7.21164 0,-0.25755 0,-0.38633 0,-0.64389 -1.35283,-2.76876 -3.09071,-5.08678 -5.27995,-6.95408 -0.12878,-0.065 -0.25756,-0.12878 -0.51512,-0.12878 0,0.19316 0.0644,0.38633 0.12878,0.51511 z"
   id="path91"
   style="fill:#717171;stroke-width:1"
   inkscape:connector-curvature="0" /><path
   d="m 640.5879,720.79477 c -0.065,0.12878 -0.12878,0.38698 -0.12878,0.57951 0.25691,0 0.38634,-0.0644 0.38634,-0.19317 2.44681,-3.41266 4.05655,-7.59798 4.76483,-12.68477 -0.25756,0 -0.38698,0 -0.64389,0 -1.09463,4.44289 -2.5112,8.56383 -4.3785,12.29843 z"
   id="path93"
   style="fill:#a0a2a5;stroke-width:1"
   inkscape:connector-curvature="0" /><path
   d="m 640.45912,721.37428 c -1.2234,1.60974 -2.89753,2.70436 -5.08678,3.54143 0,0 -0.0644,0.0644 -0.0644,0.32194 0.25691,0 0.38634,0 0.64389,0 0.38634,0 0.90082,0 1.2878,0 0.25691,0 0.38634,-0.0644 0.51511,-0.19316 1.15902,-0.90146 2.12486,-2.12486 2.70437,-3.67021 z"
   id="path95"
   style="fill:#999a9e;stroke-width:1"
   inkscape:connector-curvature="0" />
    
</svg>