<?xml version="1.0" encoding="UTF-8" standalone="no"?>
<!-- Created with Inkscape (http://www.inkscape.org/) -->

<svg
   xmlns:dc="http://purl.org/dc/elements/1.1/"
   xmlns:cc="http://creativecommons.org/ns#"
   xmlns:rdf="http://www.w3.org/1999/02/22-rdf-syntax-ns#"
   xmlns:svg="http://www.w3.org/2000/svg"
   xmlns="http://www.w3.org/2000/svg"
   xmlns:sodipodi="http://sodipodi.sourceforge.net/DTD/sodipodi-0.dtd"
   xmlns:inkscape="http://www.inkscape.org/namespaces/inkscape"
   version="1.1"
   id="svg2"
   xml:space="preserve"
   width="297mm"
   height="210mm"
   viewBox="0 0 1122.5197 793.70078"
   sodipodi:docname="Salmo_salar.svg"
   inkscape:version="0.92.3 (unknown)"><metadata
     id="metadata8"><rdf:RDF><cc:Work
         rdf:about=""><dc:format>image/svg+xml</dc:format><dc:type
           rdf:resource="http://purl.org/dc/dcmitype/StillImage" /><dc:title></dc:title></cc:Work></rdf:RDF></metadata><defs
     id="defs6" /><sodipodi:namedview
     pagecolor="#ffffff"
     bordercolor="#666666"
     borderopacity="1"
     objecttolerance="10"
     gridtolerance="10"
     guidetolerance="10"
     inkscape:pageopacity="0"
     inkscape:pageshadow="2"
     inkscape:window-width="1800"
     inkscape:window-height="854"
     id="namedview4"
     showgrid="false"
     inkscape:zoom="0.4994318"
     inkscape:cx="293.33334"
     inkscape:cy="186.66667"
     inkscape:window-x="65"
     inkscape:window-y="24"
     inkscape:window-maximized="0"
     inkscape:current-layer="g10"
     units="mm" /><g
     id="g10"
     inkscape:groupmode="layer"
     inkscape:label="fish"
     transform="matrix(1.3333333,0,0,-1.3333333,0,793.70077)"><path
       style="fill:#000000;fill-opacity:1;fill-rule:nonzero;stroke:#000000;stroke-width:0.99999994;stroke-opacity:1"
       d="m 464.9972,542.28936 c -10.51768,0.24177 -20.90487,-14.45543 -36.96595,-33.60466 l -2.54702,-2.52582 c -7.87156,-6.06534 -19.99416,-1.96309 -32.6376,-9.86358 -14.09961,-8.81042 -36.5076,-33.02139 -45.11483,-30.71275 -8.46325,2.26979 6.23957,-14.33819 14.68482,-21.16259 C 307.1864,435.15612 234.66358,407.85036 166.28577,331.00061 143.33673,305.33532 120.84557,274.1096 99.623912,236.12848 l 0.726218,0.57416 c -0.0432,-0.0773 -0.0857,-0.15179 -0.12893,-0.22914 C 53.264522,155.04658 35.120766,81.001074 29.557261,53.951125 L 215.3448,231.48771 c 4.4921,-2.93101 7.96562,-5.19831 8.69091,-5.55731 3.70277,-1.83271 14.75457,-10.67283 27.23308,-4.78562 2.33972,1.10389 6.1179,3.62203 10.70115,7.01645 2.2805,1.64278 4.39039,3.24824 6.23599,4.72503 l 53.77415,-2.15708 c 0.67523,-3.46299 4.58203,-7.49237 15.86624,-10.14539 1.65135,-2.52769 4.97599,-4.5718 10.78009,-5.40457 30.93716,-4.43903 60.78661,1.0577 80.94409,11.23316 l 76.3921,-3.06575 c 96.07639,-35.84273 145.65345,-32.3505 176.23359,-37.19453 30.57297,-4.84221 65.3247,-6.60647 79.1996,-11.16731 13.87473,-4.56119 28.38028,-6.77241 38.98673,4.65394 1.62129,2.92302 5.66855,10.23295 -1.60768,9.66603 -7.28412,-0.56475 -17.35028,2.55734 -24.57029,5.33345 1.88659,7.0491 26.31958,16.86413 29.29597,18.5841 4.34547,-1.59996 7.26741,0.78754 8.43568,4.90677 1.25938,3.86529 0.8711,9.44486 -1.50506,14.71504 -4.73581,10.50451 -25.1013,36.70587 -62.74661,66.35861 -29.09035,22.91291 -44.16098,53.32447 -115.01309,90.45262 -29.86165,15.64465 -53.7062,27.18078 -75.18962,35.69326 -0.0878,0.0348 -0.17271,0.0654 -0.2605,0.10006 -9.65391,43.14259 -58.31107,97.84454 -84.84882,114.15682 -2.5124,1.77568 -4.94814,2.62804 -7.3753,2.68384 z"
       id="path14"
       inkscape:connector-curvature="0" /></g></svg>