<?xml version="1.0" encoding="UTF-8" standalone="no"?>
<!-- Created with Inkscape (http://www.inkscape.org/) -->

<svg
   xmlns:dc="http://purl.org/dc/elements/1.1/"
   xmlns:cc="http://creativecommons.org/ns#"
   xmlns:rdf="http://www.w3.org/1999/02/22-rdf-syntax-ns#"
   xmlns:svg="http://www.w3.org/2000/svg"
   xmlns="http://www.w3.org/2000/svg"
   xmlns:sodipodi="http://sodipodi.sourceforge.net/DTD/sodipodi-0.dtd"
   xmlns:inkscape="http://www.inkscape.org/namespaces/inkscape"
   width="297mm"
   height="210mm"
   viewBox="0 0 297 210"
   version="1.1"
   id="svg8"
   inkscape:version="0.92.3 (unknown)"
   sodipodi:docname="Spotted_gar.svg">
  <defs
     id="defs2" />
  <sodipodi:namedview
     id="base"
     pagecolor="#ffffff"
     bordercolor="#666666"
     borderopacity="1.0"
     inkscape:pageopacity="0.0"
     inkscape:pageshadow="2"
     inkscape:zoom="0.35"
     inkscape:cx="-110"
     inkscape:cy="560"
     inkscape:document-units="mm"
     inkscape:current-layer="layer1"
     showgrid="false"
     inkscape:window-width="2495"
     inkscape:window-height="1416"
     inkscape:window-x="65"
     inkscape:window-y="24"
     inkscape:window-maximized="1" />
  <metadata
     id="metadata5">
    <rdf:RDF>
      <cc:Work
         rdf:about="">
        <dc:format>image/svg+xml</dc:format>
        <dc:type
           rdf:resource="http://purl.org/dc/dcmitype/StillImage" />
        <dc:title></dc:title>
      </cc:Work>
    </rdf:RDF>
  </metadata>
  <g
     inkscape:label="Layer 1"
     inkscape:groupmode="layer"
     id="layer1"
     transform="translate(0,-87)">
    <path
       style="fill:#000000;stroke-width:0.99999994"
       d="m 158.80333,225.47302 c -2.43185,-0.89417 -5.51726,-5.63902 -7.18916,-11.05572 -1.96962,-6.38127 -3.76544,-10.9438 -4.38906,-11.15103 -0.30833,-0.10246 -8.92152,-0.4189 -19.14042,-0.7032 -10.2189,-0.2843 -20.92088,-0.7811 -23.78218,-1.104 -2.86129,-0.32291 -6.317143,-0.60247 -7.679663,-0.62124 -2.21176,-0.0305 -2.45933,0.0721 -2.30954,0.95678 0.0923,0.54501 0.8128,1.97054 1.60116,3.16786 1.83195,2.78224 2.24396,5.05368 1.5364,8.47027 -0.88393,4.26817 -3.41544,5.63671 -6.27133,3.39027 -0.75103,-0.59076 -1.68874,-1.84771 -2.0838,-2.79323 -0.9154,-2.19084 -2.13284,-9.06663 -2.13372,-12.05064 -4.1e-4,-1.38263 -0.28184,-2.52612 -0.70896,-2.8806 -1.0367,-0.86038 -13.82105,-3.33234 -21.83525,-4.22203 -3.81505,-0.42352 -9.50048,-1.09444 -12.63428,-1.49092 -3.1338,-0.39649 -11.16028,-1.0814 -17.83663,-1.52203 -15.5941,-1.02919 -18.31598,-1.67617 -16.64806,-3.95719 0.7444,-1.01803 1.7943,-1.04814 15.16167,-0.43472 9.19458,0.42193 20.31604,-0.50316 30.22319,-2.51396 4.49632,-0.9126 9.51287,-1.81201 11.14789,-1.99869 1.63503,-0.18668 4.86792,-0.74699 7.1842,-1.24513 12.11036,-2.60443 18.40314,-3.18402 46.077983,-4.24393 16.82314,-0.64431 26.18772,-0.7257 46.57342,-0.40477 38.94492,0.61311 39.1316,0.61097 40.87562,-0.46653 0.81752,-0.50509 2.60118,-2.61008 3.9637,-4.67777 1.36252,-2.06769 4.3247,-5.70519 6.58262,-8.08332 4.46195,-4.69953 6.99912,-6.07729 10.22682,-5.55351 3.93689,0.63887 6.5907,5.322 5.32937,9.40464 -0.97216,3.14666 -5.44504,8.60147 -8.87162,10.81921 -1.89701,1.22778 -3.07126,2.3321 -3.08616,2.90238 -0.0224,0.85586 0.36756,0.90598 5.54989,0.7134 5.929,-0.22033 9.28489,-1.16257 24.29589,-6.82159 9.39614,-3.54227 12.30731,-3.71159 15.50735,-0.90191 2.22559,1.95408 3.83682,5.13132 5.0972,10.05131 l 0.99229,3.87345 -1.15126,3.62537 c -2.0373,6.41546 -7.06954,12.41857 -11.42164,13.62521 -2.60462,0.72214 -6.42956,-0.004 -14.86387,-2.82368 -14.80468,-4.94852 -17.9565,-5.72404 -23.18985,-5.70598 -2.67177,0.009 -5.06857,0.14705 -5.32622,0.30629 -1.25346,0.77468 -0.14812,1.44808 4.41066,2.68712 3.24911,0.88307 6.34654,3.99094 7.32211,7.34678 1.13264,3.89613 0.70768,6.70447 -1.33313,8.81006 -4.18055,4.31323 -7.8284,3.11482 -17.55684,-5.76788 -2.45253,-2.23932 -5.71925,-5.12584 -7.25936,-6.41449 -2.72119,-2.27686 -2.89597,-2.34414 -6.19328,-2.38374 -1.86619,-0.0224 -5.39969,0.18993 -7.85222,0.47189 -2.45254,0.28195 -12.13295,0.6626 -21.51203,0.84588 -12.59824,0.24619 -17.10459,0.48897 -17.25087,0.92939 -0.1089,0.32788 1.09223,1.32431 2.66917,2.21428 6.19505,3.49627 8.00153,6.71449 6.92746,12.34124 -1.09049,5.71282 -4.04717,8.40026 -7.74566,7.04035 z"
       id="path826"
       inkscape:connector-curvature="0" />
  </g>
</svg>
