<?xml version="1.0" encoding="UTF-8" standalone="no"?>
<!-- Created with Inkscape (http://www.inkscape.org/) -->

<svg
   xmlns:dc="http://purl.org/dc/elements/1.1/"
   xmlns:cc="http://creativecommons.org/ns#"
   xmlns:rdf="http://www.w3.org/1999/02/22-rdf-syntax-ns#"
   xmlns:svg="http://www.w3.org/2000/svg"
   xmlns="http://www.w3.org/2000/svg"
   xmlns:sodipodi="http://sodipodi.sourceforge.net/DTD/sodipodi-0.dtd"
   xmlns:inkscape="http://www.inkscape.org/namespaces/inkscape"
   width="297mm"
   height="210mm"
   viewBox="0 0 297 210"
   version="1.1"
   id="svg8"
   inkscape:version="0.92.3 (unknown)"
   sodipodi:docname="Fugu_rubripes.svg">
  <defs
     id="defs2" />
  <sodipodi:namedview
     id="base"
     pagecolor="#ffffff"
     bordercolor="#666666"
     borderopacity="1.0"
     inkscape:pageopacity="0.0"
     inkscape:pageshadow="2"
     inkscape:zoom="0.35"
     inkscape:cx="-110"
     inkscape:cy="560"
     inkscape:document-units="mm"
     inkscape:current-layer="layer1"
     showgrid="false"
     inkscape:window-width="1967"
     inkscape:window-height="1171"
     inkscape:window-x="465"
     inkscape:window-y="132"
     inkscape:window-maximized="0" />
  <metadata
     id="metadata5">
    <rdf:RDF>
      <cc:Work
         rdf:about="">
        <dc:format>image/svg+xml</dc:format>
        <dc:type
           rdf:resource="http://purl.org/dc/dcmitype/StillImage" />
        <dc:title></dc:title>
      </cc:Work>
    </rdf:RDF>
  </metadata>
  <g
     inkscape:label="Layer 1"
     inkscape:groupmode="layer"
     id="layer1"
     transform="translate(0,-87)">
    <path
       style="fill:#000000;stroke-width:0.99999994"
       d="m 106.02682,244.94144 c -3.96905,-0.33439 -7.784229,-1.16039 -11.223609,-2.42996 -0.66596,-0.24583 -1.88947,-0.6777 -2.7189,-0.95973 -0.82944,-0.28202 -4.35834,-1.94906 -7.841992,-3.70453 -10.877166,-5.48119 -10.689452,-5.36713 -13.923985,-8.46077 -0.918031,-0.87806 -2.867882,-2.70645 -4.332993,-4.06308 -3.200576,-2.96362 -6.761872,-6.8396 -7.274179,-7.91695 -0.520692,-1.09497 -5.742108,-6.27978 -6.746907,-6.69961 -0.456357,-0.19068 -1.029989,-0.52974 -1.274743,-0.75347 -0.244763,-0.22373 -1.20455,-0.88324 -2.13286,-1.46557 -1.764516,-1.10689 -3.260838,-1.56043 -5.14812,-1.56043 -1.142979,0 -2.932125,-0.47048 -6.604307,-1.73668 -2.338486,-0.80634 -2.470872,-0.8452 -6.373245,-1.87045 -1.574011,-0.41353 -3.273332,-0.75187 -3.776285,-0.75187 -1.39339,0 -6.379058,-1.82454 -8.233133,-3.01298 -0.899013,-0.57625 -2.061817,-1.57121 -2.58401,-2.21103 -0.522192,-0.63981 -1.495131,-1.71885 -2.162103,-2.39785 -0.666962,-0.67901 -1.612122,-1.77554 -2.100349,-2.43673 -0.488236,-0.6612 -1.342583,-1.63808 -1.8985588,-2.17085 -0.555975,-0.53276 -1.422458,-1.56915 -1.925531,-2.30306 -0.761034,-1.11026 -0.942936,-1.61871 -1.082983,-3.02709 -0.226668,-2.27947 0.181106,-5.27797 0.939266,-6.90675 0.770114,-1.65447 0.772219,-2.07956 0.01583,-3.19272 -0.772777,-1.13725 -0.756769,-1.50856 0.125659,-2.91377 1.411201,-2.24725 3.9725108,-4.65799 6.1203268,-5.76053 1.093224,-0.56118 2.750516,-1.5899 3.682853,-2.28601 0.932347,-0.69612 2.076589,-1.4727 2.542758,-1.72573 1.104327,-0.59939 2.947328,-2.17666 3.321209,-2.84236 0.161775,-0.28802 0.297996,-0.76265 0.30271,-1.05471 0.01208,-0.74981 0.869046,-2.11414 1.560217,-2.48404 0.340446,-0.1822 0.92075,-0.25272 1.392785,-0.16925 0.445045,0.0787 1.190583,0.20908 1.656752,0.28971 1.055213,0.18254 2.657222,-0.47027 4.706115,-1.9177 1.397124,-0.98699 5.691044,-2.88363 9.097401,-4.01836 4.107213,-1.36819 7.76,-1.98814 14.287853,-2.42493 1.798089,-0.12032 4.141051,-0.33062 5.206588,-0.46734 4.98899,-0.64017 6.205723,-0.75841 6.422909,-0.62419 0.411499,0.25433 14.333699,-0.37426 16.2197,-0.73232 0.998942,-0.18965 3.371602,-0.40458 5.272582,-0.47763 1.90099,-0.073 3.97151,-0.23852 4.60118,-0.36772 0.62965,-0.1292 3.86969,-0.34088 7.200069,-0.4704 3.33037,-0.12952 6.65412,-0.37204 7.38609,-0.53892 3.23813,-0.73824 18.47022,-0.19741 22.39939,0.79532 1.39293,0.35194 2.68544,0.62472 4.47229,0.94388 0.86146,0.15387 2.82302,0.80271 4.35901,1.44187 2.77215,1.15354 3.31095,1.3148 7.27281,2.1766 1.13212,0.24627 2.71226,0.61851 3.51141,0.82721 0.79915,0.2087 2.86968,0.71424 4.60118,1.12342 1.73149,0.40919 3.52958,0.84273 3.99575,0.96343 0.46617,0.1207 1.58317,0.38866 2.48221,0.59546 0.89905,0.2068 2.33271,0.54879 3.18591,0.75998 1.15988,0.28708 1.67523,0.31763 2.04251,0.12108 0.27016,-0.14459 0.75696,-0.26289 1.08176,-0.26289 0.32481,0 1.10502,-0.22757 1.73383,-0.50572 0.99277,-0.43916 1.46703,-0.48959 3.60274,-0.38314 1.35271,0.0675 2.7885,0.1947 3.19064,0.28284 0.62284,0.13651 1.07135,-0.0618 3.02709,-1.33841 1.26276,-0.82427 2.51387,-1.68902 2.78025,-1.92169 0.26638,-0.23266 0.86575,-0.62789 1.33192,-0.87829 0.46617,-0.2504 1.89288,-1.08343 3.17046,-1.85118 1.27758,-0.76775 2.39363,-1.39592 2.48011,-1.39592 0.0865,0 0.64449,-0.37192 1.24002,-0.82649 0.59552,-0.45458 2.8577,-1.78952 5.02706,-2.96655 4.41594,-2.39595 4.19351,-2.34266 11.08821,-2.65655 4.18618,-0.19058 5.95288,0.13856 7.08297,1.31955 0.62861,0.65692 0.89588,1.18968 1.01378,2.02078 0.14464,1.0196 0.0909,1.20747 -0.55596,1.94423 -0.71966,0.81964 -0.81118,1.3123 -0.73379,3.94995 0.0117,0.39958 0.006,1.97972 -0.0124,3.51143 -0.0318,2.63287 -0.0728,2.84859 -0.75032,3.9513 -0.39417,0.64151 -0.71668,1.3674 -0.71668,1.61307 0,0.66216 -0.97917,3.15165 -1.61905,4.11636 -0.30704,0.4629 -0.62859,1.37183 -0.71455,2.01983 -0.15211,1.14668 -0.77668,2.1683 -1.90432,3.11497 -0.36513,0.30653 -0.41605,0.47614 -0.20689,0.68912 0.41461,0.42221 3.48766,1.44477 4.34553,1.44598 0.41157,4.8e-4 1.60048,0.219 2.64204,0.48539 1.04154,0.26638 2.10143,0.48432 2.3553,0.48432 0.68516,0 4.69625,0.94527 6.36271,1.49947 1.17109,0.38945 2.48958,0.52216 6.79588,0.68401 4.83392,0.18168 5.49139,0.1584 6.90176,-0.24443 1.87079,-0.53432 3.64346,-1.17806 3.97863,-1.44482 0.13424,-0.10685 1.46217,-0.80943 2.95095,-1.56129 1.48878,-0.75187 3.6138,-1.9674 4.72225,-2.70118 2.06908,-1.36968 4.3022,-2.5107 6.85873,-3.50446 1.44551,-0.56189 4.33992,-1.88933 8.96017,-4.10935 1.33192,-0.63998 2.80308,-1.27452 3.26926,-1.41008 0.46617,-0.13556 1.44694,-0.48424 2.1795,-0.77484 2.40191,-0.95281 7.69507,-2.41604 8.73991,-2.41604 0.63159,0 1.09454,0.34495 2.78935,2.07835 1.11764,1.1431 2.03282,2.26009 2.0337,2.48221 0,0.22213 0.21809,0.73079 0.48273,1.13036 0.26464,0.39958 0.48186,1.08794 0.48274,1.5297 0,0.47898 0.24296,1.11964 0.59953,1.58713 0.91209,1.19582 1.3178,2.37037 1.49037,4.31459 0.0865,0.97401 0.27856,1.92387 0.42689,2.1108 0.14835,0.18692 0.34402,1.05873 0.43483,1.93734 0.0908,0.8786 0.24004,2.16066 0.3316,2.84902 0.0991,0.74466 0.0487,1.74271 -0.1244,2.46424 l -0.29091,1.21267 1.00428,1.27052 c 0.72328,0.91501 0.96696,1.41938 0.87079,1.80249 -0.0899,0.35815 0.0566,0.73706 0.44828,1.15971 0.63135,0.68124 0.58565,0.005 0.66237,9.79799 0.0138,1.75144 -0.0692,2.34562 -0.37447,2.68291 -0.48965,0.54108 -0.49662,0.96792 -0.0243,1.48982 0.29091,0.32146 0.36928,1.10962 0.37514,3.77265 0.0112,5.02382 -0.42922,6.72352 -2.21927,8.56804 -0.93716,0.96569 -0.94004,0.96668 -2.45533,0.8367 -0.83438,-0.0716 -1.89847,-0.22092 -2.36463,-0.33187 -0.46618,-0.11096 -2.37325,-0.49619 -4.23794,-0.85605 -1.86468,-0.35987 -4.48008,-0.98156 -5.812,-1.38154 -1.33192,-0.39997 -3.40244,-1.00025 -4.60117,-1.33397 -1.19873,-0.33371 -2.7925,-0.86888 -3.54169,-1.18926 -0.74922,-0.32037 -1.48134,-0.5825 -1.62695,-0.5825 -0.14562,0 -1.51827,-0.4901 -3.05036,-1.08911 -1.5321,-0.59901 -3.63333,-1.3714 -4.6694,-1.71642 -2.26515,-0.75429 -6.83891,-2.70719 -9.07511,-3.87486 -3.99052,-2.08373 -7.13273,-2.63487 -10.41516,-1.82681 -1.13493,0.27939 -3.24477,0.68347 -4.68856,0.89797 -1.44377,0.21449 -3.33859,0.64395 -4.21069,0.95436 -0.87209,0.3104 -2.23948,0.63429 -3.03864,0.71973 -0.79914,0.0855 -2.16134,0.31003 -3.02708,0.49905 -0.86575,0.18902 -2.93627,0.44877 -4.60117,0.57722 -4.43193,0.34192 -7.15833,0.95035 -7.62226,1.701 -0.22999,0.37214 1.73089,2.34975 2.88277,2.90737 0.74994,0.36304 1.33499,0.94705 2.13479,2.13101 l 1.10172,1.63092 0.14134,2.74081 c 0.11667,2.26234 0.24487,2.93876 0.73434,3.87468 0.6792,1.29867 1.60949,3.35427 2.15711,4.76636 0.20661,0.53276 0.4393,1.73149 0.51709,2.66383 0.17424,2.08827 -0.24521,3.06793 -1.74062,4.06537 -0.95072,0.63414 -1.27789,0.70009 -4.48007,0.90301 -2.64825,0.16783 -3.87832,0.14223 -5.2707,-0.10969 -2.4975,-0.45187 -7.08277,-2.16109 -9.44451,-3.52057 -0.46617,-0.26834 -1.99183,-1.02287 -3.39034,-1.67673 -2.30818,-1.07918 -3.33894,-1.73883 -7.14392,-4.57186 -1.45142,-1.08066 -3.8085,-3.46501 -4.64377,-4.69749 -0.33172,-0.48947 -0.76557,-0.95229 -0.96411,-1.02847 -0.42878,-0.16454 -6.93134,3.40709 -8.67997,4.76759 -1.18121,0.91902 -2.5315,2.55798 -3.75359,4.55605 -0.55378,0.90539 -1.6841,2.05968 -4.25126,4.34141 -0.52543,0.46701 -1.50021,1.54807 -2.16617,2.40234 -1.85662,2.38164 -3.75958,4.36754 -4.98123,5.19835 -0.6086,0.41389 -1.62224,1.13395 -2.25254,1.60012 -0.63029,0.46618 -1.87595,1.2555 -2.76811,1.75407 -2.06584,1.15444 -7.72879,3.92832 -8.52388,4.17525 -0.33299,0.1034 -1.20479,0.48666 -1.93734,0.85167 -1.38174,0.68847 -6.3049,2.42136 -6.87912,2.42136 -0.18005,0 -0.91321,0.2682 -1.62924,0.59601 -0.71603,0.32781 -2.11863,0.71872 -3.11689,0.86868 -0.99826,0.14996 -3.2441,0.54018 -4.99076,0.86716 -2.79005,0.5223 -4.02528,0.60609 -10.17101,0.68995 -3.8474,0.0525 -8.15623,-0.003 -9.57518,-0.12191 z"
       id="path830"
       inkscape:connector-curvature="0" />
    <path
       style="fill:#000000;stroke-width:1"
       d=""
       id="path828"
       inkscape:connector-curvature="0" />
    <path
       style="fill:#000000;stroke-width:1"
       d=""
       id="path826"
       inkscape:connector-curvature="0" />
  </g>
</svg>
