<?xml version="1.0" encoding="UTF-8" standalone="no"?>
<!-- Created with Inkscape (http://www.inkscape.org/) -->

<svg
   xmlns:dc="http://purl.org/dc/elements/1.1/"
   xmlns:cc="http://creativecommons.org/ns#"
   xmlns:rdf="http://www.w3.org/1999/02/22-rdf-syntax-ns#"
   xmlns:svg="http://www.w3.org/2000/svg"
   xmlns="http://www.w3.org/2000/svg"
   xmlns:sodipodi="http://sodipodi.sourceforge.net/DTD/sodipodi-0.dtd"
   xmlns:inkscape="http://www.inkscape.org/namespaces/inkscape"
   version="1.1"
   width="297mm"
   height="210mm"
   viewBox="0 0 1122.5197 793.7008"
   id="Layer_1"
   xml:space="preserve"
   sodipodi:docname="Tursiops_truncatus.svg"
   inkscape:version="0.92.3 (unknown)"><metadata
   id="metadata10"><rdf:RDF><cc:Work
       rdf:about=""><dc:format>image/svg+xml</dc:format><dc:type
         rdf:resource="http://purl.org/dc/dcmitype/StillImage" /><dc:title /></cc:Work></rdf:RDF></metadata><sodipodi:namedview
   pagecolor="#ffffff"
   bordercolor="#666666"
   borderopacity="1"
   objecttolerance="10"
   gridtolerance="10"
   guidetolerance="10"
   inkscape:pageopacity="0"
   inkscape:pageshadow="2"
   inkscape:window-width="2495"
   inkscape:window-height="1416"
   id="namedview8"
   showgrid="false"
   units="mm"
   inkscape:zoom="0.3264177"
   inkscape:cx="-220.34535"
   inkscape:cy="361.5"
   inkscape:window-x="65"
   inkscape:window-y="24"
   inkscape:window-maximized="1"
   inkscape:current-layer="Layer_1" /><defs
   id="defs13">
        
        
        
    
            
            
            
            
            
        </defs>
    
    <path
   d="m 914.04587,738.83133 c 0,0.35981 0,0.7207 0,1.08051 -13.2265,-6.51222 -31.88797,-14.10928 -51.86441,-12.9661 -8.39015,0.47975 -16.52421,2.4279 -23.77118,5.40254 -5.42416,-2.1394 -8.62246,-6.50466 -14.04661,-8.64406 3.56675,18.95211 -9.62301,15.33025 -20.52967,20.52966 -6.12864,2.92169 -8.67432,8.81803 -14.04661,7.56356 -0.0421,6.22048 -5.2329,10.85046 -7.56356,16.20762 -2.53271,5.82178 -1.38197,14.05958 -7.56356,17.28814 -16.07472,-13.49555 -21.87489,-53.38468 -11.88559,-81.03814 2.35875,-6.52735 9.54845,-14.28864 12.9661,-19.44915 2.19668,-3.31716 3.26422,-5.04057 3.24153,-8.64407 -0.04,-6.50034 -15.79379,-23.90841 -21.61017,-32.41525 -23.02564,-33.67621 -44.87784,-69.19253 -64.83051,-99.40679 -14.3081,-21.66743 -30.78045,-42.30623 -45.38136,-63.75 -7.73644,-11.36262 -12.94341,-23.2936 -20.52966,-33.49576 -11.69326,-15.7268 -25.83388,-29.93981 -37.8178,-44.30085 -8.35665,-10.01523 -17.15523,-19.69767 -24.85169,-29.17373 -6.50358,-8.00657 -13.52257,-14.38049 -19.44916,-21.61017 -14.63224,-17.84784 -30.79557,-33.80587 -46.46186,-49.70339 -18.16551,-18.43456 -37.58009,-35.65786 -56.18644,-52.94492 -14.1806,-13.17356 -27.41034,-27.54972 -41.05933,-39.97881 -4.35553,-3.96547 -9.87476,-9.14867 -16.20762,-9.72458 -3.6089,5.7764 -3.70507,14.00663 -5.40255,21.61017 -1.6737,7.49657 -4.12538,14.57282 -4.32203,22.69068 -0.38034,15.68574 2.90333,32.87879 0,46.46187 -8.20322,-3.48897 -12.55011,-12.91964 -17.28814,-20.52966 -20.01209,-32.14513 -32.21752,-73.65719 -29.17373,-123.17797 -5.20264,-9.92447 -16.27678,-13.97746 -21.61017,-23.77119 -17.89214,-5.21778 -41.4429,-22.43892 -64.83051,-29.17373 -17.87701,-5.148624 -39.51311,-5.045975 -29.17373,-23.771188 4.89255,-8.86233 14.69924,-9.385296 23.77119,-12.966101 4.01409,-6.722924 5.96117,-10.958518 10.80509,-15.127119 25.11209,-21.613412 64.21246,-35.6827132 110.21186,-34.5762725 28.57621,0.6872034 53.70992,8.2637295 76.71611,17.2881365 22.55885,8.849364 43.03449,21.146631 62.66949,32.415255 24.24229,13.912627 48.00699,32.93714 68.07204,49.703389 12.51336,10.45608 23.89544,25.88034 36.73728,34.57627 23.29685,15.77543 52.67155,12.58252 84.27967,12.96611 27.54216,0.33495 49.96919,7.81639 66.99152,18.36864 6.52411,4.04434 15.2503,10.62248 15.12712,19.44915 -10.2162,7.27831 -26.8582,3.94926 -39.97881,6.48305 -4.45494,4.18914 -11.35074,5.9374 -17.28814,8.64407 -4.30366,8.576 -12.85373,13.11738 -14.04661,22.69068 -1.35279,10.86451 5.6932,31.64269 9.72458,46.46187 12.70354,46.68553 25.9657,90.08307 39.97881,131.82203 9.22863,27.48814 17.82407,57.42039 28.09322,86.44068 5.03625,14.23462 10.41178,28.38928 14.04661,43.22034 3.80339,15.51286 9.52469,30.88526 11.8856,45.38136 5.04489,30.97926 1.62292,55.40415 9.72457,85.36017 42.67577,15.31081 79.14401,36.83129 103.72882,70.23305 z"
   id="path9"
   style="fill-rule:evenodd;stroke-width:1"
   inkscape:connector-curvature="0" />
    
</svg>